<svg width="1105" height="141" viewBox="0 0 1105 141" fill="none" xmlns="http://www.w3.org/2000/svg">
<path opacity="0.8" d="M853.945 60V49.29H854.605V59.43H860.68V60H853.945ZM862.045 60H861.475V52.29H862.045V60ZM862.045 50.835H861.475V49.29H862.045V50.835ZM866.845 52.605C865.965 52.605 865.285 52.935 864.805 53.595C864.325 54.245 864.085 55.015 864.085 55.905C864.085 56.855 864.325 57.645 864.805 58.275C865.295 58.905 865.975 59.22 866.845 59.22C867.735 59.22 868.425 58.9 868.915 58.26C869.405 57.62 869.65 56.835 869.65 55.905C869.65 54.975 869.405 54.195 868.915 53.565C868.435 52.925 867.745 52.605 866.845 52.605ZM869.665 52.29H870.235V59.595C870.235 59.735 870.23 59.865 870.22 59.985C870.22 60.095 870.195 60.275 870.145 60.525C870.105 60.785 870.045 61.01 869.965 61.2C869.895 61.4 869.775 61.615 869.605 61.845C869.445 62.085 869.25 62.28 869.02 62.43C868.8 62.59 868.505 62.715 868.135 62.805C867.775 62.905 867.365 62.95 866.905 62.94C864.975 62.94 863.97 62.14 863.89 60.54H864.46C864.52 61.19 864.775 61.67 865.225 61.98C865.675 62.29 866.24 62.445 866.92 62.445C867.43 62.445 867.87 62.36 868.24 62.19C868.61 62.03 868.88 61.845 869.05 61.635C869.23 61.435 869.37 61.185 869.47 60.885C869.57 60.595 869.625 60.37 869.635 60.21C869.655 60.06 869.665 59.9 869.665 59.73V57.96H869.635C869.085 59.13 868.155 59.715 866.845 59.715C865.755 59.715 864.925 59.365 864.355 58.665C863.795 57.955 863.515 57.035 863.515 55.905C863.515 54.835 863.81 53.935 864.4 53.205C864.99 52.475 865.805 52.11 866.845 52.11C867.465 52.11 868.035 52.27 868.555 52.59C869.075 52.9 869.435 53.335 869.635 53.895H869.665V52.29ZM871.916 49.29H872.486V53.94H872.516C872.706 53.38 873.056 52.935 873.566 52.605C874.086 52.275 874.656 52.11 875.276 52.11C875.706 52.11 876.086 52.165 876.416 52.275C876.746 52.375 877.006 52.525 877.196 52.725C877.386 52.915 877.541 53.11 877.661 53.31C877.781 53.5 877.866 53.735 877.916 54.015C877.966 54.295 877.996 54.515 878.006 54.675C878.016 54.825 878.021 55.01 878.021 55.23V60H877.451V55.125C877.451 53.445 876.721 52.605 875.261 52.605C874.411 52.605 873.736 52.905 873.236 53.505C872.736 54.095 872.486 54.87 872.486 55.83V60H871.916V49.29ZM882.529 52.29V52.785H880.849V58.17C880.849 58.75 880.974 59.125 881.224 59.295C881.484 59.455 881.914 59.525 882.514 59.505V60C882.184 60.02 881.899 60.015 881.659 59.985C881.419 59.955 881.179 59.885 880.939 59.775C880.709 59.655 880.539 59.465 880.429 59.205C880.319 58.935 880.269 58.59 880.279 58.17V52.785H878.854V52.29H880.279V49.89H880.849V52.29H882.529ZM854.605 69.86V74.66H858.37C859.26 74.66 859.915 74.425 860.335 73.955C860.755 73.475 860.965 72.915 860.965 72.275C860.965 72.035 860.93 71.795 860.86 71.555C860.8 71.315 860.685 71.06 860.515 70.79C860.355 70.51 860.095 70.285 859.735 70.115C859.385 69.945 858.96 69.86 858.46 69.86H854.605ZM853.945 80V69.29H858.505C858.785 69.29 859.05 69.31 859.3 69.35C859.56 69.39 859.835 69.475 860.125 69.605C860.415 69.735 860.665 69.91 860.875 70.13C861.095 70.34 861.275 70.63 861.415 71C861.555 71.37 861.625 71.8 861.625 72.29C861.625 73.23 861.33 73.955 860.74 74.465C860.16 74.975 859.335 75.23 858.265 75.23H854.605V80H853.945ZM863.272 72.29V74H863.317C863.467 73.49 863.822 73.065 864.382 72.725C864.952 72.375 865.582 72.215 866.272 72.245V72.815C865.462 72.715 864.752 72.965 864.142 73.565C863.842 73.875 863.627 74.185 863.497 74.495C863.377 74.795 863.302 75.225 863.272 75.785V80H862.702V72.29H863.272ZM867.462 79.025C866.832 78.245 866.517 77.285 866.517 76.145C866.517 75.005 866.832 74.05 867.462 73.28C868.102 72.5 868.967 72.11 870.057 72.11C871.147 72.11 872.007 72.5 872.637 73.28C873.277 74.05 873.597 75.005 873.597 76.145C873.597 77.285 873.277 78.245 872.637 79.025C872.007 79.795 871.147 80.18 870.057 80.18C868.967 80.18 868.102 79.795 867.462 79.025ZM867.882 73.64C867.352 74.33 867.087 75.165 867.087 76.145C867.087 77.125 867.352 77.96 867.882 78.65C868.412 79.34 869.137 79.685 870.057 79.685C870.977 79.685 871.702 79.34 872.232 78.65C872.762 77.96 873.027 77.125 873.027 76.145C873.027 75.165 872.762 74.33 872.232 73.64C871.702 72.95 870.977 72.605 870.057 72.605C869.137 72.605 868.412 72.95 867.882 73.64ZM875.474 72.785H874.094V72.29H875.474V70.7C875.474 70.19 875.629 69.81 875.939 69.56C876.259 69.3 876.669 69.17 877.169 69.17C877.369 69.17 877.594 69.195 877.844 69.245V69.74C877.594 69.69 877.369 69.665 877.169 69.665C876.419 69.665 876.044 70.025 876.044 70.745V72.29H877.649V72.785H876.044V80H875.474V72.785ZM879.257 80H878.687V72.29H879.257V80ZM879.257 70.835H878.687V69.29H879.257V70.835ZM854.605 99.43H861.22V100H853.945V89.29H861.145V89.86H854.605V94.15H860.755V94.72H854.605V99.43ZM862.234 100V92.29H862.804V93.94H862.834C863.024 93.38 863.374 92.935 863.884 92.605C864.404 92.275 864.974 92.11 865.594 92.11C866.024 92.11 866.404 92.165 866.734 92.275C867.064 92.375 867.324 92.525 867.514 92.725C867.704 92.915 867.859 93.11 867.979 93.31C868.099 93.5 868.184 93.735 868.234 94.015C868.284 94.295 868.314 94.515 868.324 94.675C868.334 94.825 868.339 95.01 868.339 95.23V100H867.769V95.125C867.769 93.445 867.039 92.605 865.579 92.605C864.729 92.605 864.054 92.905 863.554 93.505C863.054 94.095 862.804 94.87 862.804 95.83V100H862.234ZM872.847 92.29V92.785H871.167V98.17C871.167 98.75 871.292 99.125 871.542 99.295C871.802 99.455 872.232 99.525 872.832 99.505V100C872.502 100.02 872.217 100.015 871.977 99.985C871.737 99.955 871.497 99.885 871.257 99.775C871.027 99.655 870.857 99.465 870.747 99.205C870.637 98.935 870.587 98.59 870.597 98.17V92.785H869.172V92.29H870.597V89.89H871.167V92.29H872.847ZM880.344 96.22H874.119C874.099 97.19 874.339 98.01 874.839 98.68C875.339 99.35 876.044 99.685 876.954 99.685C877.684 99.685 878.289 99.48 878.769 99.07C879.259 98.66 879.574 98.1 879.714 97.39H880.284C880.134 98.29 879.769 98.98 879.189 99.46C878.619 99.94 877.874 100.18 876.954 100.18C875.874 100.18 875.029 99.81 874.419 99.07C873.819 98.33 873.529 97.4 873.549 96.28C873.529 95.14 873.814 94.16 874.404 93.34C875.004 92.52 875.854 92.11 876.954 92.11C878.104 92.11 878.969 92.505 879.549 93.295C880.139 94.075 880.404 95.05 880.344 96.22ZM874.119 95.725H879.774C879.754 94.865 879.489 94.13 878.979 93.52C878.479 92.91 877.804 92.605 876.954 92.605C876.144 92.605 875.484 92.92 874.974 93.55C874.474 94.17 874.189 94.895 874.119 95.725ZM882.242 92.29V94H882.287C882.437 93.49 882.792 93.065 883.352 92.725C883.922 92.375 884.552 92.215 885.242 92.245V92.815C884.432 92.715 883.722 92.965 883.112 93.565C882.812 93.875 882.597 94.185 882.467 94.495C882.347 94.795 882.272 95.225 882.242 95.785V100H881.672V92.29H882.242ZM889.387 99.685C890.337 99.685 891.057 99.355 891.547 98.695C892.037 98.025 892.282 97.18 892.282 96.16C892.282 95.18 892.037 94.345 891.547 93.655C891.067 92.955 890.347 92.605 889.387 92.605C888.427 92.605 887.717 92.945 887.257 93.625C886.797 94.305 886.567 95.15 886.567 96.16C886.567 96.65 886.612 97.095 886.702 97.495C886.802 97.895 886.952 98.265 887.152 98.605C887.362 98.945 887.657 99.21 888.037 99.4C888.417 99.59 888.867 99.685 889.387 99.685ZM886.552 92.29V94.06H886.582C886.732 93.58 887.047 93.135 887.527 92.725C888.007 92.315 888.627 92.11 889.387 92.11C890.517 92.11 891.377 92.495 891.967 93.265C892.557 94.035 892.852 95 892.852 96.16C892.852 97.38 892.557 98.355 891.967 99.085C891.387 99.815 890.527 100.18 889.387 100.18C888.717 100.18 888.137 100.035 887.647 99.745C887.157 99.445 886.802 98.995 886.582 98.395H886.552V102.76H885.982V92.29H886.552ZM894.752 92.29V94H894.797C894.947 93.49 895.302 93.065 895.862 92.725C896.432 92.375 897.062 92.215 897.752 92.245V92.815C896.942 92.715 896.232 92.965 895.622 93.565C895.322 93.875 895.107 94.185 894.977 94.495C894.857 94.795 894.782 95.225 894.752 95.785V100H894.182V92.29H894.752ZM899.062 100H898.492V92.29H899.062V100ZM899.062 90.835H898.492V89.29H899.062V90.835ZM900.576 97.435H901.146C901.186 98.135 901.441 98.685 901.911 99.085C902.391 99.485 902.986 99.685 903.696 99.685C903.976 99.685 904.246 99.66 904.506 99.61C904.766 99.56 905.026 99.48 905.286 99.37C905.546 99.26 905.751 99.095 905.901 98.875C906.061 98.645 906.141 98.37 906.141 98.05C906.141 97.66 906.006 97.345 905.736 97.105C905.466 96.855 905.201 96.69 904.941 96.61C904.681 96.53 904.271 96.435 903.711 96.325C903.621 96.305 903.551 96.29 903.501 96.28C903.091 96.2 902.756 96.12 902.496 96.04C902.246 95.96 901.976 95.84 901.686 95.68C901.406 95.52 901.196 95.31 901.056 95.05C900.916 94.79 900.846 94.47 900.846 94.09C900.846 93.61 900.991 93.215 901.281 92.905C901.581 92.595 901.926 92.385 902.316 92.275C902.716 92.165 903.156 92.11 903.636 92.11C904.506 92.11 905.196 92.31 905.706 92.71C906.226 93.11 906.486 93.73 906.486 94.57H905.916C905.906 93.9 905.696 93.405 905.286 93.085C904.876 92.765 904.326 92.605 903.636 92.605C903.036 92.605 902.516 92.73 902.076 92.98C901.636 93.22 901.416 93.59 901.416 94.09C901.416 94.36 901.476 94.595 901.596 94.795C901.726 94.985 901.906 95.14 902.136 95.26C902.376 95.37 902.621 95.46 902.871 95.53C903.121 95.6 903.411 95.67 903.741 95.74C903.851 95.76 903.931 95.775 903.981 95.785C904.431 95.865 904.791 95.95 905.061 96.04C905.341 96.12 905.621 96.245 905.901 96.415C906.181 96.575 906.386 96.79 906.516 97.06C906.646 97.33 906.711 97.66 906.711 98.05C906.711 98.45 906.616 98.795 906.426 99.085C906.246 99.375 906.001 99.595 905.691 99.745C905.391 99.895 905.076 100.005 904.746 100.075C904.416 100.145 904.066 100.18 903.696 100.18C902.786 100.18 902.041 99.94 901.461 99.46C900.891 98.98 900.596 98.305 900.576 97.435ZM914.548 96.22H908.323C908.303 97.19 908.543 98.01 909.043 98.68C909.543 99.35 910.248 99.685 911.158 99.685C911.888 99.685 912.493 99.48 912.973 99.07C913.463 98.66 913.778 98.1 913.918 97.39H914.488C914.338 98.29 913.973 98.98 913.393 99.46C912.823 99.94 912.078 100.18 911.158 100.18C910.078 100.18 909.233 99.81 908.623 99.07C908.023 98.33 907.733 97.4 907.753 96.28C907.733 95.14 908.018 94.16 908.608 93.34C909.208 92.52 910.058 92.11 911.158 92.11C912.308 92.11 913.173 92.505 913.753 93.295C914.343 94.075 914.608 95.05 914.548 96.22ZM908.323 95.725H913.978C913.958 94.865 913.693 94.13 913.183 93.52C912.683 92.91 912.008 92.605 911.158 92.605C910.348 92.605 909.688 92.92 909.178 93.55C908.678 94.17 908.393 94.895 908.323 95.725Z" fill="#383C42"/>
<path d="M855.39 19.33V16.12H857.22C857.49 16.12 857.75 16.14 858 16.18C858.25 16.22 858.47 16.3 858.66 16.42C858.85 16.53 859 16.69 859.11 16.9C859.23 17.11 859.29 17.385 859.29 17.725C859.29 18.065 859.23 18.34 859.11 18.55C859 18.76 858.85 18.925 858.66 19.045C858.47 19.155 858.25 19.23 858 19.27C857.75 19.31 857.49 19.33 857.22 19.33H855.39ZM853.035 14.29V25H855.39V21.16H857.865C858.535 21.16 859.105 21.065 859.575 20.875C860.045 20.675 860.425 20.415 860.715 20.095C861.015 19.775 861.23 19.41 861.36 19C861.5 18.58 861.57 18.155 861.57 17.725C861.57 17.285 861.5 16.86 861.36 16.45C861.23 16.04 861.015 15.675 860.715 15.355C860.425 15.035 860.045 14.78 859.575 14.59C859.105 14.39 858.535 14.29 857.865 14.29H853.035ZM862.815 17.245V25H864.945V21.505C864.945 21.155 864.98 20.83 865.05 20.53C865.12 20.23 865.235 19.97 865.395 19.75C865.565 19.52 865.785 19.34 866.055 19.21C866.325 19.08 866.655 19.015 867.045 19.015C867.175 19.015 867.31 19.025 867.45 19.045C867.59 19.055 867.71 19.07 867.81 19.09V17.11C867.64 17.06 867.485 17.035 867.345 17.035C867.075 17.035 866.815 17.075 866.565 17.155C866.315 17.235 866.08 17.35 865.86 17.5C865.64 17.64 865.445 17.815 865.275 18.025C865.105 18.225 864.97 18.445 864.87 18.685H864.84V17.245H862.815ZM870.835 16.045V14.29H868.705V16.045H870.835ZM868.705 17.245V25H870.835V17.245H868.705ZM877.792 19.975H879.877C879.847 19.475 879.727 19.045 879.517 18.685C879.307 18.315 879.032 18.01 878.692 17.77C878.362 17.52 877.982 17.335 877.552 17.215C877.132 17.095 876.692 17.035 876.232 17.035C875.602 17.035 875.042 17.14 874.552 17.35C874.062 17.56 873.647 17.855 873.307 18.235C872.967 18.605 872.707 19.05 872.527 19.57C872.357 20.08 872.272 20.635 872.272 21.235C872.272 21.815 872.367 22.35 872.557 22.84C872.747 23.32 873.012 23.735 873.352 24.085C873.692 24.435 874.102 24.71 874.582 24.91C875.072 25.1 875.607 25.195 876.187 25.195C877.217 25.195 878.062 24.925 878.722 24.385C879.382 23.845 879.782 23.06 879.922 22.03H877.867C877.797 22.51 877.622 22.895 877.342 23.185C877.072 23.465 876.682 23.605 876.172 23.605C875.842 23.605 875.562 23.53 875.332 23.38C875.102 23.23 874.917 23.04 874.777 22.81C874.647 22.57 874.552 22.305 874.492 22.015C874.432 21.725 874.402 21.44 874.402 21.16C874.402 20.87 874.432 20.58 874.492 20.29C874.552 19.99 874.652 19.72 874.792 19.48C874.942 19.23 875.132 19.03 875.362 18.88C875.592 18.72 875.877 18.64 876.217 18.64C877.127 18.64 877.652 19.085 877.792 19.975ZM883.315 16.045V14.29H881.185V16.045H883.315ZM881.185 17.245V25H883.315V17.245H881.185ZM884.993 17.245V25H887.123V20.935C887.123 20.145 887.253 19.58 887.513 19.24C887.773 18.89 888.193 18.715 888.773 18.715C889.283 18.715 889.638 18.875 889.838 19.195C890.038 19.505 890.138 19.98 890.138 20.62V25H892.268V20.23C892.268 19.75 892.223 19.315 892.133 18.925C892.053 18.525 891.908 18.19 891.698 17.92C891.488 17.64 891.198 17.425 890.828 17.275C890.468 17.115 890.003 17.035 889.433 17.035C888.983 17.035 888.543 17.14 888.113 17.35C887.683 17.55 887.333 17.875 887.063 18.325H887.018V17.245H884.993ZM897.499 23.17C897.169 23.17 896.894 23.1 896.674 22.96C896.454 22.82 896.274 22.64 896.134 22.42C896.004 22.2 895.909 21.955 895.849 21.685C895.799 21.405 895.774 21.125 895.774 20.845C895.774 20.555 895.804 20.28 895.864 20.02C895.934 19.75 896.039 19.515 896.179 19.315C896.329 19.105 896.509 18.94 896.719 18.82C896.939 18.7 897.199 18.64 897.499 18.64C897.849 18.64 898.139 18.705 898.369 18.835C898.599 18.965 898.784 19.14 898.924 19.36C899.064 19.58 899.164 19.835 899.224 20.125C899.284 20.405 899.314 20.705 899.314 21.025C899.314 21.305 899.274 21.575 899.194 21.835C899.124 22.085 899.014 22.31 898.864 22.51C898.714 22.71 898.524 22.87 898.294 22.99C898.064 23.11 897.799 23.17 897.499 23.17ZM901.339 24.505V17.245H899.314V18.28H899.284C899.024 17.83 898.699 17.51 898.309 17.32C897.929 17.13 897.484 17.035 896.974 17.035C896.434 17.035 895.954 17.14 895.534 17.35C895.124 17.56 894.779 17.845 894.499 18.205C894.219 18.555 894.004 18.965 893.854 19.435C893.714 19.895 893.644 20.375 893.644 20.875C893.644 21.405 893.704 21.91 893.824 22.39C893.954 22.86 894.154 23.275 894.424 23.635C894.694 23.985 895.039 24.265 895.459 24.475C895.879 24.675 896.379 24.775 896.959 24.775C897.429 24.775 897.874 24.68 898.294 24.49C898.724 24.29 899.054 23.985 899.284 23.575H899.314V24.595C899.324 25.145 899.189 25.6 898.909 25.96C898.639 26.32 898.204 26.5 897.604 26.5C897.224 26.5 896.889 26.42 896.599 26.26C896.309 26.11 896.114 25.835 896.014 25.435H893.899C893.929 25.875 894.049 26.25 894.259 26.56C894.479 26.88 894.749 27.14 895.069 27.34C895.399 27.54 895.759 27.685 896.149 27.775C896.549 27.875 896.939 27.925 897.319 27.925C898.209 27.925 898.919 27.805 899.449 27.565C899.979 27.325 900.384 27.03 900.664 26.68C900.944 26.34 901.124 25.97 901.204 25.57C901.294 25.17 901.339 24.815 901.339 24.505Z" fill="#2B2B2B"/>
<path opacity="0.8" d="M701.445 54.72H694.605V60H693.945V49.29H694.605V54.15H701.445V49.29H702.105V60H701.445V54.72ZM704.474 59.025C703.844 58.245 703.529 57.285 703.529 56.145C703.529 55.005 703.844 54.05 704.474 53.28C705.114 52.5 705.979 52.11 707.069 52.11C708.159 52.11 709.019 52.5 709.649 53.28C710.289 54.05 710.609 55.005 710.609 56.145C710.609 57.285 710.289 58.245 709.649 59.025C709.019 59.795 708.159 60.18 707.069 60.18C705.979 60.18 705.114 59.795 704.474 59.025ZM704.894 53.64C704.364 54.33 704.099 55.165 704.099 56.145C704.099 57.125 704.364 57.96 704.894 58.65C705.424 59.34 706.149 59.685 707.069 59.685C707.989 59.685 708.714 59.34 709.244 58.65C709.774 57.96 710.039 57.125 710.039 56.145C710.039 55.165 709.774 54.33 709.244 53.64C708.714 52.95 707.989 52.605 707.069 52.605C706.149 52.605 705.424 52.95 704.894 53.64ZM711.69 52.29L713.865 59.34H713.895L715.995 52.29H716.76L718.875 59.34H718.905L721.065 52.29H721.695L719.22 60H718.515L716.4 53.01H716.37L714.24 60H713.52L711.075 52.29H711.69ZM727.387 60H726.817V52.29H727.387V60ZM727.387 50.835H726.817V49.29H727.387V50.835ZM732.036 52.29V52.785H730.356V58.17C730.356 58.75 730.481 59.125 730.731 59.295C730.991 59.455 731.421 59.525 732.021 59.505V60C731.691 60.02 731.406 60.015 731.166 59.985C730.926 59.955 730.686 59.885 730.446 59.775C730.216 59.655 730.046 59.465 729.936 59.205C729.826 58.935 729.776 58.59 729.786 58.17V52.785H728.361V52.29H729.786V49.89H730.356V52.29H732.036ZM737.003 52.29L739.178 59.34H739.208L741.308 52.29H742.073L744.188 59.34H744.218L746.378 52.29H747.008L744.533 60H743.828L741.713 53.01H741.683L739.553 60H738.833L736.388 52.29H737.003ZM748.404 59.025C747.774 58.245 747.459 57.285 747.459 56.145C747.459 55.005 747.774 54.05 748.404 53.28C749.044 52.5 749.909 52.11 750.999 52.11C752.089 52.11 752.949 52.5 753.579 53.28C754.219 54.05 754.539 55.005 754.539 56.145C754.539 57.285 754.219 58.245 753.579 59.025C752.949 59.795 752.089 60.18 750.999 60.18C749.909 60.18 749.044 59.795 748.404 59.025ZM748.824 53.64C748.294 54.33 748.029 55.165 748.029 56.145C748.029 57.125 748.294 57.96 748.824 58.65C749.354 59.34 750.079 59.685 750.999 59.685C751.919 59.685 752.644 59.34 753.174 58.65C753.704 57.96 753.969 57.125 753.969 56.145C753.969 55.165 753.704 54.33 753.174 53.64C752.644 52.95 751.919 52.605 750.999 52.605C750.079 52.605 749.354 52.95 748.824 53.64ZM756.446 52.29V54H756.491C756.641 53.49 756.996 53.065 757.556 52.725C758.126 52.375 758.756 52.215 759.446 52.245V52.815C758.636 52.715 757.926 52.965 757.316 53.565C757.016 53.875 756.801 54.185 756.671 54.495C756.551 54.795 756.476 55.225 756.446 55.785V60H755.876V52.29H756.446ZM760.081 60V49.29H760.651V56.385L765.406 52.29H766.231L762.856 55.17L766.471 60H765.691L762.406 55.605L760.651 57.09V60H760.081ZM766.694 57.435H767.264C767.304 58.135 767.559 58.685 768.029 59.085C768.509 59.485 769.104 59.685 769.814 59.685C770.094 59.685 770.364 59.66 770.624 59.61C770.884 59.56 771.144 59.48 771.404 59.37C771.664 59.26 771.869 59.095 772.019 58.875C772.179 58.645 772.259 58.37 772.259 58.05C772.259 57.66 772.124 57.345 771.854 57.105C771.584 56.855 771.319 56.69 771.059 56.61C770.799 56.53 770.389 56.435 769.829 56.325C769.739 56.305 769.669 56.29 769.619 56.28C769.209 56.2 768.874 56.12 768.614 56.04C768.364 55.96 768.094 55.84 767.804 55.68C767.524 55.52 767.314 55.31 767.174 55.05C767.034 54.79 766.964 54.47 766.964 54.09C766.964 53.61 767.109 53.215 767.399 52.905C767.699 52.595 768.044 52.385 768.434 52.275C768.834 52.165 769.274 52.11 769.754 52.11C770.624 52.11 771.314 52.31 771.824 52.71C772.344 53.11 772.604 53.73 772.604 54.57H772.034C772.024 53.9 771.814 53.405 771.404 53.085C770.994 52.765 770.444 52.605 769.754 52.605C769.154 52.605 768.634 52.73 768.194 52.98C767.754 53.22 767.534 53.59 767.534 54.09C767.534 54.36 767.594 54.595 767.714 54.795C767.844 54.985 768.024 55.14 768.254 55.26C768.494 55.37 768.739 55.46 768.989 55.53C769.239 55.6 769.529 55.67 769.859 55.74C769.969 55.76 770.049 55.775 770.099 55.785C770.549 55.865 770.909 55.95 771.179 56.04C771.459 56.12 771.739 56.245 772.019 56.415C772.299 56.575 772.504 56.79 772.634 57.06C772.764 57.33 772.829 57.66 772.829 58.05C772.829 58.45 772.734 58.795 772.544 59.085C772.364 59.375 772.119 59.595 771.809 59.745C771.509 59.895 771.194 60.005 770.864 60.075C770.534 60.145 770.184 60.18 769.814 60.18C768.904 60.18 768.159 59.94 767.579 59.46C767.009 58.98 766.714 58.305 766.694 57.435ZM694.605 69.86V74.66H698.37C699.26 74.66 699.915 74.425 700.335 73.955C700.755 73.475 700.965 72.915 700.965 72.275C700.965 72.035 700.93 71.795 700.86 71.555C700.8 71.315 700.685 71.06 700.515 70.79C700.355 70.51 700.095 70.285 699.735 70.115C699.385 69.945 698.96 69.86 698.46 69.86H694.605ZM693.945 80V69.29H698.505C698.785 69.29 699.05 69.31 699.3 69.35C699.56 69.39 699.835 69.475 700.125 69.605C700.415 69.735 700.665 69.91 700.875 70.13C701.095 70.34 701.275 70.63 701.415 71C701.555 71.37 701.625 71.8 701.625 72.29C701.625 73.23 701.33 73.955 700.74 74.465C700.16 74.975 699.335 75.23 698.265 75.23H694.605V80H693.945ZM703.272 72.29V74H703.317C703.467 73.49 703.822 73.065 704.382 72.725C704.952 72.375 705.582 72.215 706.272 72.245V72.815C705.462 72.715 704.752 72.965 704.142 73.565C703.842 73.875 703.627 74.185 703.497 74.495C703.377 74.795 703.302 75.225 703.272 75.785V80H702.702V72.29H703.272ZM707.582 80H707.012V72.29H707.582V80ZM707.582 70.835H707.012V69.29H707.582V70.835ZM715.772 74.675H715.202C715.152 74.015 714.882 73.505 714.392 73.145C713.912 72.785 713.312 72.605 712.592 72.605C711.672 72.605 710.947 72.95 710.417 73.64C709.887 74.32 709.622 75.13 709.622 76.07C709.622 77.16 709.877 78.035 710.387 78.695C710.897 79.355 711.632 79.685 712.592 79.685C713.302 79.685 713.902 79.465 714.392 79.025C714.882 78.575 715.177 77.995 715.277 77.285H715.847C715.727 78.185 715.367 78.895 714.767 79.415C714.167 79.925 713.442 80.18 712.592 80.18C711.412 80.18 710.527 79.79 709.937 79.01C709.347 78.22 709.052 77.24 709.052 76.07C709.052 74.95 709.367 74.01 709.997 73.25C710.627 72.49 711.492 72.11 712.592 72.11C713.472 72.11 714.202 72.33 714.782 72.77C715.362 73.2 715.692 73.835 715.772 74.675ZM717.88 80H717.31V72.29H717.88V80ZM717.88 70.835H717.31V69.29H717.88V70.835ZM719.694 80V72.29H720.264V73.94H720.294C720.484 73.38 720.834 72.935 721.344 72.605C721.864 72.275 722.434 72.11 723.054 72.11C723.484 72.11 723.864 72.165 724.194 72.275C724.524 72.375 724.784 72.525 724.974 72.725C725.164 72.915 725.319 73.11 725.439 73.31C725.559 73.5 725.644 73.735 725.694 74.015C725.744 74.295 725.774 74.515 725.784 74.675C725.794 74.825 725.799 75.01 725.799 75.23V80H725.229V75.125C725.229 73.445 724.499 72.605 723.039 72.605C722.189 72.605 721.514 72.905 721.014 73.505C720.514 74.095 720.264 74.87 720.264 75.83V80H719.694ZM730.458 72.605C729.578 72.605 728.898 72.935 728.418 73.595C727.938 74.245 727.698 75.015 727.698 75.905C727.698 76.855 727.938 77.645 728.418 78.275C728.908 78.905 729.588 79.22 730.458 79.22C731.348 79.22 732.038 78.9 732.528 78.26C733.018 77.62 733.263 76.835 733.263 75.905C733.263 74.975 733.018 74.195 732.528 73.565C732.048 72.925 731.358 72.605 730.458 72.605ZM733.278 72.29H733.848V79.595C733.848 79.735 733.843 79.865 733.833 79.985C733.833 80.095 733.808 80.275 733.758 80.525C733.718 80.785 733.658 81.01 733.578 81.2C733.508 81.4 733.388 81.615 733.218 81.845C733.058 82.085 732.863 82.28 732.633 82.43C732.413 82.59 732.118 82.715 731.748 82.805C731.388 82.905 730.978 82.95 730.518 82.94C728.588 82.94 727.583 82.14 727.503 80.54H728.073C728.133 81.19 728.388 81.67 728.838 81.98C729.288 82.29 729.853 82.445 730.533 82.445C731.043 82.445 731.483 82.36 731.853 82.19C732.223 82.03 732.493 81.845 732.663 81.635C732.843 81.435 732.983 81.185 733.083 80.885C733.183 80.595 733.238 80.37 733.248 80.21C733.268 80.06 733.278 79.9 733.278 79.73V77.96H733.248C732.698 79.13 731.768 79.715 730.458 79.715C729.368 79.715 728.538 79.365 727.968 78.665C727.408 77.955 727.128 77.035 727.128 75.905C727.128 74.835 727.423 73.935 728.013 73.205C728.603 72.475 729.418 72.11 730.458 72.11C731.078 72.11 731.648 72.27 732.168 72.59C732.688 72.9 733.048 73.335 733.248 73.895H733.278V72.29ZM694.605 94.72V99.43H698.235C699.195 99.43 699.945 99.22 700.485 98.8C701.035 98.38 701.31 97.78 701.31 97C701.31 96.43 701.145 95.965 700.815 95.605C700.485 95.245 700.105 95.01 699.675 94.9C699.245 94.78 698.765 94.72 698.235 94.72H694.605ZM693.945 100V89.29H698.235C699.415 89.29 700.27 89.555 700.8 90.085C701.34 90.615 701.61 91.275 701.61 92.065C701.61 92.645 701.415 93.155 701.025 93.595C700.645 94.025 700.145 94.275 699.525 94.345L699.555 94.375C699.625 94.365 699.745 94.38 699.915 94.42C700.085 94.46 700.29 94.54 700.53 94.66C700.77 94.78 700.995 94.935 701.205 95.125C701.415 95.315 701.595 95.575 701.745 95.905C701.895 96.225 701.97 96.59 701.97 97C701.97 97.96 701.63 98.7 700.95 99.22C700.28 99.74 699.375 100 698.235 100H693.945ZM694.605 89.86V94.15H698.235C699.105 94.15 699.775 93.95 700.245 93.55C700.715 93.15 700.95 92.615 700.95 91.945C700.95 91.225 700.695 90.7 700.185 90.37C699.675 90.03 699.025 89.86 698.235 89.86H694.605ZM703.423 89.29H703.993V100H703.423V89.29ZM706.393 99.025C705.763 98.245 705.448 97.285 705.448 96.145C705.448 95.005 705.763 94.05 706.393 93.28C707.033 92.5 707.898 92.11 708.988 92.11C710.078 92.11 710.938 92.5 711.568 93.28C712.208 94.05 712.528 95.005 712.528 96.145C712.528 97.285 712.208 98.245 711.568 99.025C710.938 99.795 710.078 100.18 708.988 100.18C707.898 100.18 707.033 99.795 706.393 99.025ZM706.813 93.64C706.283 94.33 706.018 95.165 706.018 96.145C706.018 97.125 706.283 97.96 706.813 98.65C707.343 99.34 708.068 99.685 708.988 99.685C709.908 99.685 710.633 99.34 711.163 98.65C711.693 97.96 711.958 97.125 711.958 96.145C711.958 95.165 711.693 94.33 711.163 93.64C710.633 92.95 709.908 92.605 708.988 92.605C708.068 92.605 707.343 92.95 706.813 93.64ZM716.849 92.605C715.969 92.605 715.289 92.935 714.809 93.595C714.329 94.245 714.089 95.015 714.089 95.905C714.089 96.855 714.329 97.645 714.809 98.275C715.299 98.905 715.979 99.22 716.849 99.22C717.739 99.22 718.429 98.9 718.919 98.26C719.409 97.62 719.654 96.835 719.654 95.905C719.654 94.975 719.409 94.195 718.919 93.565C718.439 92.925 717.749 92.605 716.849 92.605ZM719.669 92.29H720.239V99.595C720.239 99.735 720.234 99.865 720.224 99.985C720.224 100.095 720.199 100.275 720.149 100.525C720.109 100.785 720.049 101.01 719.969 101.2C719.899 101.4 719.779 101.615 719.609 101.845C719.449 102.085 719.254 102.28 719.024 102.43C718.804 102.59 718.509 102.715 718.139 102.805C717.779 102.905 717.369 102.95 716.909 102.94C714.979 102.94 713.974 102.14 713.894 100.54H714.464C714.524 101.19 714.779 101.67 715.229 101.98C715.679 102.29 716.244 102.445 716.924 102.445C717.434 102.445 717.874 102.36 718.244 102.19C718.614 102.03 718.884 101.845 719.054 101.635C719.234 101.435 719.374 101.185 719.474 100.885C719.574 100.595 719.629 100.37 719.639 100.21C719.659 100.06 719.669 99.9 719.669 99.73V97.96H719.639C719.089 99.13 718.159 99.715 716.849 99.715C715.759 99.715 714.929 99.365 714.359 98.665C713.799 97.955 713.519 97.035 713.519 95.905C713.519 94.835 713.814 93.935 714.404 93.205C714.994 92.475 715.809 92.11 716.849 92.11C717.469 92.11 718.039 92.27 718.559 92.59C719.079 92.9 719.439 93.335 719.639 93.895H719.669V92.29ZM702.945 112.485H702.285C702.145 111.605 701.73 110.905 701.04 110.385C700.36 109.865 699.56 109.605 698.64 109.605C697.28 109.605 696.2 110.09 695.4 111.06C694.6 112.02 694.2 113.215 694.2 114.645C694.2 116.075 694.6 117.275 695.4 118.245C696.2 119.205 697.28 119.685 698.64 119.685C699.66 119.685 700.535 119.3 701.265 118.53C702.005 117.76 702.405 116.86 702.465 115.83H703.125C703.005 117.11 702.52 118.17 701.67 119.01C700.83 119.84 699.82 120.255 698.64 120.255C697.08 120.255 695.84 119.725 694.92 118.665C694 117.605 693.54 116.265 693.54 114.645C693.54 113.025 694 111.685 694.92 110.625C695.84 109.565 697.08 109.035 698.64 109.035C699.35 109.035 699.98 109.155 700.53 109.395C701.09 109.625 701.51 109.895 701.79 110.205C702.08 110.505 702.32 110.845 702.51 111.225C702.7 111.595 702.815 111.875 702.855 112.065C702.905 112.245 702.935 112.385 702.945 112.485ZM709.517 117.06V115.62C709.407 115.74 709.242 115.84 709.022 115.92C708.802 115.99 708.587 116.035 708.377 116.055C708.177 116.075 707.897 116.1 707.537 116.13C707.187 116.16 706.917 116.19 706.727 116.22C706.017 116.3 705.487 116.48 705.137 116.76C704.787 117.03 704.612 117.445 704.612 118.005C704.612 118.495 704.787 118.9 705.137 119.22C705.487 119.53 705.987 119.685 706.637 119.685C707.127 119.685 707.557 119.605 707.927 119.445C708.297 119.285 708.577 119.1 708.767 118.89C708.967 118.67 709.127 118.425 709.247 118.155C709.367 117.885 709.442 117.665 709.472 117.495C709.502 117.325 709.517 117.18 709.517 117.06ZM710.087 114.12V118.575C710.087 118.775 710.092 118.93 710.102 119.04C710.112 119.14 710.157 119.245 710.237 119.355C710.317 119.455 710.437 119.505 710.597 119.505C710.697 119.505 710.837 119.49 711.017 119.46V119.94C710.797 119.98 710.642 120 710.552 120C710.142 120 709.867 119.905 709.727 119.715C709.587 119.525 709.517 119.245 709.517 118.875V118.47H709.487C709.297 118.96 708.947 119.37 708.437 119.7C707.927 120.02 707.322 120.18 706.622 120.18C704.902 120.18 704.042 119.455 704.042 118.005C704.042 117.655 704.102 117.35 704.222 117.09C704.342 116.82 704.492 116.61 704.672 116.46C704.852 116.3 705.072 116.165 705.332 116.055C705.602 115.945 705.852 115.87 706.082 115.83C706.322 115.78 706.587 115.745 706.877 115.725C707.327 115.695 707.687 115.665 707.957 115.635C708.227 115.605 708.472 115.56 708.692 115.5C708.912 115.44 709.067 115.385 709.157 115.335C709.257 115.275 709.337 115.18 709.397 115.05C709.467 114.92 709.507 114.795 709.517 114.675C709.527 114.545 709.532 114.36 709.532 114.12C709.532 114.01 709.497 113.88 709.427 113.73C709.367 113.58 709.267 113.415 709.127 113.235C708.987 113.055 708.762 112.905 708.452 112.785C708.152 112.665 707.797 112.605 707.387 112.605C706.687 112.605 706.127 112.785 705.707 113.145C705.287 113.495 705.057 114 705.017 114.66H704.447C704.487 113.82 704.757 113.185 705.257 112.755C705.757 112.325 706.467 112.11 707.387 112.11C709.187 112.11 710.087 112.78 710.087 114.12ZM712.472 112.29V114H712.517C712.667 113.49 713.022 113.065 713.582 112.725C714.152 112.375 714.782 112.215 715.472 112.245V112.815C714.662 112.715 713.952 112.965 713.342 113.565C713.042 113.875 712.827 114.185 712.697 114.495C712.577 114.795 712.502 115.225 712.472 115.785V120H711.902V112.29H712.472ZM716.646 112.29V114H716.691C716.841 113.49 717.196 113.065 717.756 112.725C718.326 112.375 718.956 112.215 719.646 112.245V112.815C718.836 112.715 718.126 112.965 717.516 113.565C717.216 113.875 717.001 114.185 716.871 114.495C716.751 114.795 716.676 115.225 716.646 115.785V120H716.076V112.29H716.646ZM720.956 120H720.386V112.29H720.956V120ZM720.956 110.835H720.386V109.29H720.956V110.835ZM729.221 116.22H722.996C722.976 117.19 723.216 118.01 723.716 118.68C724.216 119.35 724.921 119.685 725.831 119.685C726.561 119.685 727.166 119.48 727.646 119.07C728.136 118.66 728.451 118.1 728.591 117.39H729.161C729.011 118.29 728.646 118.98 728.066 119.46C727.496 119.94 726.751 120.18 725.831 120.18C724.751 120.18 723.906 119.81 723.296 119.07C722.696 118.33 722.406 117.4 722.426 116.28C722.406 115.14 722.691 114.16 723.281 113.34C723.881 112.52 724.731 112.11 725.831 112.11C726.981 112.11 727.846 112.505 728.426 113.295C729.016 114.075 729.281 115.05 729.221 116.22ZM722.996 115.725H728.651C728.631 114.865 728.366 114.13 727.856 113.52C727.356 112.91 726.681 112.605 725.831 112.605C725.021 112.605 724.361 112.92 723.851 113.55C723.351 114.17 723.066 114.895 722.996 115.725ZM731.119 112.29V114H731.164C731.314 113.49 731.669 113.065 732.229 112.725C732.799 112.375 733.429 112.215 734.119 112.245V112.815C733.309 112.715 732.599 112.965 731.989 113.565C731.689 113.875 731.474 114.185 731.344 114.495C731.224 114.795 731.149 115.225 731.119 115.785V120H730.549V112.29H731.119ZM702.945 132.485H702.285C702.145 131.605 701.73 130.905 701.04 130.385C700.36 129.865 699.56 129.605 698.64 129.605C697.28 129.605 696.2 130.09 695.4 131.06C694.6 132.02 694.2 133.215 694.2 134.645C694.2 136.075 694.6 137.275 695.4 138.245C696.2 139.205 697.28 139.685 698.64 139.685C699.66 139.685 700.535 139.3 701.265 138.53C702.005 137.76 702.405 136.86 702.465 135.83H703.125C703.005 137.11 702.52 138.17 701.67 139.01C700.83 139.84 699.82 140.255 698.64 140.255C697.08 140.255 695.84 139.725 694.92 138.665C694 137.605 693.54 136.265 693.54 134.645C693.54 133.025 694 131.685 694.92 130.625C695.84 129.565 697.08 129.035 698.64 129.035C699.35 129.035 699.98 129.155 700.53 129.395C701.09 129.625 701.51 129.895 701.79 130.205C702.08 130.505 702.32 130.845 702.51 131.225C702.7 131.595 702.815 131.875 702.855 132.065C702.905 132.245 702.935 132.385 702.945 132.485ZM704.987 139.025C704.357 138.245 704.042 137.285 704.042 136.145C704.042 135.005 704.357 134.05 704.987 133.28C705.627 132.5 706.492 132.11 707.582 132.11C708.672 132.11 709.532 132.5 710.162 133.28C710.802 134.05 711.122 135.005 711.122 136.145C711.122 137.285 710.802 138.245 710.162 139.025C709.532 139.795 708.672 140.18 707.582 140.18C706.492 140.18 705.627 139.795 704.987 139.025ZM705.407 133.64C704.877 134.33 704.612 135.165 704.612 136.145C704.612 137.125 704.877 137.96 705.407 138.65C705.937 139.34 706.662 139.685 707.582 139.685C708.502 139.685 709.227 139.34 709.757 138.65C710.287 137.96 710.552 137.125 710.552 136.145C710.552 135.165 710.287 134.33 709.757 133.64C709.227 132.95 708.502 132.605 707.582 132.605C706.662 132.605 705.937 132.95 705.407 133.64ZM712.458 140V132.29H713.028V133.94H713.058C713.248 133.38 713.598 132.935 714.108 132.605C714.628 132.275 715.198 132.11 715.818 132.11C716.248 132.11 716.628 132.165 716.958 132.275C717.288 132.375 717.548 132.525 717.738 132.725C717.928 132.915 718.083 133.11 718.203 133.31C718.323 133.5 718.408 133.735 718.458 134.015C718.508 134.295 718.538 134.515 718.548 134.675C718.558 134.825 718.563 135.01 718.563 135.23V140H717.993V135.125C717.993 133.445 717.263 132.605 715.803 132.605C714.953 132.605 714.278 132.905 713.778 133.505C713.278 134.095 713.028 134.87 713.028 135.83V140H712.458ZM723.071 132.29V132.785H721.391V138.17C721.391 138.75 721.516 139.125 721.766 139.295C722.026 139.455 722.456 139.525 723.056 139.505V140C722.726 140.02 722.441 140.015 722.201 139.985C721.961 139.955 721.721 139.885 721.481 139.775C721.251 139.655 721.081 139.465 720.971 139.205C720.861 138.935 720.811 138.59 720.821 138.17V132.785H719.396V132.29H720.821V129.89H721.391V132.29H723.071ZM729.233 137.06V135.62C729.123 135.74 728.958 135.84 728.738 135.92C728.518 135.99 728.303 136.035 728.093 136.055C727.893 136.075 727.613 136.1 727.253 136.13C726.903 136.16 726.633 136.19 726.443 136.22C725.733 136.3 725.203 136.48 724.853 136.76C724.503 137.03 724.328 137.445 724.328 138.005C724.328 138.495 724.503 138.9 724.853 139.22C725.203 139.53 725.703 139.685 726.353 139.685C726.843 139.685 727.273 139.605 727.643 139.445C728.013 139.285 728.293 139.1 728.483 138.89C728.683 138.67 728.843 138.425 728.963 138.155C729.083 137.885 729.158 137.665 729.188 137.495C729.218 137.325 729.233 137.18 729.233 137.06ZM729.803 134.12V138.575C729.803 138.775 729.808 138.93 729.818 139.04C729.828 139.14 729.873 139.245 729.953 139.355C730.033 139.455 730.153 139.505 730.313 139.505C730.413 139.505 730.553 139.49 730.733 139.46V139.94C730.513 139.98 730.358 140 730.268 140C729.858 140 729.583 139.905 729.443 139.715C729.303 139.525 729.233 139.245 729.233 138.875V138.47H729.203C729.013 138.96 728.663 139.37 728.153 139.7C727.643 140.02 727.038 140.18 726.338 140.18C724.618 140.18 723.758 139.455 723.758 138.005C723.758 137.655 723.818 137.35 723.938 137.09C724.058 136.82 724.208 136.61 724.388 136.46C724.568 136.3 724.788 136.165 725.048 136.055C725.318 135.945 725.568 135.87 725.798 135.83C726.038 135.78 726.303 135.745 726.593 135.725C727.043 135.695 727.403 135.665 727.673 135.635C727.943 135.605 728.188 135.56 728.408 135.5C728.628 135.44 728.783 135.385 728.873 135.335C728.973 135.275 729.053 135.18 729.113 135.05C729.183 134.92 729.223 134.795 729.233 134.675C729.243 134.545 729.248 134.36 729.248 134.12C729.248 134.01 729.213 133.88 729.143 133.73C729.083 133.58 728.983 133.415 728.843 133.235C728.703 133.055 728.478 132.905 728.168 132.785C727.868 132.665 727.513 132.605 727.103 132.605C726.403 132.605 725.843 132.785 725.423 133.145C725.003 133.495 724.773 134 724.733 134.66H724.163C724.203 133.82 724.473 133.185 724.973 132.755C725.473 132.325 726.183 132.11 727.103 132.11C728.903 132.11 729.803 132.78 729.803 134.12ZM737.993 134.675H737.423C737.373 134.015 737.103 133.505 736.613 133.145C736.133 132.785 735.533 132.605 734.813 132.605C733.893 132.605 733.168 132.95 732.638 133.64C732.108 134.32 731.843 135.13 731.843 136.07C731.843 137.16 732.098 138.035 732.608 138.695C733.118 139.355 733.853 139.685 734.813 139.685C735.523 139.685 736.123 139.465 736.613 139.025C737.103 138.575 737.398 137.995 737.498 137.285H738.068C737.948 138.185 737.588 138.895 736.988 139.415C736.388 139.925 735.663 140.18 734.813 140.18C733.633 140.18 732.748 139.79 732.158 139.01C731.568 138.22 731.273 137.24 731.273 136.07C731.273 134.95 731.588 134.01 732.218 133.25C732.848 132.49 733.713 132.11 734.813 132.11C735.693 132.11 736.423 132.33 737.003 132.77C737.583 133.2 737.913 133.835 737.993 134.675ZM742.232 132.29V132.785H740.552V138.17C740.552 138.75 740.677 139.125 740.927 139.295C741.187 139.455 741.617 139.525 742.217 139.505V140C741.887 140.02 741.602 140.015 741.362 139.985C741.122 139.955 740.882 139.885 740.642 139.775C740.412 139.655 740.242 139.465 740.132 139.205C740.022 138.935 739.972 138.59 739.982 138.17V132.785H738.557V132.29H739.982V129.89H740.552V132.29H742.232Z" fill="#383C42"/>
<path d="M696.735 20.86L698.13 16.93H698.16L699.51 20.86H696.735ZM696.96 14.29L692.91 25H695.28L696.12 22.615H700.125L700.935 25H703.38L699.375 14.29H696.96ZM709.764 21.13C709.764 21.45 709.729 21.76 709.659 22.06C709.589 22.36 709.479 22.625 709.329 22.855C709.179 23.085 708.989 23.27 708.759 23.41C708.539 23.54 708.269 23.605 707.949 23.605C707.639 23.605 707.369 23.54 707.139 23.41C706.909 23.27 706.719 23.085 706.569 22.855C706.419 22.625 706.309 22.36 706.239 22.06C706.169 21.76 706.134 21.45 706.134 21.13C706.134 20.8 706.169 20.485 706.239 20.185C706.309 19.885 706.419 19.62 706.569 19.39C706.719 19.16 706.909 18.98 707.139 18.85C707.369 18.71 707.639 18.64 707.949 18.64C708.269 18.64 708.539 18.71 708.759 18.85C708.989 18.98 709.179 19.16 709.329 19.39C709.479 19.62 709.589 19.885 709.659 20.185C709.729 20.485 709.764 20.8 709.764 21.13ZM704.079 14.29V25H706.104V24.01H706.134C706.364 24.44 706.704 24.745 707.154 24.925C707.604 25.105 708.114 25.195 708.684 25.195C709.074 25.195 709.459 25.115 709.839 24.955C710.219 24.795 710.559 24.55 710.859 24.22C711.169 23.89 711.419 23.47 711.609 22.96C711.799 22.44 711.894 21.825 711.894 21.115C711.894 20.405 711.799 19.795 711.609 19.285C711.419 18.765 711.169 18.34 710.859 18.01C710.559 17.68 710.219 17.435 709.839 17.275C709.459 17.115 709.074 17.035 708.684 17.035C708.204 17.035 707.739 17.13 707.289 17.32C706.849 17.5 706.499 17.79 706.239 18.19H706.209V14.29H704.079ZM715.138 21.13C715.138 20.82 715.168 20.515 715.228 20.215C715.288 19.915 715.388 19.65 715.528 19.42C715.678 19.19 715.873 19.005 716.113 18.865C716.353 18.715 716.653 18.64 717.013 18.64C717.373 18.64 717.673 18.715 717.913 18.865C718.163 19.005 718.358 19.19 718.498 19.42C718.648 19.65 718.753 19.915 718.813 20.215C718.873 20.515 718.903 20.82 718.903 21.13C718.903 21.44 718.873 21.745 718.813 22.045C718.753 22.335 718.648 22.6 718.498 22.84C718.358 23.07 718.163 23.255 717.913 23.395C717.673 23.535 717.373 23.605 717.013 23.605C716.653 23.605 716.353 23.535 716.113 23.395C715.873 23.255 715.678 23.07 715.528 22.84C715.388 22.6 715.288 22.335 715.228 22.045C715.168 21.745 715.138 21.44 715.138 21.13ZM713.008 21.13C713.008 21.75 713.103 22.31 713.293 22.81C713.483 23.31 713.753 23.74 714.103 24.1C714.453 24.45 714.873 24.72 715.363 24.91C715.853 25.1 716.403 25.195 717.013 25.195C717.623 25.195 718.173 25.1 718.663 24.91C719.163 24.72 719.588 24.45 719.938 24.1C720.288 23.74 720.558 23.31 720.748 22.81C720.938 22.31 721.033 21.75 721.033 21.13C721.033 20.51 720.938 19.95 720.748 19.45C720.558 18.94 720.288 18.51 719.938 18.16C719.588 17.8 719.163 17.525 718.663 17.335C718.173 17.135 717.623 17.035 717.013 17.035C716.403 17.035 715.853 17.135 715.363 17.335C714.873 17.525 714.453 17.8 714.103 18.16C713.753 18.51 713.483 18.94 713.293 19.45C713.103 19.95 713.008 20.51 713.008 21.13ZM729.693 25V17.245H727.563V21.31C727.563 22.1 727.433 22.67 727.173 23.02C726.913 23.36 726.493 23.53 725.913 23.53C725.403 23.53 725.048 23.375 724.848 23.065C724.648 22.745 724.548 22.265 724.548 21.625V17.245H722.418V22.015C722.418 22.495 722.458 22.935 722.538 23.335C722.628 23.725 722.778 24.06 722.988 24.34C723.198 24.61 723.483 24.82 723.843 24.97C724.213 25.12 724.683 25.195 725.253 25.195C725.703 25.195 726.143 25.095 726.573 24.895C727.003 24.695 727.353 24.37 727.623 23.92H727.668V25H729.693ZM734.01 17.245V14.92H731.88V17.245H730.59V18.67H731.88V23.245C731.88 23.635 731.945 23.95 732.075 24.19C732.205 24.43 732.38 24.615 732.6 24.745C732.83 24.875 733.09 24.96 733.38 25C733.68 25.05 733.995 25.075 734.325 25.075C734.535 25.075 734.75 25.07 734.97 25.06C735.19 25.05 735.39 25.03 735.57 25V23.35C735.47 23.37 735.365 23.385 735.255 23.395C735.145 23.405 735.03 23.41 734.91 23.41C734.55 23.41 734.31 23.35 734.19 23.23C734.07 23.11 734.01 22.87 734.01 22.51V18.67H735.57V17.245H734.01ZM748.033 25V17.245H745.903V21.31C745.903 22.1 745.773 22.67 745.513 23.02C745.253 23.36 744.833 23.53 744.253 23.53C743.743 23.53 743.388 23.375 743.188 23.065C742.988 22.745 742.888 22.265 742.888 21.625V17.245H740.758V22.015C740.758 22.495 740.798 22.935 740.878 23.335C740.968 23.725 741.118 24.06 741.328 24.34C741.538 24.61 741.823 24.82 742.183 24.97C742.553 25.12 743.023 25.195 743.593 25.195C744.043 25.195 744.483 25.095 744.913 24.895C745.343 24.695 745.693 24.37 745.963 23.92H746.008V25H748.033ZM751.3 22.48H749.275C749.295 23 749.41 23.435 749.62 23.785C749.84 24.125 750.115 24.4 750.445 24.61C750.785 24.82 751.17 24.97 751.6 25.06C752.03 25.15 752.47 25.195 752.92 25.195C753.36 25.195 753.79 25.15 754.21 25.06C754.64 24.98 755.02 24.835 755.35 24.625C755.68 24.415 755.945 24.14 756.145 23.8C756.355 23.45 756.46 23.02 756.46 22.51C756.46 22.15 756.39 21.85 756.25 21.61C756.11 21.36 755.925 21.155 755.695 20.995C755.465 20.825 755.2 20.69 754.9 20.59C754.61 20.49 754.31 20.405 754 20.335C753.7 20.265 753.405 20.2 753.115 20.14C752.825 20.08 752.565 20.015 752.335 19.945C752.115 19.865 751.935 19.765 751.795 19.645C751.655 19.525 751.585 19.37 751.585 19.18C751.585 19.02 751.625 18.895 751.705 18.805C751.785 18.705 751.88 18.63 751.99 18.58C752.11 18.53 752.24 18.5 752.38 18.49C752.52 18.47 752.65 18.46 752.77 18.46C753.15 18.46 753.48 18.535 753.76 18.685C754.04 18.825 754.195 19.1 754.225 19.51H756.25C756.21 19.03 756.085 18.635 755.875 18.325C755.675 18.005 755.42 17.75 755.11 17.56C754.8 17.37 754.445 17.235 754.045 17.155C753.655 17.075 753.25 17.035 752.83 17.035C752.41 17.035 752 17.075 751.6 17.155C751.2 17.225 750.84 17.355 750.52 17.545C750.2 17.725 749.94 17.975 749.74 18.295C749.55 18.615 749.455 19.025 749.455 19.525C749.455 19.865 749.525 20.155 749.665 20.395C749.805 20.625 749.99 20.82 750.22 20.98C750.45 21.13 750.71 21.255 751 21.355C751.3 21.445 751.605 21.525 751.915 21.595C752.675 21.755 753.265 21.915 753.685 22.075C754.115 22.235 754.33 22.475 754.33 22.795C754.33 22.985 754.285 23.145 754.195 23.275C754.105 23.395 753.99 23.495 753.85 23.575C753.72 23.645 753.57 23.7 753.4 23.74C753.24 23.77 753.085 23.785 752.935 23.785C752.725 23.785 752.52 23.76 752.32 23.71C752.13 23.66 751.96 23.585 751.81 23.485C751.66 23.375 751.535 23.24 751.435 23.08C751.345 22.91 751.3 22.71 751.3 22.48Z" fill="#2B2B2B"/>
<path opacity="0.8" d="M984.73 54.75H989.245V60H988.675V57.72H988.645C988.385 58.49 987.88 59.105 987.13 59.565C986.39 60.025 985.545 60.255 984.595 60.255C983.025 60.255 981.79 59.73 980.89 58.68C980 57.63 979.555 56.305 979.555 54.705C979.555 53.115 980.01 51.775 980.92 50.685C981.83 49.585 983.06 49.035 984.61 49.035C985.74 49.035 986.72 49.36 987.55 50.01C988.38 50.65 988.885 51.515 989.065 52.605H988.435C988.185 51.665 987.725 50.93 987.055 50.4C986.395 49.87 985.585 49.605 984.625 49.605C983.245 49.605 982.165 50.1 981.385 51.09C980.605 52.08 980.215 53.285 980.215 54.705C980.215 56.145 980.595 57.335 981.355 58.275C982.125 59.215 983.215 59.685 984.625 59.685C985.895 59.685 986.9 59.285 987.64 58.485C988.38 57.685 988.725 56.63 988.675 55.32H984.73V54.75ZM991.723 49.86V59.43H994.603C995.023 59.43 995.423 59.385 995.803 59.295C996.193 59.195 996.578 59.03 996.958 58.8C997.338 58.57 997.663 58.28 997.933 57.93C998.213 57.57 998.438 57.11 998.608 56.55C998.778 55.98 998.863 55.34 998.863 54.63C998.863 53.8 998.758 53.08 998.548 52.47C998.338 51.85 998.083 51.38 997.783 51.06C997.483 50.73 997.118 50.47 996.688 50.28C996.258 50.09 995.878 49.975 995.548 49.935C995.218 49.885 994.858 49.86 994.468 49.86H991.723ZM991.063 60V49.29H994.573C995.493 49.29 996.283 49.44 996.943 49.74C997.613 50.03 998.128 50.435 998.488 50.955C998.848 51.475 999.108 52.04 999.268 52.65C999.438 53.25 999.523 53.91 999.523 54.63C999.523 56.23 999.103 57.525 998.263 58.515C997.423 59.505 996.183 60 994.543 60H991.063ZM1001.73 49.86V54.66H1005.49C1006.38 54.66 1007.04 54.425 1007.46 53.955C1007.88 53.475 1008.09 52.915 1008.09 52.275C1008.09 52.035 1008.05 51.795 1007.98 51.555C1007.92 51.315 1007.81 51.06 1007.64 50.79C1007.48 50.51 1007.22 50.285 1006.86 50.115C1006.51 49.945 1006.08 49.86 1005.58 49.86H1001.73ZM1001.07 60V49.29H1005.63C1005.91 49.29 1006.17 49.31 1006.42 49.35C1006.68 49.39 1006.96 49.475 1007.25 49.605C1007.54 49.735 1007.79 49.91 1008 50.13C1008.22 50.34 1008.4 50.63 1008.54 51C1008.68 51.37 1008.75 51.8 1008.75 52.29C1008.75 53.23 1008.45 53.955 1007.86 54.465C1007.28 54.975 1006.46 55.23 1005.39 55.23H1001.73V60H1001.07ZM1010.59 54.555H1014.4C1015.23 54.555 1015.89 54.355 1016.38 53.955C1016.88 53.545 1017.13 52.925 1017.13 52.095C1017.13 51.335 1016.87 50.775 1016.35 50.415C1015.84 50.045 1015.19 49.86 1014.4 49.86H1010.59V54.555ZM1009.93 60V49.29H1014.4C1015.43 49.29 1016.25 49.51 1016.86 49.95C1017.48 50.38 1017.79 51.08 1017.79 52.05C1017.79 52.77 1017.59 53.38 1017.18 53.88C1016.77 54.37 1016.21 54.675 1015.5 54.795V54.825C1016.23 54.905 1016.74 55.145 1017.04 55.545C1017.34 55.945 1017.52 56.47 1017.58 57.12C1017.6 57.35 1017.61 57.7 1017.61 58.17C1017.62 58.64 1017.65 59.02 1017.69 59.31C1017.73 59.6 1017.81 59.83 1017.94 60H1017.21C1017.09 59.78 1017.01 59.49 1016.98 59.13C1016.95 58.76 1016.94 58.41 1016.95 58.08C1016.97 57.74 1016.96 57.38 1016.92 57C1016.84 56.41 1016.62 55.95 1016.25 55.62C1015.89 55.29 1015.27 55.125 1014.4 55.125H1010.59V60H1009.93ZM988.945 72.485H988.285C988.145 71.605 987.73 70.905 987.04 70.385C986.36 69.865 985.56 69.605 984.64 69.605C983.28 69.605 982.2 70.09 981.4 71.06C980.6 72.02 980.2 73.215 980.2 74.645C980.2 76.075 980.6 77.275 981.4 78.245C982.2 79.205 983.28 79.685 984.64 79.685C985.66 79.685 986.535 79.3 987.265 78.53C988.005 77.76 988.405 76.86 988.465 75.83H989.125C989.005 77.11 988.52 78.17 987.67 79.01C986.83 79.84 985.82 80.255 984.64 80.255C983.08 80.255 981.84 79.725 980.92 78.665C980 77.605 979.54 76.265 979.54 74.645C979.54 73.025 980 71.685 980.92 70.625C981.84 69.565 983.08 69.035 984.64 69.035C985.35 69.035 985.98 69.155 986.53 69.395C987.09 69.625 987.51 69.895 987.79 70.205C988.08 70.505 988.32 70.845 988.51 71.225C988.7 71.595 988.815 71.875 988.855 72.065C988.905 72.245 988.935 72.385 988.945 72.485ZM990.987 79.025C990.357 78.245 990.042 77.285 990.042 76.145C990.042 75.005 990.357 74.05 990.987 73.28C991.627 72.5 992.492 72.11 993.582 72.11C994.672 72.11 995.532 72.5 996.162 73.28C996.802 74.05 997.122 75.005 997.122 76.145C997.122 77.285 996.802 78.245 996.162 79.025C995.532 79.795 994.672 80.18 993.582 80.18C992.492 80.18 991.627 79.795 990.987 79.025ZM991.407 73.64C990.877 74.33 990.612 75.165 990.612 76.145C990.612 77.125 990.877 77.96 991.407 78.65C991.937 79.34 992.662 79.685 993.582 79.685C994.502 79.685 995.227 79.34 995.757 78.65C996.287 77.96 996.552 77.125 996.552 76.145C996.552 75.165 996.287 74.33 995.757 73.64C995.227 72.95 994.502 72.605 993.582 72.605C992.662 72.605 991.937 72.95 991.407 73.64ZM999.028 72.29V74H999.073C999.223 73.49 999.578 73.065 1000.14 72.725C1000.71 72.375 1001.34 72.215 1002.03 72.245V72.815C1001.22 72.715 1000.51 72.965 999.898 73.565C999.598 73.875 999.383 74.185 999.253 74.495C999.133 74.795 999.058 75.225 999.028 75.785V80H998.458V72.29H999.028ZM1006.17 79.685C1007.12 79.685 1007.84 79.355 1008.33 78.695C1008.82 78.025 1009.07 77.18 1009.07 76.16C1009.07 75.18 1008.82 74.345 1008.33 73.655C1007.85 72.955 1007.13 72.605 1006.17 72.605C1005.21 72.605 1004.5 72.945 1004.04 73.625C1003.58 74.305 1003.35 75.15 1003.35 76.16C1003.35 76.65 1003.4 77.095 1003.49 77.495C1003.59 77.895 1003.74 78.265 1003.94 78.605C1004.15 78.945 1004.44 79.21 1004.82 79.4C1005.2 79.59 1005.65 79.685 1006.17 79.685ZM1003.34 72.29V74.06H1003.37C1003.52 73.58 1003.83 73.135 1004.31 72.725C1004.79 72.315 1005.41 72.11 1006.17 72.11C1007.3 72.11 1008.16 72.495 1008.75 73.265C1009.34 74.035 1009.64 75 1009.64 76.16C1009.64 77.38 1009.34 78.355 1008.75 79.085C1008.17 79.815 1007.31 80.18 1006.17 80.18C1005.5 80.18 1004.92 80.035 1004.43 79.745C1003.94 79.445 1003.59 78.995 1003.37 78.395H1003.34V82.76H1002.77V72.29H1003.34ZM1011.55 79.025C1010.92 78.245 1010.61 77.285 1010.61 76.145C1010.61 75.005 1010.92 74.05 1011.55 73.28C1012.19 72.5 1013.06 72.11 1014.15 72.11C1015.24 72.11 1016.1 72.5 1016.73 73.28C1017.37 74.05 1017.69 75.005 1017.69 76.145C1017.69 77.285 1017.37 78.245 1016.73 79.025C1016.1 79.795 1015.24 80.18 1014.15 80.18C1013.06 80.18 1012.19 79.795 1011.55 79.025ZM1011.97 73.64C1011.44 74.33 1011.18 75.165 1011.18 76.145C1011.18 77.125 1011.44 77.96 1011.97 78.65C1012.5 79.34 1013.23 79.685 1014.15 79.685C1015.07 79.685 1015.79 79.34 1016.32 78.65C1016.85 77.96 1017.12 77.125 1017.12 76.145C1017.12 75.165 1016.85 74.33 1016.32 73.64C1015.79 72.95 1015.07 72.605 1014.15 72.605C1013.23 72.605 1012.5 72.95 1011.97 73.64ZM1019.59 72.29V74H1019.64C1019.79 73.49 1020.14 73.065 1020.7 72.725C1021.27 72.375 1021.9 72.215 1022.59 72.245V72.815C1021.78 72.715 1021.07 72.965 1020.46 73.565C1020.16 73.875 1019.95 74.185 1019.82 74.495C1019.7 74.795 1019.62 75.225 1019.59 75.785V80H1019.02V72.29H1019.59ZM1028.31 77.06V75.62C1028.2 75.74 1028.04 75.84 1027.82 75.92C1027.6 75.99 1027.38 76.035 1027.17 76.055C1026.97 76.075 1026.69 76.1 1026.33 76.13C1025.98 76.16 1025.71 76.19 1025.52 76.22C1024.81 76.3 1024.28 76.48 1023.93 76.76C1023.58 77.03 1023.41 77.445 1023.41 78.005C1023.41 78.495 1023.58 78.9 1023.93 79.22C1024.28 79.53 1024.78 79.685 1025.43 79.685C1025.92 79.685 1026.35 79.605 1026.72 79.445C1027.09 79.285 1027.37 79.1 1027.56 78.89C1027.76 78.67 1027.92 78.425 1028.04 78.155C1028.16 77.885 1028.24 77.665 1028.27 77.495C1028.3 77.325 1028.31 77.18 1028.31 77.06ZM1028.88 74.12V78.575C1028.88 78.775 1028.89 78.93 1028.9 79.04C1028.91 79.14 1028.95 79.245 1029.03 79.355C1029.11 79.455 1029.23 79.505 1029.39 79.505C1029.49 79.505 1029.63 79.49 1029.81 79.46V79.94C1029.59 79.98 1029.44 80 1029.35 80C1028.94 80 1028.66 79.905 1028.52 79.715C1028.38 79.525 1028.31 79.245 1028.31 78.875V78.47H1028.28C1028.09 78.96 1027.74 79.37 1027.23 79.7C1026.72 80.02 1026.12 80.18 1025.42 80.18C1023.7 80.18 1022.84 79.455 1022.84 78.005C1022.84 77.655 1022.9 77.35 1023.02 77.09C1023.14 76.82 1023.29 76.61 1023.47 76.46C1023.65 76.3 1023.87 76.165 1024.13 76.055C1024.4 75.945 1024.65 75.87 1024.88 75.83C1025.12 75.78 1025.38 75.745 1025.67 75.725C1026.12 75.695 1026.48 75.665 1026.75 75.635C1027.02 75.605 1027.27 75.56 1027.49 75.5C1027.71 75.44 1027.86 75.385 1027.95 75.335C1028.05 75.275 1028.13 75.18 1028.19 75.05C1028.26 74.92 1028.3 74.795 1028.31 74.675C1028.32 74.545 1028.33 74.36 1028.33 74.12C1028.33 74.01 1028.29 73.88 1028.22 73.73C1028.16 73.58 1028.06 73.415 1027.92 73.235C1027.78 73.055 1027.56 72.905 1027.25 72.785C1026.95 72.665 1026.59 72.605 1026.18 72.605C1025.48 72.605 1024.92 72.785 1024.5 73.145C1024.08 73.495 1023.85 74 1023.81 74.66H1023.24C1023.28 73.82 1023.55 73.185 1024.05 72.755C1024.55 72.325 1025.26 72.11 1026.18 72.11C1027.98 72.11 1028.88 72.78 1028.88 74.12ZM1033.53 72.29V72.785H1031.85V78.17C1031.85 78.75 1031.98 79.125 1032.23 79.295C1032.49 79.455 1032.92 79.525 1033.52 79.505V80C1033.19 80.02 1032.9 80.015 1032.66 79.985C1032.42 79.955 1032.18 79.885 1031.94 79.775C1031.71 79.655 1031.54 79.465 1031.43 79.205C1031.32 78.935 1031.27 78.59 1031.28 78.17V72.785H1029.86V72.29H1031.28V69.89H1031.85V72.29H1033.53ZM1041.03 76.22H1034.81C1034.79 77.19 1035.03 78.01 1035.53 78.68C1036.03 79.35 1036.73 79.685 1037.64 79.685C1038.37 79.685 1038.98 79.48 1039.46 79.07C1039.95 78.66 1040.26 78.1 1040.4 77.39H1040.97C1040.82 78.29 1040.46 78.98 1039.88 79.46C1039.31 79.94 1038.56 80.18 1037.64 80.18C1036.56 80.18 1035.72 79.81 1035.11 79.07C1034.51 78.33 1034.22 77.4 1034.24 76.28C1034.22 75.14 1034.5 74.16 1035.09 73.34C1035.69 72.52 1036.54 72.11 1037.64 72.11C1038.79 72.11 1039.66 72.505 1040.24 73.295C1040.83 74.075 1041.09 75.05 1041.03 76.22ZM1034.81 75.725H1040.46C1040.44 74.865 1040.18 74.13 1039.67 73.52C1039.17 72.91 1038.49 72.605 1037.64 72.605C1036.83 72.605 1036.17 72.92 1035.66 73.55C1035.16 74.17 1034.88 74.895 1034.81 75.725ZM1047.24 80H1046.67V72.29H1047.24V80ZM1047.24 70.835H1046.67V69.29H1047.24V70.835ZM1052.14 79.685C1053.06 79.685 1053.77 79.34 1054.26 78.65C1054.75 77.96 1054.99 77.13 1054.99 76.16C1054.99 75.18 1054.75 74.345 1054.26 73.655C1053.77 72.955 1053.06 72.605 1052.13 72.605C1051.17 72.605 1050.45 72.945 1049.97 73.625C1049.5 74.295 1049.26 75.14 1049.26 76.16C1049.26 77.14 1049.51 77.975 1050 78.665C1050.5 79.345 1051.21 79.685 1052.14 79.685ZM1055.01 80V78.35H1054.98C1054.35 79.57 1053.36 80.18 1052.02 80.18C1050.92 80.18 1050.09 79.8 1049.53 79.04C1048.97 78.27 1048.69 77.31 1048.69 76.16C1048.69 74.96 1048.98 73.985 1049.56 73.235C1050.15 72.485 1051.01 72.11 1052.13 72.11C1052.78 72.11 1053.36 72.28 1053.88 72.62C1054.41 72.96 1054.78 73.425 1054.98 74.015H1055.01V69.29H1055.58V80H1055.01ZM1063.84 76.22H1057.61C1057.59 77.19 1057.83 78.01 1058.33 78.68C1058.83 79.35 1059.54 79.685 1060.45 79.685C1061.18 79.685 1061.78 79.48 1062.26 79.07C1062.75 78.66 1063.07 78.1 1063.21 77.39H1063.78C1063.63 78.29 1063.26 78.98 1062.68 79.46C1062.11 79.94 1061.37 80.18 1060.45 80.18C1059.37 80.18 1058.52 79.81 1057.91 79.07C1057.31 78.33 1057.02 77.4 1057.04 76.28C1057.02 75.14 1057.31 74.16 1057.9 73.34C1058.5 72.52 1059.35 72.11 1060.45 72.11C1061.6 72.11 1062.46 72.505 1063.04 73.295C1063.63 74.075 1063.9 75.05 1063.84 76.22ZM1057.61 75.725H1063.27C1063.25 74.865 1062.98 74.13 1062.47 73.52C1061.97 72.91 1061.3 72.605 1060.45 72.605C1059.64 72.605 1058.98 72.92 1058.47 73.55C1057.97 74.17 1057.68 74.895 1057.61 75.725ZM1065.17 80V72.29H1065.74V73.94H1065.77C1065.96 73.38 1066.31 72.935 1066.82 72.605C1067.34 72.275 1067.91 72.11 1068.53 72.11C1068.96 72.11 1069.34 72.165 1069.67 72.275C1070 72.375 1070.26 72.525 1070.45 72.725C1070.64 72.915 1070.79 73.11 1070.91 73.31C1071.03 73.5 1071.12 73.735 1071.17 74.015C1071.22 74.295 1071.25 74.515 1071.26 74.675C1071.27 74.825 1071.27 75.01 1071.27 75.23V80H1070.7V75.125C1070.7 73.445 1069.97 72.605 1068.51 72.605C1067.66 72.605 1066.99 72.905 1066.49 73.505C1065.99 74.095 1065.74 74.87 1065.74 75.83V80H1065.17ZM1075.78 72.29V72.785H1074.1V78.17C1074.1 78.75 1074.23 79.125 1074.48 79.295C1074.74 79.455 1075.17 79.525 1075.77 79.505V80C1075.44 80.02 1075.15 80.015 1074.91 79.985C1074.67 79.955 1074.43 79.885 1074.19 79.775C1073.96 79.655 1073.79 79.465 1073.68 79.205C1073.57 78.935 1073.52 78.59 1073.53 78.17V72.785H1072.11V72.29H1073.53V69.89H1074.1V72.29H1075.78ZM1077.53 80H1076.96V72.29H1077.53V80ZM1077.53 70.835H1076.96V69.29H1077.53V70.835ZM1082.18 72.29V72.785H1080.5V78.17C1080.5 78.75 1080.63 79.125 1080.88 79.295C1081.14 79.455 1081.57 79.525 1082.17 79.505V80C1081.84 80.02 1081.55 80.015 1081.31 79.985C1081.07 79.955 1080.83 79.885 1080.59 79.775C1080.36 79.655 1080.19 79.465 1080.08 79.205C1079.97 78.935 1079.92 78.59 1079.93 78.17V72.785H1078.51V72.29H1079.93V69.89H1080.5V72.29H1082.18ZM1085.52 79.955L1082.3 72.29H1082.97L1085.84 79.325L1088.48 72.29H1089.12L1085.82 80.825C1085.45 81.705 1085.15 82.235 1084.92 82.415C1084.73 82.565 1084.51 82.66 1084.25 82.7C1083.99 82.74 1083.61 82.76 1083.12 82.76V82.265C1083.53 82.265 1083.85 82.23 1084.08 82.16C1084.32 82.09 1084.54 81.96 1084.73 81.77C1084.89 81.61 1085.15 81.005 1085.52 79.955ZM987.595 92.35H986.935C986.895 91.46 986.565 90.78 985.945 90.31C985.335 89.84 984.52 89.605 983.5 89.605C983.17 89.605 982.845 89.645 982.525 89.725C982.205 89.795 981.89 89.915 981.58 90.085C981.28 90.245 981.035 90.48 980.845 90.79C980.655 91.1 980.56 91.465 980.56 91.885C980.56 92.205 980.63 92.49 980.77 92.74C980.92 92.98 981.065 93.17 981.205 93.31C981.355 93.45 981.63 93.59 982.03 93.73C982.44 93.86 982.725 93.945 982.885 93.985C983.055 94.025 983.405 94.1 983.935 94.21C984.055 94.24 984.145 94.26 984.205 94.27C984.655 94.36 985.02 94.445 985.3 94.525C985.58 94.595 985.9 94.71 986.26 94.87C986.63 95.02 986.915 95.19 987.115 95.38C987.325 95.57 987.5 95.825 987.64 96.145C987.79 96.465 987.865 96.83 987.865 97.24C987.865 97.77 987.745 98.24 987.505 98.65C987.275 99.05 986.97 99.365 986.59 99.595C986.21 99.815 985.81 99.98 985.39 100.09C984.97 100.2 984.54 100.255 984.1 100.255C982.74 100.255 981.645 99.95 980.815 99.34C979.985 98.72 979.575 97.76 979.585 96.46H980.245C980.185 97.56 980.52 98.375 981.25 98.905C981.99 99.425 982.94 99.685 984.1 99.685C984.58 99.685 985.04 99.615 985.48 99.475C985.93 99.335 986.33 99.075 986.68 98.695C987.03 98.305 987.205 97.82 987.205 97.24C987.205 96.9 987.135 96.6 986.995 96.34C986.865 96.08 986.7 95.87 986.5 95.71C986.3 95.55 986.035 95.41 985.705 95.29C985.375 95.16 985.065 95.06 984.775 94.99C984.485 94.92 984.13 94.845 983.71 94.765C983.64 94.755 983.585 94.745 983.545 94.735C983.165 94.655 982.86 94.59 982.63 94.54C982.4 94.48 982.125 94.4 981.805 94.3C981.485 94.19 981.225 94.07 981.025 93.94C980.835 93.8 980.645 93.64 980.455 93.46C980.265 93.27 980.125 93.045 980.035 92.785C979.945 92.515 979.9 92.215 979.9 91.885C979.9 90.935 980.26 90.225 980.98 89.755C981.7 89.275 982.54 89.035 983.5 89.035C984.69 89.035 985.655 89.31 986.395 89.86C987.145 90.4 987.545 91.23 987.595 92.35ZM995.738 96.22H989.513C989.493 97.19 989.733 98.01 990.233 98.68C990.733 99.35 991.438 99.685 992.348 99.685C993.078 99.685 993.683 99.48 994.163 99.07C994.653 98.66 994.968 98.1 995.108 97.39H995.678C995.528 98.29 995.163 98.98 994.583 99.46C994.013 99.94 993.268 100.18 992.348 100.18C991.268 100.18 990.423 99.81 989.813 99.07C989.213 98.33 988.923 97.4 988.943 96.28C988.923 95.14 989.208 94.16 989.798 93.34C990.398 92.52 991.248 92.11 992.348 92.11C993.498 92.11 994.363 92.505 994.943 93.295C995.533 94.075 995.798 95.05 995.738 96.22ZM989.513 95.725H995.168C995.148 94.865 994.883 94.13 994.373 93.52C993.873 92.91 993.198 92.605 992.348 92.605C991.538 92.605 990.878 92.92 990.368 93.55C989.868 94.17 989.583 94.895 989.513 95.725ZM1003.44 94.675H1002.87C1002.82 94.015 1002.55 93.505 1002.06 93.145C1001.58 92.785 1000.98 92.605 1000.26 92.605C999.342 92.605 998.617 92.95 998.087 93.64C997.557 94.32 997.292 95.13 997.292 96.07C997.292 97.16 997.547 98.035 998.057 98.695C998.567 99.355 999.302 99.685 1000.26 99.685C1000.97 99.685 1001.57 99.465 1002.06 99.025C1002.55 98.575 1002.85 97.995 1002.95 97.285H1003.52C1003.4 98.185 1003.04 98.895 1002.44 99.415C1001.84 99.925 1001.11 100.18 1000.26 100.18C999.082 100.18 998.197 99.79 997.607 99.01C997.017 98.22 996.722 97.24 996.722 96.07C996.722 94.95 997.037 94.01 997.667 93.25C998.297 92.49 999.162 92.11 1000.26 92.11C1001.14 92.11 1001.87 92.33 1002.45 92.77C1003.03 93.2 1003.36 93.835 1003.44 94.675ZM1010.95 92.29V100H1010.38V98.35H1010.35C1010.16 98.91 1009.8 99.355 1009.28 99.685C1008.77 100.015 1008.21 100.18 1007.59 100.18C1007.16 100.18 1006.78 100.125 1006.45 100.015C1006.12 99.915 1005.86 99.77 1005.67 99.58C1005.48 99.38 1005.32 99.185 1005.2 98.995C1005.08 98.795 1005 98.555 1004.95 98.275C1004.9 97.995 1004.87 97.78 1004.86 97.63C1004.85 97.47 1004.84 97.28 1004.84 97.06V92.29H1005.41V97.165C1005.41 98.845 1006.14 99.685 1007.6 99.685C1008.45 99.685 1009.13 99.39 1009.63 98.8C1010.13 98.2 1010.38 97.42 1010.38 96.46V92.29H1010.95ZM1013.19 92.29V94H1013.24C1013.39 93.49 1013.74 93.065 1014.3 92.725C1014.87 92.375 1015.5 92.215 1016.19 92.245V92.815C1015.38 92.715 1014.67 92.965 1014.06 93.565C1013.76 93.875 1013.55 94.185 1013.42 94.495C1013.3 94.795 1013.22 95.225 1013.19 95.785V100H1012.62V92.29H1013.19ZM1017.5 100H1016.93V92.29H1017.5V100ZM1017.5 90.835H1016.93V89.29H1017.5V90.835ZM1022.15 92.29V92.785H1020.47V98.17C1020.47 98.75 1020.6 99.125 1020.85 99.295C1021.11 99.455 1021.54 99.525 1022.14 99.505V100C1021.81 100.02 1021.52 100.015 1021.28 99.985C1021.04 99.955 1020.8 99.885 1020.56 99.775C1020.33 99.655 1020.16 99.465 1020.05 99.205C1019.94 98.935 1019.89 98.59 1019.9 98.17V92.785H1018.48V92.29H1019.9V89.89H1020.47V92.29H1022.15ZM1025.49 99.955L1022.27 92.29H1022.94L1025.81 99.325L1028.45 92.29H1029.09L1025.79 100.825C1025.42 101.705 1025.12 102.235 1024.89 102.415C1024.7 102.565 1024.48 102.66 1024.22 102.7C1023.96 102.74 1023.58 102.76 1023.09 102.76V102.265C1023.5 102.265 1023.82 102.23 1024.05 102.16C1024.29 102.09 1024.51 101.96 1024.7 101.77C1024.86 101.61 1025.12 101.005 1025.49 99.955Z" fill="#383C42"/>
<path d="M982.39 23.02V16.27H984.07C984.65 16.27 985.135 16.355 985.525 16.525C985.925 16.685 986.245 16.92 986.485 17.23C986.725 17.54 986.895 17.915 986.995 18.355C987.105 18.785 987.16 19.27 987.16 19.81C987.16 20.4 987.085 20.9 986.935 21.31C986.785 21.72 986.585 22.055 986.335 22.315C986.085 22.565 985.8 22.745 985.48 22.855C985.16 22.965 984.83 23.02 984.49 23.02H982.39ZM980.035 14.29V25H984.655C985.475 25 986.185 24.865 986.785 24.595C987.395 24.315 987.9 23.935 988.3 23.455C988.71 22.975 989.015 22.405 989.215 21.745C989.415 21.085 989.515 20.365 989.515 19.585C989.515 18.695 989.39 17.92 989.14 17.26C988.9 16.6 988.56 16.05 988.12 15.61C987.69 15.17 987.175 14.84 986.575 14.62C985.985 14.4 985.345 14.29 984.655 14.29H980.035ZM992.818 21.13C992.818 20.82 992.848 20.515 992.908 20.215C992.968 19.915 993.068 19.65 993.208 19.42C993.358 19.19 993.553 19.005 993.793 18.865C994.033 18.715 994.333 18.64 994.693 18.64C995.053 18.64 995.353 18.715 995.593 18.865C995.843 19.005 996.038 19.19 996.178 19.42C996.328 19.65 996.433 19.915 996.493 20.215C996.553 20.515 996.583 20.82 996.583 21.13C996.583 21.44 996.553 21.745 996.493 22.045C996.433 22.335 996.328 22.6 996.178 22.84C996.038 23.07 995.843 23.255 995.593 23.395C995.353 23.535 995.053 23.605 994.693 23.605C994.333 23.605 994.033 23.535 993.793 23.395C993.553 23.255 993.358 23.07 993.208 22.84C993.068 22.6 992.968 22.335 992.908 22.045C992.848 21.745 992.818 21.44 992.818 21.13ZM990.688 21.13C990.688 21.75 990.783 22.31 990.973 22.81C991.163 23.31 991.433 23.74 991.783 24.1C992.133 24.45 992.553 24.72 993.043 24.91C993.533 25.1 994.083 25.195 994.693 25.195C995.303 25.195 995.853 25.1 996.343 24.91C996.843 24.72 997.268 24.45 997.618 24.1C997.968 23.74 998.238 23.31 998.428 22.81C998.618 22.31 998.713 21.75 998.713 21.13C998.713 20.51 998.618 19.95 998.428 19.45C998.238 18.94 997.968 18.51 997.618 18.16C997.268 17.8 996.843 17.525 996.343 17.335C995.853 17.135 995.303 17.035 994.693 17.035C994.083 17.035 993.533 17.135 993.043 17.335C992.553 17.525 992.133 17.8 991.783 18.16C991.433 18.51 991.163 18.94 990.973 19.45C990.783 19.95 990.688 20.51 990.688 21.13ZM1005.38 19.975H1007.46C1007.43 19.475 1007.31 19.045 1007.1 18.685C1006.89 18.315 1006.62 18.01 1006.28 17.77C1005.95 17.52 1005.57 17.335 1005.14 17.215C1004.72 17.095 1004.28 17.035 1003.82 17.035C1003.19 17.035 1002.63 17.14 1002.14 17.35C1001.65 17.56 1001.23 17.855 1000.89 18.235C1000.55 18.605 1000.29 19.05 1000.11 19.57C999.943 20.08 999.858 20.635 999.858 21.235C999.858 21.815 999.953 22.35 1000.14 22.84C1000.33 23.32 1000.6 23.735 1000.94 24.085C1001.28 24.435 1001.69 24.71 1002.17 24.91C1002.66 25.1 1003.19 25.195 1003.77 25.195C1004.8 25.195 1005.65 24.925 1006.31 24.385C1006.97 23.845 1007.37 23.06 1007.51 22.03H1005.45C1005.38 22.51 1005.21 22.895 1004.93 23.185C1004.66 23.465 1004.27 23.605 1003.76 23.605C1003.43 23.605 1003.15 23.53 1002.92 23.38C1002.69 23.23 1002.5 23.04 1002.36 22.81C1002.23 22.57 1002.14 22.305 1002.08 22.015C1002.02 21.725 1001.99 21.44 1001.99 21.16C1001.99 20.87 1002.02 20.58 1002.08 20.29C1002.14 19.99 1002.24 19.72 1002.38 19.48C1002.53 19.23 1002.72 19.03 1002.95 18.88C1003.18 18.72 1003.46 18.64 1003.8 18.64C1004.71 18.64 1005.24 19.085 1005.38 19.975ZM1015.99 25V17.245H1013.86V21.31C1013.86 22.1 1013.73 22.67 1013.47 23.02C1013.21 23.36 1012.79 23.53 1012.21 23.53C1011.7 23.53 1011.34 23.375 1011.14 23.065C1010.94 22.745 1010.84 22.265 1010.84 21.625V17.245H1008.71V22.015C1008.71 22.495 1008.75 22.935 1008.83 23.335C1008.92 23.725 1009.07 24.06 1009.28 24.34C1009.49 24.61 1009.78 24.82 1010.14 24.97C1010.51 25.12 1010.98 25.195 1011.55 25.195C1012 25.195 1012.44 25.095 1012.87 24.895C1013.3 24.695 1013.65 24.37 1013.92 23.92H1013.96V25H1015.99ZM1017.66 17.245V25H1019.79V20.5C1019.79 20.12 1019.85 19.815 1019.96 19.585C1020.07 19.345 1020.2 19.165 1020.35 19.045C1020.51 18.915 1020.67 18.83 1020.83 18.79C1021 18.74 1021.13 18.715 1021.23 18.715C1021.57 18.715 1021.83 18.775 1022 18.895C1022.18 19.005 1022.3 19.155 1022.37 19.345C1022.45 19.535 1022.5 19.745 1022.51 19.975C1022.52 20.195 1022.52 20.42 1022.52 20.65V25H1024.65V20.68C1024.65 20.44 1024.67 20.205 1024.7 19.975C1024.74 19.735 1024.81 19.525 1024.91 19.345C1025.02 19.155 1025.16 19.005 1025.34 18.895C1025.53 18.775 1025.78 18.715 1026.08 18.715C1026.38 18.715 1026.61 18.765 1026.78 18.865C1026.96 18.965 1027.1 19.1 1027.19 19.27C1027.28 19.44 1027.33 19.64 1027.35 19.87C1027.37 20.1 1027.38 20.345 1027.38 20.605V25H1029.51V19.81C1029.51 19.31 1029.44 18.885 1029.3 18.535C1029.16 18.175 1028.97 17.885 1028.72 17.665C1028.47 17.445 1028.17 17.285 1027.82 17.185C1027.47 17.085 1027.09 17.035 1026.68 17.035C1026.14 17.035 1025.67 17.165 1025.27 17.425C1024.88 17.685 1024.57 17.985 1024.34 18.325C1024.13 17.845 1023.82 17.51 1023.41 17.32C1023.01 17.13 1022.56 17.035 1022.07 17.035C1021.56 17.035 1021.11 17.145 1020.71 17.365C1020.32 17.585 1019.98 17.895 1019.7 18.295H1019.67V17.245H1017.66ZM1036.42 20.29H1032.95C1032.96 20.14 1032.99 19.97 1033.04 19.78C1033.1 19.59 1033.2 19.41 1033.33 19.24C1033.47 19.07 1033.65 18.93 1033.87 18.82C1034.1 18.7 1034.38 18.64 1034.72 18.64C1035.24 18.64 1035.63 18.78 1035.88 19.06C1036.14 19.34 1036.32 19.75 1036.42 20.29ZM1032.95 21.64H1038.55C1038.59 21.04 1038.54 20.465 1038.4 19.915C1038.26 19.365 1038.03 18.875 1037.71 18.445C1037.4 18.015 1037 17.675 1036.51 17.425C1036.02 17.165 1035.44 17.035 1034.78 17.035C1034.19 17.035 1033.65 17.14 1033.16 17.35C1032.68 17.56 1032.27 17.85 1031.92 18.22C1031.57 18.58 1031.3 19.01 1031.11 19.51C1030.92 20.01 1030.82 20.55 1030.82 21.13C1030.82 21.73 1030.91 22.28 1031.09 22.78C1031.28 23.28 1031.55 23.71 1031.89 24.07C1032.23 24.43 1032.64 24.71 1033.13 24.91C1033.62 25.1 1034.17 25.195 1034.78 25.195C1035.66 25.195 1036.41 24.995 1037.03 24.595C1037.65 24.195 1038.11 23.53 1038.41 22.6H1036.54C1036.47 22.84 1036.28 23.07 1035.97 23.29C1035.66 23.5 1035.29 23.605 1034.86 23.605C1034.26 23.605 1033.8 23.45 1033.48 23.14C1033.16 22.83 1032.98 22.33 1032.95 21.64ZM1039.81 17.245V25H1041.94V20.935C1041.94 20.145 1042.07 19.58 1042.33 19.24C1042.59 18.89 1043.01 18.715 1043.59 18.715C1044.1 18.715 1044.46 18.875 1044.66 19.195C1044.86 19.505 1044.96 19.98 1044.96 20.62V25H1047.09V20.23C1047.09 19.75 1047.04 19.315 1046.95 18.925C1046.87 18.525 1046.73 18.19 1046.52 17.92C1046.31 17.64 1046.02 17.425 1045.65 17.275C1045.29 17.115 1044.82 17.035 1044.25 17.035C1043.8 17.035 1043.36 17.14 1042.93 17.35C1042.5 17.55 1042.15 17.875 1041.88 18.325H1041.84V17.245H1039.81ZM1051.4 17.245V14.92H1049.27V17.245H1047.98V18.67H1049.27V23.245C1049.27 23.635 1049.34 23.95 1049.47 24.19C1049.6 24.43 1049.77 24.615 1049.99 24.745C1050.22 24.875 1050.48 24.96 1050.77 25C1051.07 25.05 1051.39 25.075 1051.72 25.075C1051.93 25.075 1052.14 25.07 1052.36 25.06C1052.58 25.05 1052.78 25.03 1052.96 25V23.35C1052.86 23.37 1052.76 23.385 1052.65 23.395C1052.54 23.405 1052.42 23.41 1052.3 23.41C1051.94 23.41 1051.7 23.35 1051.58 23.23C1051.46 23.11 1051.4 22.87 1051.4 22.51V18.67H1052.96V17.245H1051.4ZM1053.89 19.63C1053.92 19.13 1054.04 18.715 1054.26 18.385C1054.48 18.055 1054.76 17.79 1055.1 17.59C1055.44 17.39 1055.82 17.25 1056.24 17.17C1056.67 17.08 1057.1 17.035 1057.53 17.035C1057.92 17.035 1058.32 17.065 1058.72 17.125C1059.12 17.175 1059.48 17.28 1059.81 17.44C1060.14 17.6 1060.41 17.825 1060.62 18.115C1060.83 18.395 1060.94 18.77 1060.94 19.24V23.275C1060.94 23.625 1060.96 23.96 1061 24.28C1061.04 24.6 1061.11 24.84 1061.21 25H1059.05C1059.01 24.88 1058.97 24.76 1058.94 24.64C1058.92 24.51 1058.91 24.38 1058.9 24.25C1058.56 24.6 1058.16 24.845 1057.7 24.985C1057.24 25.125 1056.77 25.195 1056.29 25.195C1055.92 25.195 1055.57 25.15 1055.25 25.06C1054.93 24.97 1054.65 24.83 1054.41 24.64C1054.17 24.45 1053.98 24.21 1053.84 23.92C1053.71 23.63 1053.65 23.285 1053.65 22.885C1053.65 22.445 1053.72 22.085 1053.87 21.805C1054.03 21.515 1054.23 21.285 1054.47 21.115C1054.72 20.945 1055 20.82 1055.31 20.74C1055.63 20.65 1055.95 20.58 1056.27 20.53C1056.59 20.48 1056.91 20.44 1057.22 20.41C1057.53 20.38 1057.8 20.335 1058.04 20.275C1058.28 20.215 1058.47 20.13 1058.61 20.02C1058.75 19.9 1058.82 19.73 1058.81 19.51C1058.81 19.28 1058.77 19.1 1058.69 18.97C1058.62 18.83 1058.52 18.725 1058.39 18.655C1058.27 18.575 1058.12 18.525 1057.95 18.505C1057.79 18.475 1057.62 18.46 1057.43 18.46C1057.01 18.46 1056.68 18.55 1056.44 18.73C1056.2 18.91 1056.06 19.21 1056.02 19.63H1053.89ZM1058.81 21.205C1058.72 21.285 1058.6 21.35 1058.46 21.4C1058.33 21.44 1058.19 21.475 1058.03 21.505C1057.88 21.535 1057.72 21.56 1057.55 21.58C1057.38 21.6 1057.21 21.625 1057.04 21.655C1056.88 21.685 1056.72 21.725 1056.56 21.775C1056.41 21.825 1056.27 21.895 1056.15 21.985C1056.04 22.065 1055.95 22.17 1055.88 22.3C1055.81 22.43 1055.78 22.595 1055.78 22.795C1055.78 22.985 1055.81 23.145 1055.88 23.275C1055.95 23.405 1056.05 23.51 1056.17 23.59C1056.29 23.66 1056.43 23.71 1056.59 23.74C1056.75 23.77 1056.91 23.785 1057.08 23.785C1057.5 23.785 1057.83 23.715 1058.06 23.575C1058.29 23.435 1058.46 23.27 1058.57 23.08C1058.68 22.88 1058.74 22.68 1058.76 22.48C1058.79 22.28 1058.81 22.12 1058.81 22V21.205ZM1065.29 17.245V14.92H1063.16V17.245H1061.87V18.67H1063.16V23.245C1063.16 23.635 1063.22 23.95 1063.35 24.19C1063.48 24.43 1063.66 24.615 1063.88 24.745C1064.11 24.875 1064.37 24.96 1064.66 25C1064.96 25.05 1065.27 25.075 1065.6 25.075C1065.81 25.075 1066.03 25.07 1066.25 25.06C1066.47 25.05 1066.67 25.03 1066.85 25V23.35C1066.75 23.37 1066.64 23.385 1066.53 23.395C1066.42 23.405 1066.31 23.41 1066.19 23.41C1065.83 23.41 1065.59 23.35 1065.47 23.23C1065.35 23.11 1065.29 22.87 1065.29 22.51V18.67H1066.85V17.245H1065.29ZM1070.05 16.045V14.29H1067.92V16.045H1070.05ZM1067.92 17.245V25H1070.05V17.245H1067.92ZM1073.62 21.13C1073.62 20.82 1073.65 20.515 1073.71 20.215C1073.77 19.915 1073.87 19.65 1074.01 19.42C1074.16 19.19 1074.35 19.005 1074.59 18.865C1074.83 18.715 1075.13 18.64 1075.49 18.64C1075.85 18.64 1076.15 18.715 1076.39 18.865C1076.64 19.005 1076.84 19.19 1076.98 19.42C1077.13 19.65 1077.23 19.915 1077.29 20.215C1077.35 20.515 1077.38 20.82 1077.38 21.13C1077.38 21.44 1077.35 21.745 1077.29 22.045C1077.23 22.335 1077.13 22.6 1076.98 22.84C1076.84 23.07 1076.64 23.255 1076.39 23.395C1076.15 23.535 1075.85 23.605 1075.49 23.605C1075.13 23.605 1074.83 23.535 1074.59 23.395C1074.35 23.255 1074.16 23.07 1074.01 22.84C1073.87 22.6 1073.77 22.335 1073.71 22.045C1073.65 21.745 1073.62 21.44 1073.62 21.13ZM1071.49 21.13C1071.49 21.75 1071.58 22.31 1071.77 22.81C1071.96 23.31 1072.23 23.74 1072.58 24.1C1072.93 24.45 1073.35 24.72 1073.84 24.91C1074.33 25.1 1074.88 25.195 1075.49 25.195C1076.1 25.195 1076.65 25.1 1077.14 24.91C1077.64 24.72 1078.07 24.45 1078.42 24.1C1078.77 23.74 1079.04 23.31 1079.23 22.81C1079.42 22.31 1079.51 21.75 1079.51 21.13C1079.51 20.51 1079.42 19.95 1079.23 19.45C1079.04 18.94 1078.77 18.51 1078.42 18.16C1078.07 17.8 1077.64 17.525 1077.14 17.335C1076.65 17.135 1076.1 17.035 1075.49 17.035C1074.88 17.035 1074.33 17.135 1073.84 17.335C1073.35 17.525 1072.93 17.8 1072.58 18.16C1072.23 18.51 1071.96 18.94 1071.77 19.45C1071.58 19.95 1071.49 20.51 1071.49 21.13ZM1080.9 17.245V25H1083.03V20.935C1083.03 20.145 1083.16 19.58 1083.42 19.24C1083.68 18.89 1084.1 18.715 1084.68 18.715C1085.19 18.715 1085.54 18.875 1085.74 19.195C1085.94 19.505 1086.04 19.98 1086.04 20.62V25H1088.17V20.23C1088.17 19.75 1088.13 19.315 1088.04 18.925C1087.96 18.525 1087.81 18.19 1087.6 17.92C1087.39 17.64 1087.1 17.425 1086.73 17.275C1086.37 17.115 1085.91 17.035 1085.34 17.035C1084.89 17.035 1084.45 17.14 1084.02 17.35C1083.59 17.55 1083.24 17.875 1082.97 18.325H1082.92V17.245H1080.9Z" fill="#2B2B2B"/>
<path d="M123.41 87.6329C122.297 86.4774 120.972 85.5613 119.513 84.9377C118.053 84.314 116.488 83.9953 114.908 84.0001C108.28 84.0001 102.886 89.5581 102.886 96.3884C102.884 98.5622 103.437 100.698 104.489 102.583L102.783 109L109.157 107.276C110.92 108.266 112.895 108.784 114.903 108.782H114.908C121.531 108.782 127.044 103.224 127.044 96.394C127.044 93.0849 125.679 89.9766 123.41 87.6329ZM114.908 106.695C113.117 106.697 111.359 106.201 109.818 105.261L109.455 105.038L105.675 106.059L106.682 102.259L106.444 101.868C105.443 100.227 104.913 98.327 104.917 96.3884C104.917 90.7132 109.401 86.0927 114.914 86.0927C116.226 86.0886 117.526 86.3534 118.739 86.8717C119.951 87.39 121.051 88.1514 121.975 89.1116C123.86 91.0592 125.019 93.6429 125.013 96.394C125.013 102.075 120.416 106.695 114.908 106.695ZM120.389 98.9833C120.091 98.827 118.612 98.0793 118.336 97.9788C118.06 97.8728 117.86 97.8226 117.659 98.1351C117.459 98.4476 116.885 99.1395 116.706 99.3516C116.533 99.5581 116.354 99.586 116.056 99.4297C114.291 98.5201 113.132 97.8058 111.968 95.7467C111.659 95.1998 112.276 95.2389 112.85 94.0558C112.948 93.8494 112.899 93.6708 112.823 93.5145C112.747 93.3583 112.146 91.8349 111.897 91.2154C111.654 90.6128 111.404 90.6965 111.22 90.6853C111.047 90.6741 110.847 90.6741 110.646 90.6741C110.494 90.6785 110.345 90.7149 110.207 90.7811C110.069 90.8473 109.946 90.942 109.845 91.0592C109.569 91.3717 108.794 92.1195 108.794 93.6429C108.794 95.1663 109.872 96.6395 110.018 96.846C110.17 97.0525 112.136 100.177 115.152 101.522C117.058 102.371 117.805 102.443 118.759 102.298C119.338 102.209 120.535 101.55 120.784 100.825C121.033 100.099 121.033 99.4799 120.957 99.3516C120.887 99.2121 120.686 99.1339 120.389 98.9833Z" fill="#2B2B2B"/>
<path d="M160.134 108V93.2841H155.359V108H160.134ZM157.721 91.3154C159.261 91.3154 160.493 90.085 160.493 88.6085C160.493 87.1812 159.261 86 157.721 86C156.232 86 155 87.1812 155 88.6085C155 90.085 156.232 91.3154 157.721 91.3154ZM177.949 108H178V99.9284C178 95.9911 177.076 92.9396 172.25 92.9396C169.94 92.9396 168.4 94.17 167.732 95.302H167.681V93.2841H163.112V108H167.886V100.716C167.886 98.7964 168.246 96.9754 170.71 96.9754C173.174 96.9754 173.225 99.1409 173.225 100.864V108H177.949Z" fill="#2B2B2B"/>
<path d="M11.7012 98.0625L12.3505 93.5381H8.29059V90.6021C8.29059 89.3643 8.85773 88.1577 10.676 88.1577H12.5217V84.3057C12.5217 84.3057 10.8468 84 9.24541 84C5.90196 84 3.71652 86.167 3.71652 90.0898V93.5381H0V98.0625H3.71652V109H8.29059V98.0625H11.7012Z" fill="#2B2B2B"/>
<path d="M57.6788 84C50.8295 84 45.5215 88.9973 45.5215 95.7472C45.5215 99.2776 46.9747 102.329 49.3401 104.436C49.7485 104.803 49.6644 105.015 49.7339 107.28C49.7393 107.438 49.7836 107.593 49.8628 107.731C49.942 107.868 50.0537 107.984 50.1882 108.069C50.3227 108.154 50.4758 108.204 50.6343 108.216C50.7929 108.228 50.9519 108.201 51.0976 108.137C53.6856 107 53.7188 106.91 54.1576 107.029C61.6555 109.089 69.7824 104.299 69.7824 95.7472C69.7824 88.9973 64.5286 84 57.6788 84ZM64.9786 93.04L61.408 98.6834C61.2731 98.8956 61.0958 99.0777 60.8872 99.2183C60.6786 99.3589 60.4431 99.455 60.1955 99.5005C59.948 99.546 59.6937 99.54 59.4485 99.4828C59.2034 99.4257 58.9728 99.3186 58.7711 99.1683L55.9302 97.0456C55.8032 96.9505 55.6487 96.8991 55.49 96.8991C55.3312 96.8991 55.1767 96.9505 55.0497 97.0456L51.2164 99.9481C50.7048 100.335 50.0347 99.7235 50.3795 99.1829L53.9502 93.5395C54.085 93.3273 54.2622 93.1451 54.4709 93.0045C54.6795 92.8638 54.915 92.7677 55.1626 92.7222C55.4101 92.6766 55.6645 92.6827 55.9096 92.7399C56.1547 92.7971 56.3854 92.9043 56.5871 93.0547L59.427 95.1768C59.554 95.2719 59.7084 95.3233 59.8672 95.3233C60.0259 95.3233 60.1804 95.2719 60.3074 95.1768L64.1427 92.2773C64.6533 91.8876 65.3234 92.499 64.9786 93.04Z" fill="#2B2B2B"/>
<path opacity="0.8" d="M5.73 52.75H10.245V58H9.675V55.72H9.645C9.385 56.49 8.88 57.105 8.13 57.565C7.39 58.025 6.545 58.255 5.595 58.255C4.025 58.255 2.79 57.73 1.89 56.68C1 55.63 0.555 54.305 0.555 52.705C0.555 51.115 1.01 49.775 1.92 48.685C2.83 47.585 4.06 47.035 5.61 47.035C6.74 47.035 7.72 47.36 8.55 48.01C9.38 48.65 9.885 49.515 10.065 50.605H9.435C9.185 49.665 8.725 48.93 8.055 48.4C7.395 47.87 6.585 47.605 5.625 47.605C4.245 47.605 3.165 48.1 2.385 49.09C1.605 50.08 1.215 51.285 1.215 52.705C1.215 54.145 1.595 55.335 2.355 56.275C3.125 57.215 4.215 57.685 5.625 57.685C6.895 57.685 7.9 57.285 8.64 56.485C9.38 55.685 9.725 54.63 9.675 53.32H5.73V52.75ZM18.4082 54.22H12.1832C12.1632 55.19 12.4032 56.01 12.9032 56.68C13.4032 57.35 14.1082 57.685 15.0182 57.685C15.7482 57.685 16.3532 57.48 16.8332 57.07C17.3232 56.66 17.6382 56.1 17.7782 55.39H18.3482C18.1982 56.29 17.8332 56.98 17.2532 57.46C16.6832 57.94 15.9382 58.18 15.0182 58.18C13.9382 58.18 13.0932 57.81 12.4832 57.07C11.8832 56.33 11.5932 55.4 11.6132 54.28C11.5932 53.14 11.8782 52.16 12.4682 51.34C13.0682 50.52 13.9182 50.11 15.0182 50.11C16.1682 50.11 17.0332 50.505 17.6132 51.295C18.2032 52.075 18.4682 53.05 18.4082 54.22ZM12.1832 53.725H17.8382C17.8182 52.865 17.5532 52.13 17.0432 51.52C16.5432 50.91 15.8682 50.605 15.0182 50.605C14.2082 50.605 13.5482 50.92 13.0382 51.55C12.5382 52.17 12.2532 52.895 12.1832 53.725ZM22.5715 50.29V50.785H20.8915V56.17C20.8915 56.75 21.0165 57.125 21.2665 57.295C21.5265 57.455 21.9565 57.525 22.5565 57.505V58C22.2265 58.02 21.9415 58.015 21.7015 57.985C21.4615 57.955 21.2215 57.885 20.9815 57.775C20.7515 57.655 20.5815 57.465 20.4715 57.205C20.3615 56.935 20.3115 56.59 20.3215 56.17V50.785H18.8965V50.29H20.3215V47.89H20.8915V50.29H22.5715ZM28.4981 58H27.9281V50.29H28.4981V58ZM28.4981 48.835H27.9281V47.29H28.4981V48.835ZM30.3127 58V50.29H30.8827V51.94H30.9127C31.1027 51.38 31.4527 50.935 31.9627 50.605C32.4827 50.275 33.0527 50.11 33.6727 50.11C34.1027 50.11 34.4827 50.165 34.8127 50.275C35.1427 50.375 35.4027 50.525 35.5927 50.725C35.7827 50.915 35.9377 51.11 36.0577 51.31C36.1777 51.5 36.2627 51.735 36.3127 52.015C36.3627 52.295 36.3927 52.515 36.4027 52.675C36.4127 52.825 36.4177 53.01 36.4177 53.23V58H35.8477V53.125C35.8477 51.445 35.1177 50.605 33.6577 50.605C32.8077 50.605 32.1327 50.905 31.6327 51.505C31.1327 52.095 30.8827 52.87 30.8827 53.83V58H30.3127ZM45.1008 50.29V50.785H43.4208V56.17C43.4208 56.75 43.5458 57.125 43.7958 57.295C44.0558 57.455 44.4858 57.525 45.0858 57.505V58C44.7558 58.02 44.4708 58.015 44.2308 57.985C43.9908 57.955 43.7508 57.885 43.5108 57.775C43.2808 57.655 43.1108 57.465 43.0008 57.205C42.8908 56.935 42.8408 56.59 42.8508 56.17V50.785H41.4258V50.29H42.8508V47.89H43.4208V50.29H45.1008ZM46.7326 57.025C46.1026 56.245 45.7876 55.285 45.7876 54.145C45.7876 53.005 46.1026 52.05 46.7326 51.28C47.3726 50.5 48.2376 50.11 49.3276 50.11C50.4176 50.11 51.2776 50.5 51.9076 51.28C52.5476 52.05 52.8676 53.005 52.8676 54.145C52.8676 55.285 52.5476 56.245 51.9076 57.025C51.2776 57.795 50.4176 58.18 49.3276 58.18C48.2376 58.18 47.3726 57.795 46.7326 57.025ZM47.1526 51.64C46.6226 52.33 46.3576 53.165 46.3576 54.145C46.3576 55.125 46.6226 55.96 47.1526 56.65C47.6826 57.34 48.4076 57.685 49.3276 57.685C50.2476 57.685 50.9726 57.34 51.5026 56.65C52.0326 55.96 52.2976 55.125 52.2976 54.145C52.2976 53.165 52.0326 52.33 51.5026 51.64C50.9726 50.95 50.2476 50.605 49.3276 50.605C48.4076 50.605 47.6826 50.95 47.1526 51.64ZM60.3093 50.29V58H59.7393V56.35H59.7093C59.5193 56.91 59.1643 57.355 58.6443 57.685C58.1343 58.015 57.5693 58.18 56.9493 58.18C56.5193 58.18 56.1393 58.125 55.8093 58.015C55.4793 57.915 55.2193 57.77 55.0293 57.58C54.8393 57.38 54.6843 57.185 54.5643 56.995C54.4443 56.795 54.3593 56.555 54.3093 56.275C54.2593 55.995 54.2293 55.78 54.2193 55.63C54.2093 55.47 54.2043 55.28 54.2043 55.06V50.29H54.7743V55.165C54.7743 56.845 55.5043 57.685 56.9643 57.685C57.8143 57.685 58.4893 57.39 58.9893 56.8C59.4893 56.2 59.7393 55.42 59.7393 54.46V50.29H60.3093ZM68.3576 52.675H67.7876C67.7376 52.015 67.4676 51.505 66.9776 51.145C66.4976 50.785 65.8976 50.605 65.1776 50.605C64.2576 50.605 63.5326 50.95 63.0026 51.64C62.4726 52.32 62.2076 53.13 62.2076 54.07C62.2076 55.16 62.4626 56.035 62.9726 56.695C63.4826 57.355 64.2176 57.685 65.1776 57.685C65.8876 57.685 66.4876 57.465 66.9776 57.025C67.4676 56.575 67.7626 55.995 67.8626 55.285H68.4326C68.3126 56.185 67.9526 56.895 67.3526 57.415C66.7526 57.925 66.0276 58.18 65.1776 58.18C63.9976 58.18 63.1126 57.79 62.5226 57.01C61.9326 56.22 61.6376 55.24 61.6376 54.07C61.6376 52.95 61.9526 52.01 62.5826 51.25C63.2126 50.49 64.0776 50.11 65.1776 50.11C66.0576 50.11 66.7876 50.33 67.3676 50.77C67.9476 51.2 68.2776 51.835 68.3576 52.675ZM69.7609 47.29H70.3309V51.94H70.3609C70.5509 51.38 70.9009 50.935 71.4109 50.605C71.9309 50.275 72.5009 50.11 73.1209 50.11C73.5509 50.11 73.9309 50.165 74.2609 50.275C74.5909 50.375 74.8509 50.525 75.0409 50.725C75.2309 50.915 75.3859 51.11 75.5059 51.31C75.6259 51.5 75.7109 51.735 75.7609 52.015C75.8109 52.295 75.8409 52.515 75.8509 52.675C75.8609 52.825 75.8659 53.01 75.8659 53.23V58H75.2959V53.125C75.2959 51.445 74.5659 50.605 73.1059 50.605C72.2559 50.605 71.5809 50.905 71.0809 51.505C70.5809 52.095 70.3309 52.87 70.3309 53.83V58H69.7609V47.29ZM84.549 50.29V50.785H82.869V56.17C82.869 56.75 82.994 57.125 83.244 57.295C83.504 57.455 83.934 57.525 84.534 57.505V58C84.204 58.02 83.919 58.015 83.679 57.985C83.439 57.955 83.199 57.885 82.959 57.775C82.729 57.655 82.559 57.465 82.449 57.205C82.339 56.935 82.289 56.59 82.299 56.17V50.785H80.874V50.29H82.299V47.89H82.869V50.29H84.549ZM85.5959 47.29H86.1659V51.94H86.1959C86.3859 51.38 86.7359 50.935 87.2459 50.605C87.7659 50.275 88.3359 50.11 88.9559 50.11C89.3859 50.11 89.7659 50.165 90.0959 50.275C90.4259 50.375 90.6859 50.525 90.8759 50.725C91.0659 50.915 91.2209 51.11 91.3409 51.31C91.4609 51.5 91.5459 51.735 91.5959 52.015C91.6459 52.295 91.6759 52.515 91.6859 52.675C91.6959 52.825 91.7009 53.01 91.7009 53.23V58H91.1309V53.125C91.1309 51.445 90.4009 50.605 88.9409 50.605C88.0909 50.605 87.4159 50.905 86.9159 51.505C86.4159 52.095 86.1659 52.87 86.1659 53.83V58H85.5959V47.29ZM93.9442 50.29V52H93.9892C94.1392 51.49 94.4942 51.065 95.0542 50.725C95.6242 50.375 96.2542 50.215 96.9442 50.245V50.815C96.1342 50.715 95.4242 50.965 94.8142 51.565C94.5142 51.875 94.2992 52.185 94.1692 52.495C94.0492 52.795 93.9742 53.225 93.9442 53.785V58H93.3742V50.29H93.9442ZM98.134 57.025C97.504 56.245 97.189 55.285 97.189 54.145C97.189 53.005 97.504 52.05 98.134 51.28C98.774 50.5 99.639 50.11 100.729 50.11C101.819 50.11 102.679 50.5 103.309 51.28C103.949 52.05 104.269 53.005 104.269 54.145C104.269 55.285 103.949 56.245 103.309 57.025C102.679 57.795 101.819 58.18 100.729 58.18C99.639 58.18 98.774 57.795 98.134 57.025ZM98.554 51.64C98.024 52.33 97.759 53.165 97.759 54.145C97.759 55.125 98.024 55.96 98.554 56.65C99.084 57.34 99.809 57.685 100.729 57.685C101.649 57.685 102.374 57.34 102.904 56.65C103.434 55.96 103.699 55.125 103.699 54.145C103.699 53.165 103.434 52.33 102.904 51.64C102.374 50.95 101.649 50.605 100.729 50.605C99.809 50.605 99.084 50.95 98.554 51.64ZM111.711 50.29V58H111.141V56.35H111.111C110.921 56.91 110.566 57.355 110.046 57.685C109.536 58.015 108.971 58.18 108.351 58.18C107.921 58.18 107.541 58.125 107.211 58.015C106.881 57.915 106.621 57.77 106.431 57.58C106.241 57.38 106.086 57.185 105.966 56.995C105.846 56.795 105.761 56.555 105.711 56.275C105.661 55.995 105.631 55.78 105.621 55.63C105.611 55.47 105.606 55.28 105.606 55.06V50.29H106.176V55.165C106.176 56.845 106.906 57.685 108.366 57.685C109.216 57.685 109.891 57.39 110.391 56.8C110.891 56.2 111.141 55.42 111.141 54.46V50.29H111.711ZM116.369 50.605C115.489 50.605 114.809 50.935 114.329 51.595C113.849 52.245 113.609 53.015 113.609 53.905C113.609 54.855 113.849 55.645 114.329 56.275C114.819 56.905 115.499 57.22 116.369 57.22C117.259 57.22 117.949 56.9 118.439 56.26C118.929 55.62 119.174 54.835 119.174 53.905C119.174 52.975 118.929 52.195 118.439 51.565C117.959 50.925 117.269 50.605 116.369 50.605ZM119.189 50.29H119.759V57.595C119.759 57.735 119.754 57.865 119.744 57.985C119.744 58.095 119.719 58.275 119.669 58.525C119.629 58.785 119.569 59.01 119.489 59.2C119.419 59.4 119.299 59.615 119.129 59.845C118.969 60.085 118.774 60.28 118.544 60.43C118.324 60.59 118.029 60.715 117.659 60.805C117.299 60.905 116.889 60.95 116.429 60.94C114.499 60.94 113.494 60.14 113.414 58.54H113.984C114.044 59.19 114.299 59.67 114.749 59.98C115.199 60.29 115.764 60.445 116.444 60.445C116.954 60.445 117.394 60.36 117.764 60.19C118.134 60.03 118.404 59.845 118.574 59.635C118.754 59.435 118.894 59.185 118.994 58.885C119.094 58.595 119.149 58.37 119.159 58.21C119.179 58.06 119.189 57.9 119.189 57.73V55.96H119.159C118.609 57.13 117.679 57.715 116.369 57.715C115.279 57.715 114.449 57.365 113.879 56.665C113.319 55.955 113.039 55.035 113.039 53.905C113.039 52.835 113.334 51.935 113.924 51.205C114.514 50.475 115.329 50.11 116.369 50.11C116.989 50.11 117.559 50.27 118.079 50.59C118.599 50.9 118.959 51.335 119.159 51.895H119.189V50.29ZM121.441 47.29H122.011V51.94H122.041C122.231 51.38 122.581 50.935 123.091 50.605C123.611 50.275 124.181 50.11 124.801 50.11C125.231 50.11 125.611 50.165 125.941 50.275C126.271 50.375 126.531 50.525 126.721 50.725C126.911 50.915 127.066 51.11 127.186 51.31C127.306 51.5 127.391 51.735 127.441 52.015C127.491 52.295 127.521 52.515 127.531 52.675C127.541 52.825 127.546 53.01 127.546 53.23V58H126.976V53.125C126.976 51.445 126.246 50.605 124.786 50.605C123.936 50.605 123.261 50.905 122.761 51.505C122.261 52.095 122.011 52.87 122.011 53.83V58H121.441V47.29Z" fill="#383C42"/>
<path d="M15.204 1.3L10.008 12.916V19H5.736V12.916L0.576 1.3H5.1L7.884 8.632L10.656 1.3H15.204ZM23.8853 19.288C22.4773 19.288 21.2373 19.008 20.1653 18.448C19.1013 17.88 18.2653 17.096 17.6573 16.096C17.0573 15.096 16.7573 13.944 16.7573 12.64C16.7573 11.328 17.0573 10.176 17.6573 9.184C18.2653 8.184 19.1013 7.404 20.1653 6.844C21.2373 6.284 22.4773 6.004 23.8853 6.004C25.2933 6.004 26.5293 6.284 27.5933 6.844C28.6653 7.404 29.5013 8.184 30.1013 9.184C30.7093 10.176 31.0133 11.328 31.0133 12.64C31.0133 13.944 30.7093 15.096 30.1013 16.096C29.5013 17.096 28.6653 17.88 27.5933 18.448C26.5293 19.008 25.2933 19.288 23.8853 19.288ZM23.8853 15.988C24.7413 15.988 25.4173 15.684 25.9133 15.076C26.4173 14.468 26.6693 13.656 26.6693 12.64C26.6693 11.624 26.4173 10.816 25.9133 10.216C25.4173 9.616 24.7413 9.316 23.8853 9.316C23.0293 9.316 22.3493 9.616 21.8453 10.216C21.3493 10.816 21.1013 11.624 21.1013 12.64C21.1013 13.656 21.3493 14.468 21.8453 15.076C22.3493 15.684 23.0293 15.988 23.8853 15.988ZM39.7935 19.252C38.8895 19.252 38.1455 19.108 37.5615 18.82C36.9855 18.532 36.5335 18.144 36.2055 17.656C35.8775 17.16 35.6495 16.608 35.5215 16C35.3935 15.384 35.3295 14.748 35.3295 14.092V6.256H39.6015V12.952C39.6015 13.44 39.6495 13.892 39.7455 14.308C39.8495 14.724 40.0415 15.06 40.3215 15.316C40.6015 15.564 41.0095 15.688 41.5455 15.688C42.0735 15.688 42.5175 15.54 42.8775 15.244C43.2455 14.94 43.5215 14.556 43.7055 14.092C43.8975 13.62 43.9935 13.128 43.9935 12.616V6.256H48.2655V19H43.9935V17.164C43.5455 17.812 42.9655 18.324 42.2535 18.7C41.5415 19.068 40.7215 19.252 39.7935 19.252ZM53.0783 19V6.256H57.3623V8.008C57.7463 7.384 58.2463 6.896 58.8623 6.544C59.4863 6.184 60.2223 6.004 61.0703 6.004C61.5823 6.004 61.9783 6.04 62.2583 6.112C62.5383 6.184 62.7143 6.24 62.7863 6.28L62.1503 10.06C62.0783 10.02 61.9183 9.96 61.6703 9.88C61.4223 9.792 61.1143 9.748 60.7463 9.748C59.8983 9.748 59.2263 9.924 58.7303 10.276C58.2423 10.628 57.8903 11.08 57.6743 11.632C57.4663 12.176 57.3623 12.732 57.3623 13.3V19H53.0783ZM81.8786 12.424C81.8786 13.208 81.7266 14.004 81.4226 14.812C81.1266 15.62 80.6746 16.364 80.0666 17.044C79.4586 17.716 78.6866 18.26 77.7506 18.676C76.8146 19.092 75.7146 19.3 74.4506 19.3C72.7546 19.3 71.3066 18.912 70.1066 18.136C68.9146 17.352 68.0026 16.272 67.3706 14.896C66.7386 13.52 66.4226 11.936 66.4226 10.144C66.4226 8.352 66.7386 6.772 67.3706 5.404C68.0026 4.028 68.9146 2.952 70.1066 2.176C71.3066 1.4 72.7546 1.012 74.4506 1.012C75.8506 1.012 77.0466 1.26 78.0386 1.756C79.0306 2.252 79.8266 2.896 80.4266 3.688C81.0266 4.48 81.4386 5.32 81.6626 6.208C81.8066 6.784 81.8786 7.34 81.8786 7.876H77.5826C77.5826 7.628 77.5666 7.4 77.5346 7.192C77.4146 6.368 77.0866 5.696 76.5506 5.176C76.0226 4.648 75.3226 4.384 74.4506 4.384C73.4026 4.384 72.5266 4.844 71.8226 5.764C71.1266 6.684 70.7786 8.144 70.7786 10.144C70.7786 12.152 71.1266 13.62 71.8226 14.548C72.5266 15.476 73.4026 15.94 74.4506 15.94C75.1066 15.94 75.6666 15.78 76.1306 15.46C76.6026 15.14 76.9626 14.716 77.2106 14.188C77.4586 13.652 77.5826 13.064 77.5826 12.424H81.8786ZM92.8881 19.288C91.4801 19.288 90.2401 19.008 89.1681 18.448C88.1041 17.88 87.2681 17.096 86.6601 16.096C86.0601 15.096 85.7601 13.944 85.7601 12.64C85.7601 11.328 86.0601 10.176 86.6601 9.184C87.2681 8.184 88.1041 7.404 89.1681 6.844C90.2401 6.284 91.4801 6.004 92.8881 6.004C94.2961 6.004 95.5321 6.284 96.5961 6.844C97.6681 7.404 98.5041 8.184 99.1041 9.184C99.7121 10.176 100.016 11.328 100.016 12.64C100.016 13.944 99.7121 15.096 99.1041 16.096C98.5041 17.096 97.6681 17.88 96.5961 18.448C95.5321 19.008 94.2961 19.288 92.8881 19.288ZM92.8881 15.988C93.7441 15.988 94.4201 15.684 94.9161 15.076C95.4201 14.468 95.6721 13.656 95.6721 12.64C95.6721 11.624 95.4201 10.816 94.9161 10.216C94.4201 9.616 93.7441 9.316 92.8881 9.316C92.0321 9.316 91.3521 9.616 90.8481 10.216C90.3521 10.816 90.1041 11.624 90.1041 12.64C90.1041 13.656 90.3521 14.468 90.8481 15.076C91.3521 15.684 92.0321 15.988 92.8881 15.988ZM108.796 19.252C107.892 19.252 107.148 19.108 106.564 18.82C105.988 18.532 105.536 18.144 105.208 17.656C104.88 17.16 104.652 16.608 104.524 16C104.396 15.384 104.332 14.748 104.332 14.092V6.256H108.604V12.952C108.604 13.44 108.652 13.892 108.748 14.308C108.852 14.724 109.044 15.06 109.324 15.316C109.604 15.564 110.012 15.688 110.548 15.688C111.076 15.688 111.52 15.54 111.88 15.244C112.248 14.94 112.524 14.556 112.708 14.092C112.9 13.62 112.996 13.128 112.996 12.616V6.256H117.268V19H112.996V17.164C112.548 17.812 111.968 18.324 111.256 18.7C110.544 19.068 109.724 19.252 108.796 19.252ZM128.621 19.3C127.157 19.3 125.885 19.016 124.805 18.448C123.733 17.872 122.905 17.08 122.321 16.072C121.737 15.056 121.445 13.892 121.445 12.58C121.445 11.268 121.737 10.12 122.321 9.136C122.905 8.144 123.733 7.376 124.805 6.832C125.885 6.28 127.157 6.004 128.621 6.004C129.709 6.004 130.665 6.16 131.489 6.472C132.321 6.784 133.017 7.2 133.577 7.72C134.145 8.232 134.569 8.796 134.849 9.412C135.137 10.02 135.281 10.624 135.281 11.224V11.332H131.045C131.045 11.26 131.033 11.172 131.009 11.068C130.913 10.66 130.685 10.276 130.325 9.916C129.965 9.548 129.385 9.364 128.585 9.364C127.761 9.364 127.089 9.644 126.569 10.204C126.049 10.756 125.789 11.548 125.789 12.58C125.789 13.596 126.049 14.412 126.569 15.028C127.089 15.636 127.761 15.94 128.585 15.94C129.417 15.94 130.017 15.756 130.385 15.388C130.761 15.012 130.977 14.552 131.033 14.008H135.281C135.281 14.616 135.137 15.232 134.849 15.856C134.569 16.472 134.149 17.04 133.589 17.56C133.029 18.08 132.333 18.5 131.501 18.82C130.677 19.14 129.717 19.3 128.621 19.3ZM139.595 19V0.243999H143.867V8.068C144.331 7.42 144.931 6.916 145.667 6.556C146.411 6.188 147.251 6.004 148.187 6.004C149.755 6.004 150.911 6.464 151.655 7.384C152.407 8.296 152.783 9.568 152.783 11.2V19H148.511V12.436C148.511 11.54 148.363 10.844 148.067 10.348C147.771 9.844 147.191 9.592 146.327 9.592C145.479 9.592 144.855 9.844 144.455 10.348C144.063 10.844 143.867 11.52 143.867 12.376V19H139.595ZM159.906 19.372C159.306 19.372 158.794 19.16 158.37 18.736C157.954 18.312 157.746 17.8 157.746 17.2C157.746 16.608 157.954 16.1 158.37 15.676C158.794 15.252 159.306 15.04 159.906 15.04C160.506 15.04 161.014 15.252 161.43 15.676C161.854 16.1 162.066 16.608 162.066 17.2C162.066 17.8 161.854 18.312 161.43 18.736C161.014 19.16 160.506 19.372 159.906 19.372ZM171.42 19.276C170.036 19.276 168.892 18.952 167.988 18.304C167.084 17.648 166.632 16.72 166.632 15.52C166.632 14.6 166.892 13.852 167.412 13.276C167.932 12.7 168.608 12.264 169.44 11.968C170.272 11.672 171.152 11.48 172.08 11.392C173.424 11.264 174.34 11.152 174.828 11.056C175.324 10.952 175.572 10.776 175.572 10.528V10.504C175.572 10.12 175.368 9.808 174.96 9.568C174.56 9.328 174.008 9.208 173.304 9.208C171.8 9.208 171.048 9.748 171.048 10.828H166.824C166.824 9.78 167.112 8.9 167.688 8.188C168.272 7.468 169.056 6.924 170.04 6.556C171.024 6.188 172.124 6.004 173.34 6.004C174.484 6.004 175.552 6.176 176.544 6.52C177.536 6.864 178.336 7.388 178.944 8.092C179.56 8.796 179.868 9.692 179.868 10.78V16.012C179.868 16.356 179.876 16.688 179.892 17.008C179.908 17.32 179.952 17.604 180.024 17.86C180.112 18.148 180.22 18.392 180.348 18.592C180.484 18.792 180.592 18.928 180.672 19H176.484C176.42 18.936 176.324 18.812 176.196 18.628C176.068 18.444 175.964 18.232 175.884 17.992C175.844 17.888 175.812 17.784 175.788 17.68C175.3 18.192 174.668 18.588 173.892 18.868C173.124 19.14 172.3 19.276 171.42 19.276ZM172.644 16.168C173.108 16.168 173.556 16.084 173.988 15.916C174.42 15.74 174.784 15.46 175.08 15.076C175.384 14.692 175.564 14.18 175.62 13.54C175.204 13.644 174.764 13.732 174.3 13.804C173.844 13.876 173.396 13.932 172.956 13.972C172.276 14.044 171.768 14.16 171.432 14.32C171.096 14.48 170.928 14.744 170.928 15.112C170.928 15.816 171.5 16.168 172.644 16.168ZM184.639 24.244V6.256H188.923V7.672C189.419 7.152 189.995 6.744 190.651 6.448C191.315 6.152 192.023 6.004 192.775 6.004C193.799 6.004 194.767 6.26 195.679 6.772C196.591 7.276 197.327 8.016 197.887 8.992C198.455 9.96 198.739 11.148 198.739 12.556C198.739 14.036 198.463 15.276 197.911 16.276C197.359 17.276 196.631 18.032 195.727 18.544C194.823 19.048 193.839 19.3 192.775 19.3C192.023 19.3 191.315 19.144 190.651 18.832C189.995 18.52 189.419 18.088 188.923 17.536V24.244H184.639ZM188.923 12.964C188.923 13.532 189.051 14.016 189.307 14.416C189.571 14.816 189.907 15.124 190.315 15.34C190.731 15.548 191.159 15.652 191.599 15.652C192.311 15.652 192.943 15.404 193.495 14.908C194.047 14.412 194.323 13.628 194.323 12.556C194.323 11.484 194.047 10.712 193.495 10.24C192.951 9.76 192.319 9.52 191.599 9.52C191.167 9.52 190.743 9.624 190.327 9.832C189.919 10.032 189.583 10.328 189.319 10.72C189.055 11.104 188.923 11.58 188.923 12.148V12.82V12.964ZM203.067 24.244V6.256H207.351V7.672C207.847 7.152 208.423 6.744 209.079 6.448C209.743 6.152 210.451 6.004 211.203 6.004C212.227 6.004 213.195 6.26 214.107 6.772C215.019 7.276 215.755 8.016 216.315 8.992C216.883 9.96 217.167 11.148 217.167 12.556C217.167 14.036 216.891 15.276 216.339 16.276C215.787 17.276 215.059 18.032 214.155 18.544C213.251 19.048 212.267 19.3 211.203 19.3C210.451 19.3 209.743 19.144 209.079 18.832C208.423 18.52 207.847 18.088 207.351 17.536V24.244H203.067ZM207.351 12.964C207.351 13.532 207.479 14.016 207.735 14.416C207.999 14.816 208.335 15.124 208.743 15.34C209.159 15.548 209.587 15.652 210.027 15.652C210.739 15.652 211.371 15.404 211.923 14.908C212.475 14.412 212.751 13.628 212.751 12.556C212.751 11.484 212.475 10.712 211.923 10.24C211.379 9.76 210.747 9.52 210.027 9.52C209.595 9.52 209.171 9.624 208.755 9.832C208.347 10.032 208.011 10.328 207.747 10.72C207.483 11.104 207.351 11.58 207.351 12.148V12.82V12.964Z" fill="#FF7A00"/>
</svg>
