<svg width="666" height="514" viewBox="0 0 666 514" fill="none" xmlns="http://www.w3.org/2000/svg">
<rect opacity="0.1" x="317" y="92" width="349" height="255" rx="20" fill="#3893FF"/>
<rect opacity="0.1" x="153" y="226" width="282" height="169" rx="20" fill="#38B28C"/>
<g filter="url(#filter0_d_102:536)">
<rect x="511" y="171" width="71" height="69" rx="16" fill="white" fill-opacity="0.5"/>
</g>
<g filter="url(#filter1_d_102:536)">
<rect x="520" y="180" width="53" height="51" rx="16" fill="white"/>
</g>
<path d="M548.5 208.625C548.5 208.977 548.188 209.25 547.875 209.25H544.125C543.773 209.25 543.5 208.977 543.5 208.625V206.75H536V212.375C536 213.391 536.859 214.25 537.875 214.25H554.125C555.102 214.25 556 213.391 556 212.375V206.75H548.5V208.625ZM554.125 200.5H551V198.625C551 197.648 550.102 196.75 549.125 196.75H542.875C541.859 196.75 541 197.648 541 198.625V200.5H537.875C536.859 200.5 536 201.398 536 202.375V205.5H556V202.375C556 201.398 555.102 200.5 554.125 200.5ZM548.5 200.5H543.5V199.25H548.5V200.5Z" fill="#4B8AE8"/>
<g filter="url(#filter2_d_102:536)">
<rect x="260" y="347" width="175" height="74" rx="8" fill="white"/>
</g>
<path d="M260 355C260 350.582 263.582 347 268 347H427C431.418 347 435 350.582 435 355V376H260V355Z" fill="#3893FF"/>
<path d="M284.25 358H279.75C277.266 358 275.25 360.016 275.25 362.5C275.25 364.984 277.266 367 279.75 367H284.25C286.734 367 288.75 364.984 288.75 362.5C288.75 360.016 286.734 358 284.25 358ZM284.25 365.875C282.375 365.875 280.875 364.375 280.875 362.5C280.875 360.648 282.375 359.125 284.25 359.125C286.102 359.125 287.625 360.648 287.625 362.5C287.625 364.375 286.102 365.875 284.25 365.875Z" fill="white"/>
<path d="M300.435 361.43H300.127C300.109 361.015 299.955 360.697 299.665 360.478C299.381 360.259 299 360.149 298.524 360.149C298.37 360.149 298.219 360.168 298.069 360.205C297.92 360.238 297.773 360.294 297.628 360.373C297.488 360.448 297.374 360.557 297.285 360.702C297.197 360.847 297.152 361.017 297.152 361.213C297.152 361.362 297.185 361.495 297.25 361.612C297.32 361.724 297.388 361.813 297.453 361.878C297.523 361.943 297.652 362.009 297.838 362.074C298.03 362.135 298.163 362.174 298.237 362.193C298.317 362.212 298.48 362.247 298.727 362.298C298.783 362.312 298.825 362.321 298.853 362.326C299.063 362.368 299.234 362.408 299.364 362.445C299.495 362.478 299.644 362.531 299.812 362.606C299.985 362.676 300.118 362.755 300.211 362.844C300.309 362.933 300.391 363.052 300.456 363.201C300.526 363.35 300.561 363.521 300.561 363.712C300.561 363.959 300.505 364.179 300.393 364.37C300.286 364.557 300.144 364.704 299.966 364.811C299.789 364.914 299.602 364.991 299.406 365.042C299.21 365.093 299.01 365.119 298.804 365.119C298.17 365.119 297.659 364.977 297.271 364.692C296.884 364.403 296.693 363.955 296.697 363.348H297.005C296.977 363.861 297.134 364.242 297.474 364.489C297.82 364.732 298.263 364.853 298.804 364.853C299.028 364.853 299.243 364.82 299.448 364.755C299.658 364.69 299.845 364.568 300.008 364.391C300.172 364.209 300.253 363.983 300.253 363.712C300.253 363.553 300.221 363.413 300.155 363.292C300.095 363.171 300.018 363.073 299.924 362.998C299.831 362.923 299.707 362.858 299.553 362.802C299.399 362.741 299.255 362.695 299.119 362.662C298.984 362.629 298.818 362.594 298.622 362.557C298.59 362.552 298.564 362.548 298.545 362.543C298.368 362.506 298.226 362.475 298.118 362.452C298.011 362.424 297.883 362.387 297.733 362.34C297.584 362.289 297.463 362.233 297.369 362.172C297.281 362.107 297.192 362.032 297.103 361.948C297.015 361.859 296.949 361.754 296.907 361.633C296.865 361.507 296.844 361.367 296.844 361.213C296.844 360.77 297.012 360.438 297.348 360.219C297.684 359.995 298.076 359.883 298.524 359.883C299.08 359.883 299.53 360.011 299.875 360.268C300.225 360.52 300.412 360.907 300.435 361.43ZM301.106 361.402L302.121 364.692H302.135L303.115 361.402H303.472L304.459 364.692H304.473L305.481 361.402H305.775L304.62 365H304.291L303.304 361.738H303.29L302.296 365H301.96L300.819 361.402H301.106ZM306.483 365H306.217V361.402H306.483V365ZM306.483 360.723H306.217V360.002H306.483V360.723ZM307.659 365H307.393V361.402H307.659V365ZM307.659 360.723H307.393V360.002H307.659V360.723ZM309.829 361.402V361.633H309.045V364.146C309.045 364.417 309.103 364.592 309.22 364.671C309.341 364.746 309.542 364.778 309.822 364.769V365C309.668 365.009 309.535 365.007 309.423 364.993C309.311 364.979 309.199 364.946 309.087 364.895C308.979 364.839 308.9 364.75 308.849 364.629C308.797 364.503 308.774 364.342 308.779 364.146V361.633H308.114V361.402H308.779V360.282H309.045V361.402H309.829ZM313.292 362.515H313.026C313.003 362.207 312.877 361.969 312.648 361.801C312.424 361.633 312.144 361.549 311.808 361.549C311.379 361.549 311.041 361.71 310.793 362.032C310.546 362.349 310.422 362.727 310.422 363.166C310.422 363.675 310.541 364.083 310.779 364.391C311.017 364.699 311.36 364.853 311.808 364.853C312.14 364.853 312.42 364.75 312.648 364.545C312.877 364.335 313.015 364.064 313.061 363.733H313.327C313.271 364.153 313.103 364.484 312.823 364.727C312.543 364.965 312.205 365.084 311.808 365.084C311.258 365.084 310.845 364.902 310.569 364.538C310.294 364.169 310.156 363.712 310.156 363.166C310.156 362.643 310.303 362.205 310.597 361.85C310.891 361.495 311.295 361.318 311.808 361.318C312.219 361.318 312.56 361.421 312.83 361.626C313.101 361.827 313.255 362.123 313.292 362.515ZM313.947 360.002H314.213V362.172H314.227C314.316 361.911 314.479 361.703 314.717 361.549C314.96 361.395 315.226 361.318 315.515 361.318C315.716 361.318 315.893 361.344 316.047 361.395C316.201 361.442 316.323 361.512 316.411 361.605C316.5 361.694 316.572 361.785 316.628 361.878C316.684 361.967 316.724 362.076 316.747 362.207C316.771 362.338 316.785 362.44 316.789 362.515C316.794 362.585 316.796 362.671 316.796 362.774V365H316.53V362.725C316.53 361.941 316.19 361.549 315.508 361.549C315.112 361.549 314.797 361.689 314.563 361.969C314.33 362.244 314.213 362.606 314.213 363.054V365H313.947V360.002ZM320.596 364.979L319.091 361.402H319.406L320.743 364.685L321.975 361.402H322.276L320.736 365.385C320.564 365.796 320.424 366.043 320.316 366.127C320.228 366.197 320.123 366.241 320.001 366.26C319.88 366.279 319.705 366.288 319.476 366.288V366.057C319.668 366.057 319.817 366.041 319.924 366.008C320.036 365.975 320.137 365.915 320.225 365.826C320.3 365.751 320.424 365.469 320.596 364.979ZM322.909 364.545C322.615 364.181 322.468 363.733 322.468 363.201C322.468 362.669 322.615 362.223 322.909 361.864C323.207 361.5 323.611 361.318 324.12 361.318C324.628 361.318 325.03 361.5 325.324 361.864C325.622 362.223 325.772 362.669 325.772 363.201C325.772 363.733 325.622 364.181 325.324 364.545C325.03 364.904 324.628 365.084 324.12 365.084C323.611 365.084 323.207 364.904 322.909 364.545ZM323.105 362.032C322.857 362.354 322.734 362.744 322.734 363.201C322.734 363.658 322.857 364.048 323.105 364.37C323.352 364.692 323.69 364.853 324.12 364.853C324.549 364.853 324.887 364.692 325.135 364.37C325.382 364.048 325.506 363.658 325.506 363.201C325.506 362.744 325.382 362.354 325.135 362.032C324.887 361.71 324.549 361.549 324.12 361.549C323.69 361.549 323.352 361.71 323.105 362.032ZM329.244 361.402V365H328.978V364.23H328.964C328.876 364.491 328.71 364.699 328.467 364.853C328.229 365.007 327.966 365.084 327.676 365.084C327.476 365.084 327.298 365.058 327.144 365.007C326.99 364.96 326.869 364.893 326.78 364.804C326.692 364.711 326.619 364.62 326.563 364.531C326.507 364.438 326.468 364.326 326.444 364.195C326.421 364.064 326.407 363.964 326.402 363.894C326.398 363.819 326.395 363.731 326.395 363.628V361.402H326.661V363.677C326.661 364.461 327.002 364.853 327.683 364.853C328.08 364.853 328.395 364.715 328.628 364.44C328.862 364.16 328.978 363.796 328.978 363.348V361.402H329.244ZM330.291 361.402V362.2H330.312C330.382 361.962 330.548 361.764 330.809 361.605C331.075 361.442 331.369 361.367 331.691 361.381V361.647C331.313 361.6 330.982 361.717 330.697 361.997C330.557 362.142 330.457 362.286 330.396 362.431C330.34 362.571 330.305 362.772 330.291 363.033V365H330.025V361.402H330.291ZM336.932 363.236H334.027C334.017 363.689 334.129 364.071 334.363 364.384C334.596 364.697 334.925 364.853 335.35 364.853C335.69 364.853 335.973 364.757 336.197 364.566C336.425 364.375 336.572 364.113 336.638 363.782H336.904C336.834 364.202 336.663 364.524 336.393 364.748C336.127 364.972 335.779 365.084 335.35 365.084C334.846 365.084 334.451 364.911 334.167 364.566C333.887 364.221 333.751 363.787 333.761 363.264C333.751 362.732 333.884 362.275 334.16 361.892C334.44 361.509 334.836 361.318 335.35 361.318C335.886 361.318 336.29 361.502 336.561 361.871C336.836 362.235 336.96 362.69 336.932 363.236ZM334.027 363.005H336.666C336.656 362.604 336.533 362.261 336.295 361.976C336.061 361.691 335.746 361.549 335.35 361.549C334.972 361.549 334.664 361.696 334.426 361.99C334.192 362.279 334.059 362.618 334.027 363.005ZM337.552 365V361.402H337.818V362.172H337.832C337.92 361.911 338.084 361.703 338.322 361.549C338.564 361.395 338.83 361.318 339.12 361.318C339.32 361.318 339.498 361.344 339.652 361.395C339.806 361.442 339.927 361.512 340.016 361.605C340.104 361.694 340.177 361.785 340.233 361.878C340.289 361.967 340.328 362.076 340.352 362.207C340.375 362.338 340.389 362.44 340.394 362.515C340.398 362.585 340.401 362.671 340.401 362.774V365H340.135V362.725C340.135 361.941 339.794 361.549 339.113 361.549C338.716 361.549 338.401 361.689 338.168 361.969C337.934 362.244 337.818 362.606 337.818 363.054V365H337.552ZM344.192 363.236H341.287C341.277 363.689 341.389 364.071 341.623 364.384C341.856 364.697 342.185 364.853 342.61 364.853C342.95 364.853 343.233 364.757 343.457 364.566C343.685 364.375 343.832 364.113 343.898 363.782H344.164C344.094 364.202 343.923 364.524 343.653 364.748C343.387 364.972 343.039 365.084 342.61 365.084C342.106 365.084 341.711 364.911 341.427 364.566C341.147 364.221 341.011 363.787 341.021 363.264C341.011 362.732 341.144 362.275 341.42 361.892C341.7 361.509 342.096 361.318 342.61 361.318C343.146 361.318 343.55 361.502 343.821 361.871C344.096 362.235 344.22 362.69 344.192 363.236ZM341.287 363.005H343.926C343.916 362.604 343.793 362.261 343.555 361.976C343.321 361.691 343.006 361.549 342.61 361.549C342.232 361.549 341.924 361.696 341.686 361.99C341.452 362.279 341.319 362.618 341.287 363.005ZM345.077 361.402V362.2H345.098C345.168 361.962 345.334 361.764 345.595 361.605C345.861 361.442 346.155 361.367 346.477 361.381V361.647C346.099 361.6 345.768 361.717 345.483 361.997C345.343 362.142 345.243 362.286 345.182 362.431C345.126 362.571 345.091 362.772 345.077 363.033V365H344.811V361.402H345.077ZM348.153 361.549C347.742 361.549 347.425 361.703 347.201 362.011C346.977 362.314 346.865 362.674 346.865 363.089C346.865 363.532 346.977 363.901 347.201 364.195C347.429 364.489 347.747 364.636 348.153 364.636C348.568 364.636 348.89 364.487 349.119 364.188C349.347 363.889 349.462 363.523 349.462 363.089C349.462 362.655 349.347 362.291 349.119 361.997C348.895 361.698 348.573 361.549 348.153 361.549ZM349.469 361.402H349.735V364.811C349.735 364.876 349.732 364.937 349.728 364.993C349.728 365.044 349.716 365.128 349.693 365.245C349.674 365.366 349.646 365.471 349.609 365.56C349.576 365.653 349.52 365.754 349.441 365.861C349.366 365.973 349.275 366.064 349.168 366.134C349.065 366.209 348.927 366.267 348.755 366.309C348.587 366.356 348.395 366.377 348.181 366.372C347.28 366.372 346.811 365.999 346.774 365.252H347.04C347.068 365.555 347.187 365.779 347.397 365.924C347.607 366.069 347.87 366.141 348.188 366.141C348.426 366.141 348.631 366.101 348.804 366.022C348.976 365.947 349.102 365.861 349.182 365.763C349.266 365.67 349.331 365.553 349.378 365.413C349.424 365.278 349.45 365.173 349.455 365.098C349.464 365.028 349.469 364.953 349.469 364.874V364.048H349.455C349.198 364.594 348.764 364.867 348.153 364.867C347.644 364.867 347.257 364.704 346.991 364.377C346.729 364.046 346.599 363.616 346.599 363.089C346.599 362.59 346.736 362.17 347.012 361.829C347.287 361.488 347.667 361.318 348.153 361.318C348.442 361.318 348.708 361.393 348.951 361.542C349.193 361.687 349.361 361.89 349.455 362.151H349.469V361.402ZM351.59 364.979L350.085 361.402H350.4L351.737 364.685L352.969 361.402H353.27L351.73 365.385C351.558 365.796 351.418 366.043 351.31 366.127C351.222 366.197 351.117 366.241 350.995 366.26C350.874 366.279 350.699 366.288 350.47 366.288V366.057C350.662 366.057 350.811 366.041 350.918 366.008C351.03 365.975 351.131 365.915 351.219 365.826C351.294 365.751 351.418 365.469 351.59 364.979ZM355.851 364.545C355.557 364.181 355.41 363.733 355.41 363.201C355.41 362.669 355.557 362.223 355.851 361.864C356.15 361.5 356.553 361.318 357.062 361.318C357.571 361.318 357.972 361.5 358.266 361.864C358.565 362.223 358.714 362.669 358.714 363.201C358.714 363.733 358.565 364.181 358.266 364.545C357.972 364.904 357.571 365.084 357.062 365.084C356.553 365.084 356.15 364.904 355.851 364.545ZM356.047 362.032C355.8 362.354 355.676 362.744 355.676 363.201C355.676 363.658 355.8 364.048 356.047 364.37C356.294 364.692 356.633 364.853 357.062 364.853C357.491 364.853 357.83 364.692 358.077 364.37C358.324 364.048 358.448 363.658 358.448 363.201C358.448 362.744 358.324 362.354 358.077 362.032C357.83 361.71 357.491 361.549 357.062 361.549C356.633 361.549 356.294 361.71 356.047 362.032ZM359.338 365V361.402H359.604V362.172H359.618C359.706 361.911 359.87 361.703 360.108 361.549C360.35 361.395 360.616 361.318 360.906 361.318C361.106 361.318 361.284 361.344 361.438 361.395C361.592 361.442 361.713 361.512 361.802 361.605C361.89 361.694 361.963 361.785 362.019 361.878C362.075 361.967 362.114 362.076 362.138 362.207C362.161 362.338 362.175 362.44 362.18 362.515C362.184 362.585 362.187 362.671 362.187 362.774V365H361.921V362.725C361.921 361.941 361.58 361.549 360.899 361.549C360.502 361.549 360.187 361.689 359.954 361.969C359.72 362.244 359.604 362.606 359.604 363.054V365H359.338Z" fill="white"/>
<path d="M303.624 387.288V393H304.384V390.384H307.008V389.744H304.384V387.928H307.376V387.288H303.624ZM308.082 388.864V393H308.762V391.16C308.762 390.893 308.788 390.659 308.842 390.456C308.895 390.248 308.98 390.072 309.098 389.928C309.215 389.784 309.37 389.675 309.562 389.6C309.754 389.525 309.986 389.488 310.258 389.488V388.768C309.89 388.757 309.586 388.832 309.346 388.992C309.106 389.152 308.903 389.4 308.738 389.736H308.722V388.864H308.082ZM314.434 392.984C314.316 393.053 314.154 393.088 313.946 393.088C313.77 393.088 313.628 393.04 313.522 392.944C313.42 392.843 313.37 392.68 313.37 392.456C313.183 392.68 312.964 392.843 312.714 392.944C312.468 393.04 312.202 393.088 311.914 393.088C311.727 393.088 311.548 393.067 311.378 393.024C311.212 392.981 311.068 392.915 310.946 392.824C310.823 392.733 310.724 392.616 310.65 392.472C310.58 392.323 310.546 392.144 310.546 391.936C310.546 391.701 310.586 391.509 310.666 391.36C310.746 391.211 310.85 391.091 310.978 391C311.111 390.904 311.26 390.832 311.426 390.784C311.596 390.736 311.77 390.696 311.946 390.664C312.132 390.627 312.308 390.6 312.474 390.584C312.644 390.563 312.794 390.536 312.922 390.504C313.05 390.467 313.151 390.416 313.226 390.352C313.3 390.283 313.338 390.184 313.338 390.056C313.338 389.907 313.308 389.787 313.25 389.696C313.196 389.605 313.124 389.536 313.034 389.488C312.948 389.44 312.85 389.408 312.738 389.392C312.631 389.376 312.524 389.368 312.418 389.368C312.13 389.368 311.89 389.424 311.698 389.536C311.506 389.643 311.402 389.848 311.386 390.152H310.706C310.716 389.896 310.77 389.68 310.866 389.504C310.962 389.328 311.09 389.187 311.25 389.08C311.41 388.968 311.591 388.888 311.794 388.84C312.002 388.792 312.223 388.768 312.458 388.768C312.644 388.768 312.828 388.781 313.01 388.808C313.196 388.835 313.364 388.891 313.514 388.976C313.663 389.056 313.783 389.171 313.874 389.32C313.964 389.469 314.01 389.664 314.01 389.904V392.032C314.01 392.192 314.018 392.309 314.034 392.384C314.055 392.459 314.119 392.496 314.226 392.496C314.284 392.496 314.354 392.483 314.434 392.456V392.984ZM313.33 390.864C313.244 390.928 313.132 390.976 312.994 391.008C312.855 391.035 312.708 391.059 312.554 391.08C312.404 391.096 312.252 391.117 312.098 391.144C311.943 391.165 311.804 391.203 311.682 391.256C311.559 391.309 311.458 391.387 311.378 391.488C311.303 391.584 311.266 391.717 311.266 391.888C311.266 392 311.287 392.096 311.33 392.176C311.378 392.251 311.436 392.312 311.506 392.36C311.58 392.408 311.666 392.443 311.762 392.464C311.858 392.485 311.959 392.496 312.066 392.496C312.29 392.496 312.482 392.467 312.642 392.408C312.802 392.344 312.932 392.267 313.034 392.176C313.135 392.08 313.21 391.979 313.258 391.872C313.306 391.76 313.33 391.656 313.33 391.56V390.864ZM315.067 388.864V393H315.747V390.664C315.747 390.477 315.771 390.307 315.819 390.152C315.872 389.992 315.949 389.853 316.051 389.736C316.152 389.619 316.277 389.528 316.427 389.464C316.581 389.4 316.763 389.368 316.971 389.368C317.232 389.368 317.437 389.443 317.587 389.592C317.736 389.741 317.811 389.944 317.811 390.2V393H318.491V390.28C318.491 390.056 318.467 389.853 318.419 389.672C318.376 389.485 318.299 389.325 318.187 389.192C318.075 389.059 317.928 388.955 317.747 388.88C317.565 388.805 317.339 388.768 317.067 388.768C316.453 388.768 316.005 389.019 315.723 389.52H315.707V388.864H315.067ZM320.456 388.864V387.624H319.776V388.864H319.072V389.464H319.776V392.096C319.776 392.288 319.795 392.443 319.832 392.56C319.869 392.677 319.925 392.768 320 392.832C320.08 392.896 320.181 392.941 320.304 392.968C320.432 392.989 320.584 393 320.76 393H321.28V392.4H320.968C320.861 392.4 320.773 392.397 320.704 392.392C320.64 392.381 320.589 392.363 320.552 392.336C320.515 392.309 320.488 392.272 320.472 392.224C320.461 392.176 320.456 392.112 320.456 392.032V389.464H321.28V388.864H320.456ZM322.755 388.12V387.288H322.075V388.12H322.755ZM322.075 388.864V393H322.755V388.864H322.075ZM325.673 388.296L326.497 387.152H325.881L325.321 387.92L324.769 387.152H324.097L324.929 388.296H325.673ZM324.225 391.696H323.545C323.556 391.952 323.609 392.171 323.705 392.352C323.801 392.528 323.929 392.672 324.089 392.784C324.249 392.891 324.433 392.968 324.641 393.016C324.849 393.064 325.068 393.088 325.297 393.088C325.505 393.088 325.713 393.067 325.921 393.024C326.134 392.987 326.324 392.917 326.489 392.816C326.66 392.715 326.796 392.581 326.897 392.416C327.004 392.251 327.057 392.043 327.057 391.792C327.057 391.595 327.017 391.429 326.937 391.296C326.862 391.163 326.761 391.053 326.633 390.968C326.51 390.877 326.366 390.805 326.201 390.752C326.041 390.699 325.876 390.653 325.705 390.616C325.545 390.579 325.385 390.544 325.225 390.512C325.065 390.475 324.921 390.432 324.793 390.384C324.665 390.331 324.558 390.267 324.473 390.192C324.393 390.112 324.353 390.013 324.353 389.896C324.353 389.789 324.38 389.704 324.433 389.64C324.486 389.571 324.556 389.517 324.641 389.48C324.726 389.437 324.82 389.408 324.921 389.392C325.028 389.376 325.132 389.368 325.233 389.368C325.345 389.368 325.454 389.381 325.561 389.408C325.673 389.429 325.774 389.467 325.865 389.52C325.956 389.573 326.03 389.645 326.089 389.736C326.148 389.821 326.182 389.931 326.193 390.064H326.873C326.857 389.813 326.804 389.605 326.713 389.44C326.622 389.269 326.5 389.136 326.345 389.04C326.196 388.939 326.022 388.869 325.825 388.832C325.628 388.789 325.412 388.768 325.177 388.768C324.996 388.768 324.812 388.792 324.625 388.84C324.444 388.883 324.278 388.952 324.129 389.048C323.985 389.139 323.865 389.259 323.769 389.408C323.678 389.557 323.633 389.736 323.633 389.944C323.633 390.211 323.7 390.419 323.833 390.568C323.966 390.717 324.132 390.835 324.329 390.92C324.532 391 324.75 391.064 324.985 391.112C325.22 391.155 325.436 391.205 325.633 391.264C325.836 391.317 326.004 391.389 326.137 391.48C326.27 391.571 326.337 391.704 326.337 391.88C326.337 392.008 326.305 392.115 326.241 392.2C326.177 392.28 326.094 392.341 325.993 392.384C325.897 392.427 325.79 392.456 325.673 392.472C325.556 392.488 325.444 392.496 325.337 392.496C325.198 392.496 325.062 392.483 324.929 392.456C324.801 392.429 324.684 392.387 324.577 392.328C324.476 392.264 324.393 392.181 324.329 392.08C324.265 391.973 324.23 391.845 324.225 391.696ZM330.681 390.536H328.305C328.316 390.376 328.35 390.227 328.409 390.088C328.468 389.944 328.548 389.819 328.649 389.712C328.75 389.605 328.87 389.523 329.009 389.464C329.153 389.4 329.313 389.368 329.489 389.368C329.66 389.368 329.814 389.4 329.953 389.464C330.097 389.523 330.22 389.605 330.321 389.712C330.428 389.813 330.51 389.936 330.569 390.08C330.633 390.224 330.67 390.376 330.681 390.536ZM331.337 391.688H330.665C330.606 391.96 330.484 392.163 330.297 392.296C330.116 392.429 329.881 392.496 329.593 392.496C329.369 392.496 329.174 392.459 329.009 392.384C328.844 392.309 328.708 392.211 328.601 392.088C328.494 391.96 328.417 391.816 328.369 391.656C328.321 391.491 328.3 391.317 328.305 391.136H331.401C331.412 390.885 331.388 390.621 331.329 390.344C331.276 390.067 331.174 389.811 331.025 389.576C330.881 389.341 330.686 389.149 330.441 389C330.201 388.845 329.897 388.768 329.529 388.768C329.246 388.768 328.985 388.821 328.745 388.928C328.51 389.035 328.305 389.184 328.129 389.376C327.958 389.568 327.825 389.795 327.729 390.056C327.633 390.317 327.585 390.605 327.585 390.92C327.596 391.235 327.641 391.525 327.721 391.792C327.806 392.059 327.932 392.288 328.097 392.48C328.262 392.672 328.465 392.821 328.705 392.928C328.95 393.035 329.238 393.088 329.569 393.088C330.038 393.088 330.428 392.971 330.737 392.736C331.046 392.501 331.246 392.152 331.337 391.688ZM332.146 387.288V393H332.826V391.432L333.466 390.84L334.882 393H335.746L333.986 390.368L335.626 388.864H334.714L332.826 390.672V387.288H332.146ZM339.353 392.36V387.928H340.633C340.985 387.928 341.281 387.979 341.521 388.08C341.761 388.176 341.955 388.32 342.105 388.512C342.259 388.699 342.369 388.928 342.433 389.2C342.502 389.467 342.537 389.771 342.537 390.112C342.537 390.464 342.499 390.765 342.425 391.016C342.355 391.261 342.265 391.467 342.153 391.632C342.041 391.797 341.913 391.928 341.769 392.024C341.63 392.12 341.489 392.195 341.345 392.248C341.201 392.296 341.065 392.328 340.937 392.344C340.809 392.355 340.702 392.36 340.617 392.36H339.353ZM338.593 387.288V393H340.553C341.027 393 341.438 392.933 341.785 392.8C342.131 392.667 342.417 392.475 342.641 392.224C342.865 391.968 343.03 391.656 343.137 391.288C343.243 390.915 343.297 390.488 343.297 390.008C343.297 389.091 343.059 388.408 342.585 387.96C342.11 387.512 341.433 387.288 340.553 387.288H338.593ZM344.61 390.936C344.61 390.685 344.642 390.464 344.706 390.272C344.775 390.075 344.868 389.909 344.986 389.776C345.103 389.643 345.239 389.541 345.394 389.472C345.554 389.403 345.722 389.368 345.898 389.368C346.074 389.368 346.239 389.403 346.394 389.472C346.554 389.541 346.692 389.643 346.81 389.776C346.927 389.909 347.018 390.075 347.082 390.272C347.151 390.464 347.186 390.685 347.186 390.936C347.186 391.187 347.151 391.411 347.082 391.608C347.018 391.8 346.927 391.963 346.81 392.096C346.692 392.224 346.554 392.323 346.394 392.392C346.239 392.461 346.074 392.496 345.898 392.496C345.722 392.496 345.554 392.461 345.394 392.392C345.239 392.323 345.103 392.224 344.986 392.096C344.868 391.963 344.775 391.8 344.706 391.608C344.642 391.411 344.61 391.187 344.61 390.936ZM343.89 390.936C343.89 391.24 343.932 391.523 344.018 391.784C344.103 392.045 344.231 392.275 344.402 392.472C344.572 392.664 344.783 392.816 345.034 392.928C345.284 393.035 345.572 393.088 345.898 393.088C346.228 393.088 346.516 393.035 346.762 392.928C347.012 392.816 347.223 392.664 347.394 392.472C347.564 392.275 347.692 392.045 347.778 391.784C347.863 391.523 347.906 391.24 347.906 390.936C347.906 390.632 347.863 390.349 347.778 390.088C347.692 389.821 347.564 389.592 347.394 389.4C347.223 389.203 347.012 389.048 346.762 388.936C346.516 388.824 346.228 388.768 345.898 388.768C345.572 388.768 345.284 388.824 345.034 388.936C344.783 389.048 344.572 389.203 344.402 389.4C344.231 389.592 344.103 389.821 344.018 390.088C343.932 390.349 343.89 390.632 343.89 390.936ZM348.731 387.288V393H349.411V392.448H349.427C349.502 392.571 349.593 392.675 349.699 392.76C349.811 392.84 349.929 392.904 350.051 392.952C350.174 393 350.297 393.035 350.419 393.056C350.547 393.077 350.662 393.088 350.763 393.088C351.078 393.088 351.353 393.032 351.587 392.92C351.827 392.808 352.025 392.656 352.179 392.464C352.339 392.267 352.457 392.037 352.531 391.776C352.611 391.515 352.651 391.237 352.651 390.944C352.651 390.651 352.611 390.373 352.531 390.112C352.451 389.851 352.331 389.621 352.171 389.424C352.017 389.221 351.819 389.061 351.579 388.944C351.345 388.827 351.067 388.768 350.747 388.768C350.459 388.768 350.195 388.821 349.955 388.928C349.715 389.029 349.539 389.195 349.427 389.424H349.411V387.288H348.731ZM351.931 390.896C351.931 391.099 351.91 391.296 351.867 391.488C351.825 391.68 351.755 391.851 351.659 392C351.563 392.149 351.435 392.269 351.275 392.36C351.121 392.451 350.926 392.496 350.691 392.496C350.457 392.496 350.257 392.453 350.091 392.368C349.926 392.277 349.79 392.16 349.683 392.016C349.582 391.872 349.507 391.707 349.459 391.52C349.411 391.328 349.387 391.131 349.387 390.928C349.387 390.736 349.409 390.547 349.451 390.36C349.499 390.173 349.574 390.008 349.675 389.864C349.777 389.715 349.907 389.595 350.067 389.504C350.227 389.413 350.422 389.368 350.651 389.368C350.87 389.368 351.059 389.411 351.219 389.496C351.385 389.581 351.518 389.696 351.619 389.84C351.726 389.984 351.803 390.149 351.851 390.336C351.905 390.517 351.931 390.704 351.931 390.896ZM353.426 388.864V393H354.106V391.16C354.106 390.893 354.132 390.659 354.186 390.456C354.239 390.248 354.324 390.072 354.442 389.928C354.559 389.784 354.714 389.675 354.906 389.6C355.098 389.525 355.33 389.488 355.602 389.488V388.768C355.234 388.757 354.93 388.832 354.69 388.992C354.45 389.152 354.247 389.4 354.082 389.736H354.066V388.864H353.426ZM356.469 390.936C356.469 390.685 356.501 390.464 356.565 390.272C356.634 390.075 356.728 389.909 356.845 389.776C356.962 389.643 357.098 389.541 357.253 389.472C357.413 389.403 357.581 389.368 357.757 389.368C357.933 389.368 358.098 389.403 358.253 389.472C358.413 389.541 358.552 389.643 358.669 389.776C358.786 389.909 358.877 390.075 358.941 390.272C359.01 390.464 359.045 390.685 359.045 390.936C359.045 391.187 359.01 391.411 358.941 391.608C358.877 391.8 358.786 391.963 358.669 392.096C358.552 392.224 358.413 392.323 358.253 392.392C358.098 392.461 357.933 392.496 357.757 392.496C357.581 392.496 357.413 392.461 357.253 392.392C357.098 392.323 356.962 392.224 356.845 392.096C356.728 391.963 356.634 391.8 356.565 391.608C356.501 391.411 356.469 391.187 356.469 390.936ZM355.749 390.936C355.749 391.24 355.792 391.523 355.877 391.784C355.962 392.045 356.09 392.275 356.261 392.472C356.432 392.664 356.642 392.816 356.893 392.928C357.144 393.035 357.432 393.088 357.757 393.088C358.088 393.088 358.376 393.035 358.621 392.928C358.872 392.816 359.082 392.664 359.253 392.472C359.424 392.275 359.552 392.045 359.637 391.784C359.722 391.523 359.765 391.24 359.765 390.936C359.765 390.632 359.722 390.349 359.637 390.088C359.552 389.821 359.424 389.592 359.253 389.4C359.082 389.203 358.872 389.048 358.621 388.936C358.376 388.824 358.088 388.768 357.757 388.768C357.432 388.768 357.144 388.824 356.893 388.936C356.642 389.048 356.432 389.203 356.261 389.4C356.09 389.592 355.962 389.821 355.877 390.088C355.792 390.349 355.749 390.632 355.749 390.936ZM361.511 388.864V387.624H360.831V388.864H360.127V389.464H360.831V392.096C360.831 392.288 360.849 392.443 360.887 392.56C360.924 392.677 360.98 392.768 361.055 392.832C361.135 392.896 361.236 392.941 361.359 392.968C361.487 392.989 361.639 393 361.815 393H362.335V392.4H362.023C361.916 392.4 361.828 392.397 361.759 392.392C361.695 392.381 361.644 392.363 361.607 392.336C361.569 392.309 361.543 392.272 361.527 392.224C361.516 392.176 361.511 392.112 361.511 392.032V389.464H362.335V388.864H361.511ZM366.754 392.984C366.637 393.053 366.474 393.088 366.266 393.088C366.09 393.088 365.949 393.04 365.842 392.944C365.741 392.843 365.69 392.68 365.69 392.456C365.503 392.68 365.285 392.843 365.034 392.944C364.789 393.04 364.522 393.088 364.234 393.088C364.047 393.088 363.869 393.067 363.698 393.024C363.533 392.981 363.389 392.915 363.266 392.824C363.143 392.733 363.045 392.616 362.97 392.472C362.901 392.323 362.866 392.144 362.866 391.936C362.866 391.701 362.906 391.509 362.986 391.36C363.066 391.211 363.17 391.091 363.298 391C363.431 390.904 363.581 390.832 363.746 390.784C363.917 390.736 364.09 390.696 364.266 390.664C364.453 390.627 364.629 390.6 364.794 390.584C364.965 390.563 365.114 390.536 365.242 390.504C365.37 390.467 365.471 390.416 365.546 390.352C365.621 390.283 365.658 390.184 365.658 390.056C365.658 389.907 365.629 389.787 365.57 389.696C365.517 389.605 365.445 389.536 365.354 389.488C365.269 389.44 365.17 389.408 365.058 389.392C364.951 389.376 364.845 389.368 364.738 389.368C364.45 389.368 364.21 389.424 364.018 389.536C363.826 389.643 363.722 389.848 363.706 390.152H363.026C363.037 389.896 363.09 389.68 363.186 389.504C363.282 389.328 363.41 389.187 363.57 389.08C363.73 388.968 363.911 388.888 364.114 388.84C364.322 388.792 364.543 388.768 364.778 388.768C364.965 388.768 365.149 388.781 365.33 388.808C365.517 388.835 365.685 388.891 365.834 388.976C365.983 389.056 366.103 389.171 366.194 389.32C366.285 389.469 366.33 389.664 366.33 389.904V392.032C366.33 392.192 366.338 392.309 366.354 392.384C366.375 392.459 366.439 392.496 366.546 392.496C366.605 392.496 366.674 392.483 366.754 392.456V392.984ZM365.65 390.864C365.565 390.928 365.453 390.976 365.314 391.008C365.175 391.035 365.029 391.059 364.874 391.08C364.725 391.096 364.573 391.117 364.418 391.144C364.263 391.165 364.125 391.203 364.002 391.256C363.879 391.309 363.778 391.387 363.698 391.488C363.623 391.584 363.586 391.717 363.586 391.888C363.586 392 363.607 392.096 363.65 392.176C363.698 392.251 363.757 392.312 363.826 392.36C363.901 392.408 363.986 392.443 364.082 392.464C364.178 392.485 364.279 392.496 364.386 392.496C364.61 392.496 364.802 392.467 364.962 392.408C365.122 392.344 365.253 392.267 365.354 392.176C365.455 392.08 365.53 391.979 365.578 391.872C365.626 391.76 365.65 391.656 365.65 391.56V390.864Z" fill="#2B2B2B"/>
<path d="M322.928 399.96H323.648C323.637 399.645 323.576 399.376 323.464 399.152C323.357 398.923 323.208 398.733 323.016 398.584C322.829 398.435 322.611 398.325 322.36 398.256C322.109 398.187 321.837 398.152 321.544 398.152C321.283 398.152 321.027 398.187 320.776 398.256C320.531 398.32 320.309 398.421 320.112 398.56C319.92 398.693 319.765 398.867 319.648 399.08C319.531 399.288 319.472 399.536 319.472 399.824C319.472 400.085 319.523 400.304 319.624 400.48C319.731 400.651 319.869 400.792 320.04 400.904C320.216 401.011 320.413 401.099 320.632 401.168C320.851 401.232 321.072 401.291 321.296 401.344C321.525 401.392 321.749 401.44 321.968 401.488C322.187 401.536 322.381 401.6 322.552 401.68C322.728 401.755 322.867 401.853 322.968 401.976C323.075 402.099 323.128 402.259 323.128 402.456C323.128 402.664 323.085 402.835 323 402.968C322.915 403.101 322.803 403.208 322.664 403.288C322.525 403.363 322.368 403.416 322.192 403.448C322.021 403.48 321.851 403.496 321.68 403.496C321.467 403.496 321.259 403.469 321.056 403.416C320.853 403.363 320.675 403.28 320.52 403.168C320.371 403.056 320.248 402.915 320.152 402.744C320.061 402.568 320.016 402.36 320.016 402.12H319.296C319.296 402.467 319.357 402.768 319.48 403.024C319.608 403.275 319.779 403.483 319.992 403.648C320.211 403.808 320.461 403.928 320.744 404.008C321.032 404.088 321.336 404.128 321.656 404.128C321.917 404.128 322.179 404.096 322.44 404.032C322.707 403.973 322.947 403.877 323.16 403.744C323.373 403.605 323.547 403.429 323.68 403.216C323.819 402.997 323.888 402.736 323.888 402.432C323.888 402.149 323.835 401.915 323.728 401.728C323.627 401.541 323.488 401.387 323.312 401.264C323.141 401.141 322.947 401.045 322.728 400.976C322.509 400.901 322.285 400.837 322.056 400.784C321.832 400.731 321.611 400.683 321.392 400.64C321.173 400.592 320.976 400.533 320.8 400.464C320.629 400.395 320.491 400.307 320.384 400.2C320.283 400.088 320.232 399.944 320.232 399.768C320.232 399.581 320.267 399.427 320.336 399.304C320.411 399.176 320.507 399.075 320.624 399C320.747 398.925 320.885 398.872 321.04 398.84C321.195 398.808 321.352 398.792 321.512 398.792C321.907 398.792 322.229 398.885 322.48 399.072C322.736 399.253 322.885 399.549 322.928 399.96ZM327.572 401.536H325.196C325.206 401.376 325.241 401.227 325.3 401.088C325.358 400.944 325.438 400.819 325.54 400.712C325.641 400.605 325.761 400.523 325.9 400.464C326.044 400.4 326.204 400.368 326.38 400.368C326.55 400.368 326.705 400.4 326.844 400.464C326.988 400.523 327.11 400.605 327.212 400.712C327.318 400.813 327.401 400.936 327.46 401.08C327.524 401.224 327.561 401.376 327.572 401.536ZM328.227 402.688H327.556C327.497 402.96 327.374 403.163 327.188 403.296C327.006 403.429 326.772 403.496 326.484 403.496C326.26 403.496 326.065 403.459 325.9 403.384C325.734 403.309 325.598 403.211 325.492 403.088C325.385 402.96 325.308 402.816 325.26 402.656C325.212 402.491 325.19 402.317 325.196 402.136H328.292C328.302 401.885 328.278 401.621 328.22 401.344C328.166 401.067 328.065 400.811 327.916 400.576C327.772 400.341 327.577 400.149 327.332 400C327.092 399.845 326.788 399.768 326.42 399.768C326.137 399.768 325.876 399.821 325.636 399.928C325.401 400.035 325.196 400.184 325.02 400.376C324.849 400.568 324.716 400.795 324.62 401.056C324.524 401.317 324.476 401.605 324.476 401.92C324.486 402.235 324.532 402.525 324.612 402.792C324.697 403.059 324.822 403.288 324.988 403.48C325.153 403.672 325.356 403.821 325.596 403.928C325.841 404.035 326.129 404.088 326.46 404.088C326.929 404.088 327.318 403.971 327.628 403.736C327.937 403.501 328.137 403.152 328.227 402.688ZM328.996 399.864V404H329.676V401.664C329.676 401.477 329.7 401.307 329.748 401.152C329.802 400.992 329.879 400.853 329.98 400.736C330.082 400.619 330.207 400.528 330.356 400.464C330.511 400.4 330.692 400.368 330.9 400.368C331.162 400.368 331.367 400.443 331.516 400.592C331.666 400.741 331.74 400.944 331.74 401.2V404H332.42V401.28C332.42 401.056 332.396 400.853 332.348 400.672C332.306 400.485 332.228 400.325 332.116 400.192C332.004 400.059 331.858 399.955 331.676 399.88C331.495 399.805 331.268 399.768 330.996 399.768C330.383 399.768 329.935 400.019 329.652 400.52H329.636V399.864H328.996ZM333.858 402.696H333.178C333.188 402.952 333.242 403.171 333.338 403.352C333.434 403.528 333.562 403.672 333.722 403.784C333.882 403.891 334.066 403.968 334.274 404.016C334.482 404.064 334.7 404.088 334.93 404.088C335.138 404.088 335.346 404.067 335.554 404.024C335.767 403.987 335.956 403.917 336.122 403.816C336.292 403.715 336.428 403.581 336.53 403.416C336.636 403.251 336.69 403.043 336.69 402.792C336.69 402.595 336.65 402.429 336.57 402.296C336.495 402.163 336.394 402.053 336.266 401.968C336.143 401.877 335.999 401.805 335.834 401.752C335.674 401.699 335.508 401.653 335.338 401.616C335.178 401.579 335.018 401.544 334.858 401.512C334.698 401.475 334.554 401.432 334.426 401.384C334.298 401.331 334.191 401.267 334.106 401.192C334.026 401.112 333.986 401.013 333.986 400.896C333.986 400.789 334.012 400.704 334.066 400.64C334.119 400.571 334.188 400.517 334.274 400.48C334.359 400.437 334.452 400.408 334.554 400.392C334.66 400.376 334.764 400.368 334.866 400.368C334.978 400.368 335.087 400.381 335.194 400.408C335.306 400.429 335.407 400.467 335.498 400.52C335.588 400.573 335.663 400.645 335.722 400.736C335.78 400.821 335.815 400.931 335.826 401.064H336.506C336.49 400.813 336.436 400.605 336.346 400.44C336.255 400.269 336.132 400.136 335.978 400.04C335.828 399.939 335.655 399.869 335.458 399.832C335.26 399.789 335.044 399.768 334.81 399.768C334.628 399.768 334.444 399.792 334.258 399.84C334.076 399.883 333.911 399.952 333.762 400.048C333.618 400.139 333.498 400.259 333.402 400.408C333.311 400.557 333.266 400.736 333.266 400.944C333.266 401.211 333.332 401.419 333.466 401.568C333.599 401.717 333.764 401.835 333.962 401.92C334.164 402 334.383 402.064 334.618 402.112C334.852 402.155 335.068 402.205 335.266 402.264C335.468 402.317 335.636 402.389 335.77 402.48C335.903 402.571 335.97 402.704 335.97 402.88C335.97 403.008 335.938 403.115 335.874 403.2C335.81 403.28 335.727 403.341 335.626 403.384C335.53 403.427 335.423 403.456 335.306 403.472C335.188 403.488 335.076 403.496 334.97 403.496C334.831 403.496 334.695 403.483 334.562 403.456C334.434 403.429 334.316 403.387 334.21 403.328C334.108 403.264 334.026 403.181 333.962 403.08C333.898 402.973 333.863 402.845 333.858 402.696ZM338.162 399.12V398.288H337.482V399.12H338.162ZM337.482 399.864V404H338.162V399.864H337.482ZM340.159 399.864V398.624H339.479V399.864H338.775V400.464H339.479V403.096C339.479 403.288 339.498 403.443 339.535 403.56C339.572 403.677 339.628 403.768 339.703 403.832C339.783 403.896 339.884 403.941 340.007 403.968C340.135 403.989 340.287 404 340.463 404H340.983V403.4H340.671C340.564 403.4 340.476 403.397 340.407 403.392C340.343 403.381 340.292 403.363 340.255 403.336C340.218 403.309 340.191 403.272 340.175 403.224C340.164 403.176 340.159 403.112 340.159 403.032V400.464H340.983V399.864H340.159ZM342.459 399.12V398.288H341.779V399.12H342.459ZM341.779 399.864V404H342.459V399.864H341.779ZM345.376 404L346.888 399.864H346.176L345.048 403.312H345.032L343.872 399.864H343.112L344.648 404H345.376ZM350.384 401.536H348.008C348.019 401.376 348.053 401.227 348.112 401.088C348.171 400.944 348.251 400.819 348.352 400.712C348.453 400.605 348.573 400.523 348.712 400.464C348.856 400.4 349.016 400.368 349.192 400.368C349.363 400.368 349.517 400.4 349.656 400.464C349.8 400.523 349.923 400.605 350.024 400.712C350.131 400.813 350.213 400.936 350.272 401.08C350.336 401.224 350.373 401.376 350.384 401.536ZM351.04 402.688H350.368C350.309 402.96 350.187 403.163 350 403.296C349.819 403.429 349.584 403.496 349.296 403.496C349.072 403.496 348.877 403.459 348.712 403.384C348.547 403.309 348.411 403.211 348.304 403.088C348.197 402.96 348.12 402.816 348.072 402.656C348.024 402.491 348.003 402.317 348.008 402.136H351.104C351.115 401.885 351.091 401.621 351.032 401.344C350.979 401.067 350.877 400.811 350.728 400.576C350.584 400.341 350.389 400.149 350.144 400C349.904 399.845 349.6 399.768 349.232 399.768C348.949 399.768 348.688 399.821 348.448 399.928C348.213 400.035 348.008 400.184 347.832 400.376C347.661 400.568 347.528 400.795 347.432 401.056C347.336 401.317 347.288 401.605 347.288 401.92C347.299 402.235 347.344 402.525 347.424 402.792C347.509 403.059 347.635 403.288 347.8 403.48C347.965 403.672 348.168 403.821 348.408 403.928C348.653 404.035 348.941 404.088 349.272 404.088C349.741 404.088 350.131 403.971 350.44 403.736C350.749 403.501 350.949 403.152 351.04 402.688ZM354.755 399.12V398.288H354.075V399.12H354.755ZM354.075 399.864V404H354.755V399.864H354.075ZM355.809 399.864V404H356.489V401.664C356.489 401.477 356.513 401.307 356.561 401.152C356.614 400.992 356.692 400.853 356.793 400.736C356.894 400.619 357.02 400.528 357.169 400.464C357.324 400.4 357.505 400.368 357.713 400.368C357.974 400.368 358.18 400.443 358.329 400.592C358.478 400.741 358.553 400.944 358.553 401.2V404H359.233V401.28C359.233 401.056 359.209 400.853 359.161 400.672C359.118 400.485 359.041 400.325 358.929 400.192C358.817 400.059 358.67 399.955 358.489 399.88C358.308 399.805 358.081 399.768 357.809 399.768C357.196 399.768 356.748 400.019 356.465 400.52H356.449V399.864H355.809ZM360.534 400.464V404H361.214V400.464H362.014V399.864H361.214V399.288C361.214 399.107 361.26 398.984 361.35 398.92C361.441 398.856 361.569 398.824 361.734 398.824C361.793 398.824 361.857 398.829 361.926 398.84C361.996 398.845 362.06 398.859 362.118 398.88V398.288C362.054 398.267 361.98 398.251 361.894 398.24C361.814 398.229 361.742 398.224 361.678 398.224C361.305 398.224 361.02 398.312 360.822 398.488C360.63 398.659 360.534 398.912 360.534 399.248V399.864H359.838V400.464H360.534ZM363.117 401.936C363.117 401.685 363.149 401.464 363.213 401.272C363.283 401.075 363.376 400.909 363.493 400.776C363.611 400.643 363.747 400.541 363.901 400.472C364.061 400.403 364.229 400.368 364.405 400.368C364.581 400.368 364.747 400.403 364.901 400.472C365.061 400.541 365.2 400.643 365.317 400.776C365.435 400.909 365.525 401.075 365.589 401.272C365.659 401.464 365.693 401.685 365.693 401.936C365.693 402.187 365.659 402.411 365.589 402.608C365.525 402.8 365.435 402.963 365.317 403.096C365.2 403.224 365.061 403.323 364.901 403.392C364.747 403.461 364.581 403.496 364.405 403.496C364.229 403.496 364.061 403.461 363.901 403.392C363.747 403.323 363.611 403.224 363.493 403.096C363.376 402.963 363.283 402.8 363.213 402.608C363.149 402.411 363.117 402.187 363.117 401.936ZM362.397 401.936C362.397 402.24 362.44 402.523 362.525 402.784C362.611 403.045 362.739 403.275 362.909 403.472C363.08 403.664 363.291 403.816 363.541 403.928C363.792 404.035 364.08 404.088 364.405 404.088C364.736 404.088 365.024 404.035 365.269 403.928C365.52 403.816 365.731 403.664 365.901 403.472C366.072 403.275 366.2 403.045 366.285 402.784C366.371 402.523 366.413 402.24 366.413 401.936C366.413 401.632 366.371 401.349 366.285 401.088C366.2 400.821 366.072 400.592 365.901 400.4C365.731 400.203 365.52 400.048 365.269 399.936C365.024 399.824 364.736 399.768 364.405 399.768C364.08 399.768 363.792 399.824 363.541 399.936C363.291 400.048 363.08 400.203 362.909 400.4C362.739 400.592 362.611 400.821 362.525 401.088C362.44 401.349 362.397 401.632 362.397 401.936ZM367.191 399.864V404H367.871V402.16C367.871 401.893 367.898 401.659 367.951 401.456C368.004 401.248 368.09 401.072 368.207 400.928C368.324 400.784 368.479 400.675 368.671 400.6C368.863 400.525 369.095 400.488 369.367 400.488V399.768C368.999 399.757 368.695 399.832 368.455 399.992C368.215 400.152 368.012 400.4 367.847 400.736H367.831V399.864H367.191ZM369.879 399.864V404H370.559V401.424C370.559 401.344 370.578 401.245 370.615 401.128C370.658 401.005 370.722 400.888 370.807 400.776C370.898 400.664 371.013 400.568 371.151 400.488C371.295 400.408 371.466 400.368 371.663 400.368C371.818 400.368 371.943 400.392 372.039 400.44C372.141 400.483 372.221 400.547 372.279 400.632C372.338 400.712 372.378 400.808 372.399 400.92C372.426 401.032 372.439 401.155 372.439 401.288V404H373.119V401.424C373.119 401.104 373.215 400.848 373.407 400.656C373.599 400.464 373.863 400.368 374.199 400.368C374.365 400.368 374.498 400.392 374.599 400.44C374.706 400.488 374.789 400.555 374.847 400.64C374.906 400.72 374.946 400.816 374.967 400.928C374.989 401.04 374.999 401.16 374.999 401.288V404H375.679V400.968C375.679 400.755 375.645 400.573 375.575 400.424C375.511 400.269 375.418 400.144 375.295 400.048C375.178 399.952 375.034 399.883 374.863 399.84C374.698 399.792 374.511 399.768 374.303 399.768C374.031 399.768 373.781 399.829 373.551 399.952C373.327 400.075 373.146 400.248 373.007 400.472C372.922 400.216 372.775 400.035 372.567 399.928C372.359 399.821 372.127 399.768 371.871 399.768C371.29 399.768 370.845 400.003 370.535 400.472H370.519V399.864H369.879ZM380.364 403.984C380.246 404.053 380.084 404.088 379.876 404.088C379.7 404.088 379.558 404.04 379.452 403.944C379.35 403.843 379.3 403.68 379.3 403.456C379.113 403.68 378.894 403.843 378.644 403.944C378.398 404.04 378.132 404.088 377.844 404.088C377.657 404.088 377.478 404.067 377.308 404.024C377.142 403.981 376.998 403.915 376.876 403.824C376.753 403.733 376.654 403.616 376.58 403.472C376.51 403.323 376.476 403.144 376.476 402.936C376.476 402.701 376.516 402.509 376.596 402.36C376.676 402.211 376.78 402.091 376.908 402C377.041 401.904 377.19 401.832 377.356 401.784C377.526 401.736 377.7 401.696 377.876 401.664C378.062 401.627 378.238 401.6 378.404 401.584C378.574 401.563 378.724 401.536 378.852 401.504C378.98 401.467 379.081 401.416 379.156 401.352C379.23 401.283 379.268 401.184 379.268 401.056C379.268 400.907 379.238 400.787 379.18 400.696C379.126 400.605 379.054 400.536 378.964 400.488C378.878 400.44 378.78 400.408 378.668 400.392C378.561 400.376 378.454 400.368 378.348 400.368C378.06 400.368 377.82 400.424 377.628 400.536C377.436 400.643 377.332 400.848 377.316 401.152H376.636C376.646 400.896 376.7 400.68 376.796 400.504C376.892 400.328 377.02 400.187 377.18 400.08C377.34 399.968 377.521 399.888 377.724 399.84C377.932 399.792 378.153 399.768 378.388 399.768C378.574 399.768 378.758 399.781 378.94 399.808C379.126 399.835 379.294 399.891 379.444 399.976C379.593 400.056 379.713 400.171 379.804 400.32C379.894 400.469 379.94 400.664 379.94 400.904V403.032C379.94 403.192 379.948 403.309 379.964 403.384C379.985 403.459 380.049 403.496 380.156 403.496C380.214 403.496 380.284 403.483 380.364 403.456V403.984ZM379.26 401.864C379.174 401.928 379.062 401.976 378.924 402.008C378.785 402.035 378.638 402.059 378.484 402.08C378.334 402.096 378.182 402.117 378.028 402.144C377.873 402.165 377.734 402.203 377.612 402.256C377.489 402.309 377.388 402.387 377.308 402.488C377.233 402.584 377.196 402.717 377.196 402.888C377.196 403 377.217 403.096 377.26 403.176C377.308 403.251 377.366 403.312 377.436 403.36C377.51 403.408 377.596 403.443 377.692 403.464C377.788 403.485 377.889 403.496 377.996 403.496C378.22 403.496 378.412 403.467 378.572 403.408C378.732 403.344 378.862 403.267 378.964 403.176C379.065 403.08 379.14 402.979 379.188 402.872C379.236 402.76 379.26 402.656 379.26 402.56V401.864ZM381.94 399.864V398.624H381.26V399.864H380.556V400.464H381.26V403.096C381.26 403.288 381.279 403.443 381.316 403.56C381.354 403.677 381.41 403.768 381.484 403.832C381.564 403.896 381.666 403.941 381.788 403.968C381.916 403.989 382.068 404 382.244 404H382.764V403.4H382.452C382.346 403.4 382.258 403.397 382.188 403.392C382.124 403.381 382.074 403.363 382.036 403.336C381.999 403.309 381.972 403.272 381.956 403.224C381.946 403.176 381.94 403.112 381.94 403.032V400.464H382.764V399.864H381.94ZM384.24 399.12V398.288H383.56V399.12H384.24ZM383.56 399.864V404H384.24V399.864H383.56ZM385.789 401.936C385.789 401.685 385.821 401.464 385.885 401.272C385.955 401.075 386.048 400.909 386.165 400.776C386.283 400.643 386.419 400.541 386.573 400.472C386.733 400.403 386.901 400.368 387.077 400.368C387.253 400.368 387.419 400.403 387.573 400.472C387.733 400.541 387.872 400.643 387.989 400.776C388.107 400.909 388.197 401.075 388.261 401.272C388.331 401.464 388.365 401.685 388.365 401.936C388.365 402.187 388.331 402.411 388.261 402.608C388.197 402.8 388.107 402.963 387.989 403.096C387.872 403.224 387.733 403.323 387.573 403.392C387.419 403.461 387.253 403.496 387.077 403.496C386.901 403.496 386.733 403.461 386.573 403.392C386.419 403.323 386.283 403.224 386.165 403.096C386.048 402.963 385.955 402.8 385.885 402.608C385.821 402.411 385.789 402.187 385.789 401.936ZM385.069 401.936C385.069 402.24 385.112 402.523 385.197 402.784C385.283 403.045 385.411 403.275 385.581 403.472C385.752 403.664 385.963 403.816 386.213 403.928C386.464 404.035 386.752 404.088 387.077 404.088C387.408 404.088 387.696 404.035 387.941 403.928C388.192 403.816 388.403 403.664 388.573 403.472C388.744 403.275 388.872 403.045 388.957 402.784C389.043 402.523 389.085 402.24 389.085 401.936C389.085 401.632 389.043 401.349 388.957 401.088C388.872 400.821 388.744 400.592 388.573 400.4C388.403 400.203 388.192 400.048 387.941 399.936C387.696 399.824 387.408 399.768 387.077 399.768C386.752 399.768 386.464 399.824 386.213 399.936C385.963 400.048 385.752 400.203 385.581 400.4C385.411 400.592 385.283 400.821 385.197 401.088C385.112 401.349 385.069 401.632 385.069 401.936ZM389.887 399.864V404H390.567V401.664C390.567 401.477 390.591 401.307 390.639 401.152C390.692 400.992 390.77 400.853 390.871 400.736C390.972 400.619 391.098 400.528 391.247 400.464C391.402 400.4 391.583 400.368 391.791 400.368C392.052 400.368 392.258 400.443 392.407 400.592C392.556 400.741 392.631 400.944 392.631 401.2V404H393.311V401.28C393.311 401.056 393.287 400.853 393.239 400.672C393.196 400.485 393.119 400.325 393.007 400.192C392.895 400.059 392.748 399.955 392.567 399.88C392.386 399.805 392.159 399.768 391.887 399.768C391.274 399.768 390.826 400.019 390.543 400.52H390.527V399.864H389.887Z" fill="#2B2B2B"/>
<path d="M290.68 388.562V393H291.345V388.562H293.011V388.002H289.014V388.562H290.68ZM293.122 391.194C293.122 390.975 293.15 390.781 293.206 390.613C293.267 390.44 293.349 390.296 293.451 390.179C293.554 390.062 293.673 389.974 293.808 389.913C293.948 389.852 294.095 389.822 294.249 389.822C294.403 389.822 294.548 389.852 294.683 389.913C294.823 389.974 294.945 390.062 295.047 390.179C295.15 390.296 295.229 390.44 295.285 390.613C295.346 390.781 295.376 390.975 295.376 391.194C295.376 391.413 295.346 391.609 295.285 391.782C295.229 391.95 295.15 392.092 295.047 392.209C294.945 392.321 294.823 392.407 294.683 392.468C294.548 392.529 294.403 392.559 294.249 392.559C294.095 392.559 293.948 392.529 293.808 392.468C293.673 392.407 293.554 392.321 293.451 392.209C293.349 392.092 293.267 391.95 293.206 391.782C293.15 391.609 293.122 391.413 293.122 391.194ZM292.492 391.194C292.492 391.46 292.53 391.707 292.604 391.936C292.679 392.165 292.791 392.365 292.94 392.538C293.09 392.706 293.274 392.839 293.493 392.937C293.713 393.03 293.965 393.077 294.249 393.077C294.539 393.077 294.791 393.03 295.005 392.937C295.225 392.839 295.409 392.706 295.558 392.538C295.708 392.365 295.82 392.165 295.894 391.936C295.969 391.707 296.006 391.46 296.006 391.194C296.006 390.928 295.969 390.681 295.894 390.452C295.82 390.219 295.708 390.018 295.558 389.85C295.409 389.677 295.225 389.542 295.005 389.444C294.791 389.346 294.539 389.297 294.249 389.297C293.965 389.297 293.713 389.346 293.493 389.444C293.274 389.542 293.09 389.677 292.94 389.85C292.791 390.018 292.679 390.219 292.604 390.452C292.53 390.681 292.492 390.928 292.492 391.194ZM297.618 390.158V389.381H296.841V390.158H297.618ZM296.841 392.223V393H297.618V392.223H296.841Z" fill="#BABABA"/>
<path d="M292.437 400.465H293.067C293.058 400.19 293.004 399.954 292.906 399.758C292.813 399.557 292.682 399.392 292.514 399.261C292.351 399.13 292.159 399.035 291.94 398.974C291.721 398.913 291.483 398.883 291.226 398.883C290.997 398.883 290.773 398.913 290.554 398.974C290.339 399.03 290.146 399.119 289.973 399.24C289.805 399.357 289.67 399.508 289.567 399.695C289.464 399.877 289.413 400.094 289.413 400.346C289.413 400.575 289.457 400.766 289.546 400.92C289.639 401.069 289.761 401.193 289.91 401.291C290.064 401.384 290.237 401.461 290.428 401.522C290.619 401.578 290.813 401.629 291.009 401.676C291.21 401.718 291.406 401.76 291.597 401.802C291.788 401.844 291.959 401.9 292.108 401.97C292.262 402.035 292.383 402.122 292.472 402.229C292.565 402.336 292.612 402.476 292.612 402.649C292.612 402.831 292.575 402.98 292.5 403.097C292.425 403.214 292.327 403.307 292.206 403.377C292.085 403.442 291.947 403.489 291.793 403.517C291.644 403.545 291.494 403.559 291.345 403.559C291.158 403.559 290.976 403.536 290.799 403.489C290.622 403.442 290.465 403.37 290.33 403.272C290.199 403.174 290.092 403.05 290.008 402.901C289.929 402.747 289.889 402.565 289.889 402.355H289.259C289.259 402.658 289.313 402.922 289.42 403.146C289.532 403.365 289.681 403.547 289.868 403.692C290.059 403.832 290.279 403.937 290.526 404.007C290.778 404.077 291.044 404.112 291.324 404.112C291.553 404.112 291.781 404.084 292.01 404.028C292.243 403.977 292.453 403.893 292.64 403.776C292.827 403.655 292.978 403.501 293.095 403.314C293.216 403.123 293.277 402.894 293.277 402.628C293.277 402.381 293.23 402.175 293.137 402.012C293.048 401.849 292.927 401.713 292.773 401.606C292.624 401.499 292.453 401.415 292.262 401.354C292.071 401.289 291.875 401.233 291.674 401.186C291.478 401.139 291.284 401.097 291.093 401.06C290.902 401.018 290.729 400.967 290.575 400.906C290.426 400.845 290.304 400.768 290.211 400.675C290.122 400.577 290.078 400.451 290.078 400.297C290.078 400.134 290.108 399.998 290.169 399.891C290.234 399.779 290.318 399.69 290.421 399.625C290.528 399.56 290.65 399.513 290.785 399.485C290.92 399.457 291.058 399.443 291.198 399.443C291.543 399.443 291.826 399.525 292.045 399.688C292.269 399.847 292.4 400.106 292.437 400.465ZM296.983 404V400.381H296.388V402.425C296.388 402.588 296.365 402.74 296.318 402.88C296.276 403.015 296.211 403.134 296.122 403.237C296.033 403.34 295.921 403.419 295.786 403.475C295.655 403.531 295.499 403.559 295.317 403.559C295.088 403.559 294.909 403.494 294.778 403.363C294.647 403.232 294.582 403.055 294.582 402.831V400.381H293.987V402.761C293.987 402.957 294.006 403.137 294.043 403.3C294.085 403.459 294.155 403.596 294.253 403.713C294.351 403.83 294.479 403.921 294.638 403.986C294.797 404.047 294.995 404.077 295.233 404.077C295.499 404.077 295.73 404.026 295.926 403.923C296.122 403.816 296.283 403.65 296.409 403.426H296.423V404H296.983ZM297.898 399.002V404H298.493V403.517H298.507C298.572 403.624 298.651 403.715 298.745 403.79C298.843 403.86 298.945 403.916 299.053 403.958C299.16 404 299.267 404.03 299.375 404.049C299.487 404.068 299.587 404.077 299.676 404.077C299.951 404.077 300.191 404.028 300.397 403.93C300.607 403.832 300.779 403.699 300.915 403.531C301.055 403.358 301.157 403.158 301.223 402.929C301.293 402.7 301.328 402.458 301.328 402.201C301.328 401.944 301.293 401.702 301.223 401.473C301.153 401.244 301.048 401.044 300.908 400.871C300.772 400.694 300.6 400.554 300.39 400.451C300.184 400.348 299.942 400.297 299.662 400.297C299.41 400.297 299.179 400.344 298.969 400.437C298.759 400.526 298.605 400.67 298.507 400.871H298.493V399.002H297.898ZM300.698 402.159C300.698 402.336 300.679 402.509 300.642 402.677C300.604 402.845 300.544 402.994 300.46 403.125C300.376 403.256 300.264 403.361 300.124 403.44C299.988 403.519 299.818 403.559 299.613 403.559C299.407 403.559 299.232 403.522 299.088 403.447C298.943 403.368 298.824 403.265 298.731 403.139C298.642 403.013 298.577 402.868 298.535 402.705C298.493 402.537 298.472 402.364 298.472 402.187C298.472 402.019 298.49 401.853 298.528 401.69C298.57 401.527 298.635 401.382 298.724 401.256C298.812 401.125 298.927 401.02 299.067 400.941C299.207 400.862 299.377 400.822 299.578 400.822C299.769 400.822 299.935 400.859 300.075 400.934C300.219 401.009 300.336 401.109 300.425 401.235C300.518 401.361 300.586 401.506 300.628 401.669C300.674 401.828 300.698 401.991 300.698 402.159ZM302.656 399.73V399.002H302.061V399.73H302.656ZM302.656 404.455V400.381H302.061V404.357C302.061 404.544 302.038 404.672 301.991 404.742C301.944 404.817 301.856 404.854 301.725 404.854H301.599C301.58 404.854 301.564 404.852 301.55 404.847C301.531 404.847 301.51 404.845 301.487 404.84V405.351C301.58 405.37 301.681 405.379 301.788 405.379C302.054 405.379 302.264 405.304 302.418 405.155C302.577 405.01 302.656 404.777 302.656 404.455ZM306.091 401.844H304.012C304.021 401.704 304.052 401.573 304.103 401.452C304.154 401.326 304.224 401.216 304.313 401.123C304.402 401.03 304.507 400.957 304.628 400.906C304.754 400.85 304.894 400.822 305.048 400.822C305.197 400.822 305.333 400.85 305.454 400.906C305.58 400.957 305.687 401.03 305.776 401.123C305.869 401.212 305.942 401.319 305.993 401.445C306.049 401.571 306.082 401.704 306.091 401.844ZM306.665 402.852H306.077C306.026 403.09 305.918 403.267 305.755 403.384C305.596 403.501 305.391 403.559 305.139 403.559C304.943 403.559 304.773 403.526 304.628 403.461C304.483 403.396 304.364 403.309 304.271 403.202C304.178 403.09 304.11 402.964 304.068 402.824C304.026 402.679 304.007 402.528 304.012 402.369H306.721C306.73 402.15 306.709 401.919 306.658 401.676C306.611 401.433 306.523 401.209 306.392 401.004C306.266 400.799 306.096 400.631 305.881 400.5C305.671 400.365 305.405 400.297 305.083 400.297C304.836 400.297 304.607 400.344 304.397 400.437C304.192 400.53 304.012 400.661 303.858 400.829C303.709 400.997 303.592 401.195 303.508 401.424C303.424 401.653 303.382 401.905 303.382 402.18C303.391 402.455 303.431 402.71 303.501 402.943C303.576 403.176 303.685 403.377 303.83 403.545C303.975 403.713 304.152 403.844 304.362 403.937C304.577 404.03 304.829 404.077 305.118 404.077C305.529 404.077 305.869 403.974 306.14 403.769C306.411 403.564 306.586 403.258 306.665 402.852ZM309.795 401.543H310.411C310.387 401.328 310.331 401.144 310.243 400.99C310.154 400.831 310.04 400.701 309.9 400.598C309.764 400.495 309.606 400.421 309.424 400.374C309.246 400.323 309.055 400.297 308.85 400.297C308.565 400.297 308.315 400.348 308.101 400.451C307.886 400.549 307.706 400.687 307.562 400.864C307.422 401.037 307.317 401.242 307.247 401.48C307.177 401.713 307.142 401.965 307.142 402.236C307.142 402.507 307.177 402.756 307.247 402.985C307.321 403.209 307.429 403.403 307.569 403.566C307.713 403.729 307.891 403.855 308.101 403.944C308.315 404.033 308.56 404.077 308.836 404.077C309.298 404.077 309.662 403.956 309.928 403.713C310.198 403.47 310.366 403.125 310.432 402.677H309.823C309.785 402.957 309.683 403.174 309.515 403.328C309.351 403.482 309.123 403.559 308.829 403.559C308.642 403.559 308.481 403.522 308.346 403.447C308.21 403.372 308.101 403.274 308.017 403.153C307.933 403.027 307.87 402.885 307.828 402.726C307.79 402.567 307.772 402.404 307.772 402.236C307.772 402.054 307.79 401.879 307.828 401.711C307.865 401.538 307.926 401.387 308.01 401.256C308.098 401.125 308.215 401.02 308.36 400.941C308.504 400.862 308.684 400.822 308.899 400.822C309.151 400.822 309.351 400.885 309.501 401.011C309.65 401.137 309.748 401.314 309.795 401.543ZM311.923 400.381V399.296H311.328V400.381H310.712V400.906H311.328V403.209C311.328 403.377 311.345 403.512 311.377 403.615C311.41 403.718 311.459 403.797 311.524 403.853C311.594 403.909 311.683 403.949 311.79 403.972C311.902 403.991 312.035 404 312.189 404H312.644V403.475H312.371C312.278 403.475 312.201 403.473 312.14 403.468C312.084 403.459 312.04 403.442 312.007 403.419C311.975 403.396 311.951 403.363 311.937 403.321C311.928 403.279 311.923 403.223 311.923 403.153V400.906H312.644V400.381H311.923ZM314.215 401.158V400.381H313.438V401.158H314.215ZM313.438 403.223V404H314.215V403.223H313.438Z" fill="#BABABA"/>
<g filter="url(#filter3_d_102:536)">
<rect x="25" y="92" width="155" height="205" rx="16" fill="white" fill-opacity="0.5"/>
</g>
<g filter="url(#filter4_d_102:536)">
<rect x="37" y="107" width="131" height="174" rx="16" fill="white"/>
</g>
<path d="M78.0224 136H76.4674V128.625H78.9924C79.5558 128.625 80.0374 128.735 80.4374 128.955C80.8374 129.172 81.1441 129.467 81.3574 129.84C81.5708 130.21 81.6774 130.628 81.6774 131.095C81.6774 131.558 81.5691 131.983 81.3524 132.37C81.1391 132.753 80.8308 133.062 80.4274 133.295C80.0274 133.525 79.5491 133.64 78.9924 133.64H78.0224V136ZM78.8274 129.825H78.0224V132.44H78.8274C79.2174 132.44 79.5291 132.323 79.7624 132.09C79.9991 131.853 80.1174 131.522 80.1174 131.095C80.1174 130.665 80.0008 130.347 79.7674 130.14C79.5374 129.93 79.2241 129.825 78.8274 129.825ZM87.8602 134.325C87.8335 134.625 87.7068 134.913 87.4802 135.19C87.2568 135.463 86.9402 135.687 86.5302 135.86C86.1235 136.033 85.6318 136.12 85.0552 136.12C84.4685 136.12 83.9568 136.003 83.5202 135.77C83.0835 135.533 82.7452 135.208 82.5052 134.795C82.2652 134.378 82.1452 133.898 82.1452 133.355C82.1452 132.805 82.2668 132.323 82.5102 131.91C82.7568 131.493 83.0985 131.17 83.5352 130.94C83.9752 130.707 84.4835 130.59 85.0602 130.59C85.6502 130.59 86.1602 130.708 86.5902 130.945C87.0202 131.178 87.3518 131.507 87.5852 131.93C87.8185 132.35 87.9352 132.84 87.9352 133.4C87.9352 133.573 87.9285 133.71 87.9152 133.81H83.7152C83.7852 134.17 83.9368 134.45 84.1702 134.65C84.4035 134.847 84.7202 134.945 85.1202 134.945C85.5368 134.945 85.8368 134.878 86.0202 134.745C86.2068 134.608 86.3102 134.468 86.3302 134.325H87.8602ZM85.0802 131.75C84.7235 131.75 84.4285 131.84 84.1952 132.02C83.9652 132.2 83.8102 132.455 83.7302 132.785H86.3502C86.3268 132.522 86.2118 132.283 86.0052 132.07C85.8018 131.857 85.4935 131.75 85.0802 131.75ZM88.9038 136V130.69H90.4588V131.41C90.6122 131.16 90.8155 130.962 91.0688 130.815C91.3255 130.665 91.6322 130.59 91.9888 130.59C92.2022 130.59 92.3688 130.607 92.4888 130.64C92.6122 130.67 92.6888 130.693 92.7188 130.71L92.4638 132.1C92.4338 132.083 92.3672 132.057 92.2638 132.02C92.1605 131.983 92.0272 131.965 91.8638 131.965C91.5072 131.965 91.2255 132.042 91.0188 132.195C90.8155 132.348 90.6705 132.543 90.5838 132.78C90.5005 133.013 90.4588 133.252 90.4588 133.495V136H88.9038ZM94.1484 136V131.89H93.0434V130.69H94.1484V130.325C94.1484 129.885 94.2218 129.522 94.3684 129.235C94.5151 128.948 94.7051 128.723 94.9384 128.56C95.1751 128.397 95.4301 128.282 95.7034 128.215C95.9801 128.148 96.2468 128.115 96.5034 128.115C96.7201 128.115 96.8834 128.128 96.9934 128.155C97.1034 128.178 97.1768 128.198 97.2134 128.215V129.42C97.1734 129.41 97.1018 129.397 96.9984 129.38C96.8984 129.36 96.7901 129.35 96.6734 129.35C96.2868 129.35 96.0268 129.448 95.8934 129.645C95.7601 129.842 95.6934 130.092 95.6934 130.395V130.69H97.1184V131.89H95.6934V136H94.1484ZM100.372 136.115C99.7991 136.115 99.2941 135.997 98.8574 135.76C98.4208 135.523 98.0791 135.198 97.8324 134.785C97.5891 134.368 97.4674 133.888 97.4674 133.345C97.4674 132.805 97.5891 132.328 97.8324 131.915C98.0791 131.498 98.4208 131.175 98.8574 130.945C99.2941 130.712 99.7991 130.595 100.372 130.595C100.946 130.595 101.451 130.712 101.887 130.945C102.324 131.175 102.664 131.498 102.907 131.915C103.154 132.328 103.277 132.805 103.277 133.345C103.277 133.888 103.154 134.368 102.907 134.785C102.664 135.198 102.324 135.523 101.887 135.76C101.451 135.997 100.946 136.115 100.372 136.115ZM100.372 134.885C100.776 134.885 101.099 134.745 101.342 134.465C101.586 134.185 101.707 133.812 101.707 133.345C101.707 132.878 101.586 132.508 101.342 132.235C101.099 131.962 100.776 131.825 100.372 131.825C99.9691 131.825 99.6458 131.962 99.4024 132.235C99.1591 132.508 99.0374 132.878 99.0374 133.345C99.0374 133.812 99.1591 134.185 99.4024 134.465C99.6458 134.745 99.9691 134.885 100.372 134.885ZM104.246 136V130.69H105.801V131.41C105.954 131.16 106.157 130.962 106.411 130.815C106.667 130.665 106.974 130.59 107.331 130.59C107.544 130.59 107.711 130.607 107.831 130.64C107.954 130.67 108.031 130.693 108.061 130.71L107.806 132.1C107.776 132.083 107.709 132.057 107.606 132.02C107.502 131.983 107.369 131.965 107.206 131.965C106.849 131.965 106.567 132.042 106.361 132.195C106.157 132.348 106.012 132.543 105.926 132.78C105.842 133.013 105.801 133.252 105.801 133.495V136H104.246ZM108.845 136V130.69H110.395V131.395C110.569 131.145 110.79 130.948 111.06 130.805C111.33 130.662 111.639 130.59 111.985 130.59C112.429 130.59 112.774 130.687 113.02 130.88C113.27 131.07 113.449 131.318 113.555 131.625C113.715 131.308 113.942 131.057 114.235 130.87C114.529 130.683 114.877 130.59 115.28 130.59C115.714 130.59 116.055 130.682 116.305 130.865C116.559 131.045 116.739 131.288 116.845 131.595C116.955 131.902 117.01 132.243 117.01 132.62V136H115.46V133.06C115.46 132.867 115.444 132.683 115.41 132.51C115.377 132.333 115.304 132.19 115.19 132.08C115.077 131.97 114.899 131.915 114.655 131.915C114.425 131.915 114.24 131.977 114.1 132.1C113.96 132.223 113.859 132.385 113.795 132.585C113.732 132.785 113.7 132.998 113.7 133.225V136H112.16V133.07C112.16 132.89 112.145 132.712 112.115 132.535C112.085 132.358 112.014 132.212 111.9 132.095C111.787 131.975 111.609 131.915 111.365 131.915C111.135 131.915 110.949 131.978 110.805 132.105C110.665 132.228 110.562 132.392 110.495 132.595C110.429 132.798 110.395 133.018 110.395 133.255V136H108.845ZM119.971 136.11C119.388 136.11 118.91 135.973 118.536 135.7C118.163 135.427 117.976 135.04 117.976 134.54C117.976 134.163 118.08 133.857 118.286 133.62C118.493 133.383 118.766 133.203 119.106 133.08C119.45 132.953 119.821 132.87 120.221 132.83C120.801 132.777 121.203 132.727 121.426 132.68C121.65 132.63 121.761 132.547 121.761 132.43V132.42C121.761 132.223 121.666 132.068 121.476 131.955C121.29 131.842 121.028 131.785 120.691 131.785C119.958 131.785 119.591 132.045 119.591 132.565H118.066C118.066 132.142 118.181 131.783 118.411 131.49C118.645 131.193 118.96 130.97 119.356 130.82C119.753 130.667 120.201 130.59 120.701 130.59C121.168 130.59 121.6 130.662 121.996 130.805C122.393 130.945 122.711 131.158 122.951 131.445C123.195 131.728 123.316 132.087 123.316 132.52V134.815C123.316 134.952 123.32 135.083 123.326 135.21C123.336 135.337 123.356 135.45 123.386 135.55C123.42 135.667 123.461 135.763 123.511 135.84C123.561 135.917 123.603 135.97 123.636 136H122.111C122.088 135.973 122.051 135.925 122.001 135.855C121.955 135.782 121.915 135.697 121.881 135.6C121.861 135.543 121.845 135.488 121.831 135.435C121.631 135.648 121.368 135.815 121.041 135.935C120.715 136.052 120.358 136.11 119.971 136.11ZM120.386 134.95C120.626 134.95 120.853 134.907 121.066 134.82C121.28 134.73 121.453 134.59 121.586 134.4C121.72 134.21 121.786 133.962 121.786 133.655V133.61C121.596 133.66 121.395 133.702 121.181 133.735C120.968 133.765 120.756 133.792 120.546 133.815C120.206 133.848 119.951 133.907 119.781 133.99C119.615 134.07 119.531 134.207 119.531 134.4C119.531 134.767 119.816 134.95 120.386 134.95ZM124.451 136V130.69H126.001V131.505C126.204 131.218 126.464 130.995 126.781 130.835C127.097 130.672 127.444 130.59 127.821 130.59C128.474 130.59 128.956 130.782 129.266 131.165C129.579 131.548 129.736 132.052 129.736 132.675V136H128.191V133.12C128.191 132.9 128.162 132.7 128.106 132.52C128.049 132.337 127.946 132.19 127.796 132.08C127.649 131.97 127.439 131.915 127.166 131.915C126.806 131.915 126.521 132.037 126.311 132.28C126.104 132.52 126.001 132.833 126.001 133.22V136H124.451ZM133.571 136.12C132.988 136.12 132.476 136.003 132.036 135.77C131.599 135.533 131.259 135.207 131.016 134.79C130.773 134.37 130.651 133.883 130.651 133.33C130.651 132.777 130.773 132.295 131.016 131.885C131.259 131.475 131.599 131.157 132.036 130.93C132.476 130.703 132.988 130.59 133.571 130.59C134.008 130.59 134.393 130.655 134.726 130.785C135.063 130.912 135.344 131.08 135.571 131.29C135.801 131.497 135.974 131.727 136.091 131.98C136.208 132.23 136.266 132.478 136.266 132.725V132.765H134.731C134.731 132.738 134.726 132.7 134.716 132.65C134.676 132.44 134.563 132.252 134.376 132.085C134.193 131.918 133.921 131.835 133.561 131.835C133.178 131.835 132.858 131.963 132.601 132.22C132.348 132.473 132.221 132.843 132.221 133.33C132.221 133.81 132.348 134.188 132.601 134.465C132.858 134.738 133.178 134.875 133.561 134.875C133.954 134.875 134.241 134.787 134.421 134.61C134.601 134.43 134.704 134.215 134.731 133.965H136.266C136.266 134.215 136.208 134.467 136.091 134.72C135.978 134.973 135.808 135.205 135.581 135.415C135.354 135.625 135.073 135.795 134.736 135.925C134.403 136.055 134.014 136.12 133.571 136.12ZM142.704 134.325C142.677 134.625 142.551 134.913 142.324 135.19C142.101 135.463 141.784 135.687 141.374 135.86C140.967 136.033 140.476 136.12 139.899 136.12C139.312 136.12 138.801 136.003 138.364 135.77C137.927 135.533 137.589 135.208 137.349 134.795C137.109 134.378 136.989 133.898 136.989 133.355C136.989 132.805 137.111 132.323 137.354 131.91C137.601 131.493 137.942 131.17 138.379 130.94C138.819 130.707 139.327 130.59 139.904 130.59C140.494 130.59 141.004 130.708 141.434 130.945C141.864 131.178 142.196 131.507 142.429 131.93C142.662 132.35 142.779 132.84 142.779 133.4C142.779 133.573 142.772 133.71 142.759 133.81H138.559C138.629 134.17 138.781 134.45 139.014 134.65C139.247 134.847 139.564 134.945 139.964 134.945C140.381 134.945 140.681 134.878 140.864 134.745C141.051 134.608 141.154 134.468 141.174 134.325H142.704ZM139.924 131.75C139.567 131.75 139.272 131.84 139.039 132.02C138.809 132.2 138.654 132.455 138.574 132.785H141.194C141.171 132.522 141.056 132.283 140.849 132.07C140.646 131.857 140.337 131.75 139.924 131.75Z" fill="#2B2B2B"/>
<path d="M132.1 204.892C127.101 216.728 115.685 225 102.402 225C85.3297 225 71.3419 211.335 70.0996 194" stroke="#FF876C" stroke-width="16"/>
<path d="M69.1405 192.366C68.5245 174.527 82.2063 159.499 99.9275 158.235" stroke="#FFE5D7" stroke-width="10"/>
<path d="M103.771 158C122.002 158.885 136.077 174.102 135.208 191.989C135.03 195.674 132.915 202.428 132.915 202.428" stroke="#FF5353" stroke-width="13"/>
<path d="M127.977 260.216V259.832C127.947 259.864 127.903 259.891 127.845 259.912C127.786 259.931 127.729 259.943 127.673 259.948C127.619 259.953 127.545 259.96 127.449 259.968C127.355 259.976 127.283 259.984 127.233 259.992C127.043 260.013 126.902 260.061 126.809 260.136C126.715 260.208 126.669 260.319 126.669 260.468C126.669 260.599 126.715 260.707 126.809 260.792C126.902 260.875 127.035 260.916 127.209 260.916C127.339 260.916 127.454 260.895 127.553 260.852C127.651 260.809 127.726 260.76 127.777 260.704C127.83 260.645 127.873 260.58 127.905 260.508C127.937 260.436 127.957 260.377 127.965 260.332C127.973 260.287 127.977 260.248 127.977 260.216ZM128.129 259.432V260.62C128.129 260.673 128.13 260.715 128.133 260.744C128.135 260.771 128.147 260.799 128.169 260.828C128.19 260.855 128.222 260.868 128.265 260.868C128.291 260.868 128.329 260.864 128.377 260.856V260.984C128.318 260.995 128.277 261 128.253 261C128.143 261 128.07 260.975 128.033 260.924C127.995 260.873 127.977 260.799 127.977 260.7V260.592H127.969C127.918 260.723 127.825 260.832 127.689 260.92C127.553 261.005 127.391 261.048 127.205 261.048C126.746 261.048 126.517 260.855 126.517 260.468C126.517 260.375 126.533 260.293 126.565 260.224C126.597 260.152 126.637 260.096 126.685 260.056C126.733 260.013 126.791 259.977 126.861 259.948C126.933 259.919 126.999 259.899 127.061 259.888C127.125 259.875 127.195 259.865 127.273 259.86C127.393 259.852 127.489 259.844 127.561 259.836C127.633 259.828 127.698 259.816 127.757 259.8C127.815 259.784 127.857 259.769 127.881 259.756C127.907 259.74 127.929 259.715 127.945 259.68C127.963 259.645 127.974 259.612 127.977 259.58C127.979 259.545 127.981 259.496 127.981 259.432C127.981 259.403 127.971 259.368 127.953 259.328C127.937 259.288 127.91 259.244 127.873 259.196C127.835 259.148 127.775 259.108 127.693 259.076C127.613 259.044 127.518 259.028 127.409 259.028C127.222 259.028 127.073 259.076 126.961 259.172C126.849 259.265 126.787 259.4 126.777 259.576H126.625C126.635 259.352 126.707 259.183 126.841 259.068C126.974 258.953 127.163 258.896 127.409 258.896C127.889 258.896 128.129 259.075 128.129 259.432ZM129.437 260.916C129.682 260.916 129.87 260.824 130.001 260.64C130.131 260.456 130.197 260.235 130.197 259.976C130.197 259.715 130.131 259.492 130.001 259.308C129.87 259.121 129.681 259.028 129.433 259.028C129.177 259.028 128.985 259.119 128.857 259.3C128.731 259.479 128.669 259.704 128.669 259.976C128.669 260.237 128.734 260.46 128.865 260.644C128.998 260.825 129.189 260.916 129.437 260.916ZM130.201 261V260.56H130.193C130.025 260.885 129.762 261.048 129.405 261.048C129.111 261.048 128.89 260.947 128.741 260.744C128.591 260.539 128.517 260.283 128.517 259.976C128.517 259.656 128.594 259.396 128.749 259.196C128.906 258.996 129.134 258.896 129.433 258.896C129.606 258.896 129.762 258.941 129.901 259.032C130.042 259.123 130.139 259.247 130.193 259.404H130.201V258.144H130.353V261H130.201ZM132.395 258.944L131.619 261H131.431L130.603 258.944H130.779L131.523 260.824H131.531L132.227 258.944H132.395ZM133.977 260.216V259.832C133.947 259.864 133.903 259.891 133.845 259.912C133.786 259.931 133.729 259.943 133.673 259.948C133.619 259.953 133.545 259.96 133.449 259.968C133.355 259.976 133.283 259.984 133.233 259.992C133.043 260.013 132.902 260.061 132.809 260.136C132.715 260.208 132.669 260.319 132.669 260.468C132.669 260.599 132.715 260.707 132.809 260.792C132.902 260.875 133.035 260.916 133.209 260.916C133.339 260.916 133.454 260.895 133.553 260.852C133.651 260.809 133.726 260.76 133.777 260.704C133.83 260.645 133.873 260.58 133.905 260.508C133.937 260.436 133.957 260.377 133.965 260.332C133.973 260.287 133.977 260.248 133.977 260.216ZM134.129 259.432V260.62C134.129 260.673 134.13 260.715 134.133 260.744C134.135 260.771 134.147 260.799 134.169 260.828C134.19 260.855 134.222 260.868 134.265 260.868C134.291 260.868 134.329 260.864 134.377 260.856V260.984C134.318 260.995 134.277 261 134.253 261C134.143 261 134.07 260.975 134.033 260.924C133.995 260.873 133.977 260.799 133.977 260.7V260.592H133.969C133.918 260.723 133.825 260.832 133.689 260.92C133.553 261.005 133.391 261.048 133.205 261.048C132.746 261.048 132.517 260.855 132.517 260.468C132.517 260.375 132.533 260.293 132.565 260.224C132.597 260.152 132.637 260.096 132.685 260.056C132.733 260.013 132.791 259.977 132.861 259.948C132.933 259.919 132.999 259.899 133.061 259.888C133.125 259.875 133.195 259.865 133.273 259.86C133.393 259.852 133.489 259.844 133.561 259.836C133.633 259.828 133.698 259.816 133.757 259.8C133.815 259.784 133.857 259.769 133.881 259.756C133.907 259.74 133.929 259.715 133.945 259.68C133.963 259.645 133.974 259.612 133.977 259.58C133.979 259.545 133.981 259.496 133.981 259.432C133.981 259.403 133.971 259.368 133.953 259.328C133.937 259.288 133.91 259.244 133.873 259.196C133.835 259.148 133.775 259.108 133.693 259.076C133.613 259.044 133.518 259.028 133.409 259.028C133.222 259.028 133.073 259.076 132.961 259.172C132.849 259.265 132.787 259.4 132.777 259.576H132.625C132.635 259.352 132.707 259.183 132.841 259.068C132.974 258.953 133.163 258.896 133.409 258.896C133.889 258.896 134.129 259.075 134.129 259.432ZM134.613 261V258.944H134.765V259.384H134.773C134.823 259.235 134.917 259.116 135.053 259.028C135.191 258.94 135.343 258.896 135.509 258.896C135.623 258.896 135.725 258.911 135.813 258.94C135.901 258.967 135.97 259.007 136.021 259.06C136.071 259.111 136.113 259.163 136.145 259.216C136.177 259.267 136.199 259.329 136.213 259.404C136.226 259.479 136.234 259.537 136.237 259.58C136.239 259.62 136.241 259.669 136.241 259.728V261H136.089V259.7C136.089 259.252 135.894 259.028 135.505 259.028C135.278 259.028 135.098 259.108 134.965 259.268C134.831 259.425 134.765 259.632 134.765 259.888V261H134.613ZM138.387 259.58H138.235C138.222 259.404 138.15 259.268 138.019 259.172C137.891 259.076 137.731 259.028 137.539 259.028C137.294 259.028 137.1 259.12 136.959 259.304C136.818 259.485 136.747 259.701 136.747 259.952C136.747 260.243 136.815 260.476 136.951 260.652C137.087 260.828 137.283 260.916 137.539 260.916C137.728 260.916 137.888 260.857 138.019 260.74C138.15 260.62 138.228 260.465 138.255 260.276H138.407C138.375 260.516 138.279 260.705 138.119 260.844C137.959 260.98 137.766 261.048 137.539 261.048C137.224 261.048 136.988 260.944 136.831 260.736C136.674 260.525 136.595 260.264 136.595 259.952C136.595 259.653 136.679 259.403 136.847 259.2C137.015 258.997 137.246 258.896 137.539 258.896C137.774 258.896 137.968 258.955 138.123 259.072C138.278 259.187 138.366 259.356 138.387 259.58ZM140.481 259.992H138.821C138.816 260.251 138.88 260.469 139.013 260.648C139.146 260.827 139.334 260.916 139.577 260.916C139.772 260.916 139.933 260.861 140.061 260.752C140.192 260.643 140.276 260.493 140.313 260.304H140.465C140.425 260.544 140.328 260.728 140.173 260.856C140.021 260.984 139.822 261.048 139.577 261.048C139.289 261.048 139.064 260.949 138.901 260.752C138.741 260.555 138.664 260.307 138.669 260.008C138.664 259.704 138.74 259.443 138.897 259.224C139.057 259.005 139.284 258.896 139.577 258.896C139.884 258.896 140.114 259.001 140.269 259.212C140.426 259.42 140.497 259.68 140.481 259.992ZM138.821 259.86H140.329C140.324 259.631 140.253 259.435 140.117 259.272C139.984 259.109 139.804 259.028 139.577 259.028C139.361 259.028 139.185 259.112 139.049 259.28C138.916 259.445 138.84 259.639 138.821 259.86Z" fill="#2B2B2B"/>
<path d="M95.228 261V258.944H95.38V259.364H95.388C95.42 259.233 95.4973 259.123 95.62 259.032C95.7427 258.941 95.88 258.896 96.032 258.896C96.2133 258.896 96.356 258.939 96.46 259.024C96.564 259.109 96.628 259.212 96.652 259.332H96.66C96.7853 259.041 97.0027 258.896 97.312 258.896C97.5067 258.896 97.6627 258.955 97.78 259.072C97.8973 259.189 97.956 259.364 97.956 259.596V261H97.804V259.592C97.804 259.493 97.7907 259.408 97.764 259.336C97.7373 259.261 97.7053 259.205 97.668 259.168C97.6307 259.131 97.5867 259.101 97.536 259.08C97.4853 259.056 97.4427 259.041 97.408 259.036C97.376 259.031 97.344 259.028 97.312 259.028C97.12 259.028 96.964 259.095 96.844 259.228C96.7267 259.359 96.668 259.544 96.668 259.784V261H96.516V259.592C96.516 259.472 96.4973 259.371 96.46 259.288C96.4253 259.205 96.3787 259.148 96.32 259.116C96.2613 259.081 96.2093 259.059 96.164 259.048C96.1213 259.035 96.0773 259.028 96.032 259.028C95.864 259.028 95.7133 259.093 95.58 259.224C95.4467 259.355 95.38 259.541 95.38 259.784V261H95.228ZM100.128 259.992H98.4676C98.4623 260.251 98.5263 260.469 98.6596 260.648C98.7929 260.827 98.9809 260.916 99.2236 260.916C99.4183 260.916 99.5796 260.861 99.7076 260.752C99.8383 260.643 99.9223 260.493 99.9596 260.304H100.112C100.072 260.544 99.9743 260.728 99.8196 260.856C99.6676 260.984 99.4689 261.048 99.2236 261.048C98.9356 261.048 98.7103 260.949 98.5476 260.752C98.3876 260.555 98.3103 260.307 98.3156 260.008C98.3103 259.704 98.3863 259.443 98.5436 259.224C98.7036 259.005 98.9303 258.896 99.2236 258.896C99.5303 258.896 99.7609 259.001 99.9156 259.212C100.073 259.42 100.144 259.68 100.128 259.992ZM98.4676 259.86H99.9756C99.9703 259.631 99.8996 259.435 99.7636 259.272C99.6303 259.109 99.4503 259.028 99.2236 259.028C99.0076 259.028 98.8316 259.112 98.6956 259.28C98.5623 259.445 98.4863 259.639 98.4676 259.86ZM101.306 260.916C101.551 260.916 101.739 260.824 101.87 260.64C102 260.456 102.066 260.235 102.066 259.976C102.066 259.715 102 259.492 101.87 259.308C101.739 259.121 101.55 259.028 101.302 259.028C101.046 259.028 100.854 259.119 100.726 259.3C100.6 259.479 100.538 259.704 100.538 259.976C100.538 260.237 100.603 260.46 100.734 260.644C100.867 260.825 101.058 260.916 101.306 260.916ZM102.07 261V260.56H102.062C101.894 260.885 101.631 261.048 101.274 261.048C100.98 261.048 100.759 260.947 100.61 260.744C100.46 260.539 100.386 260.283 100.386 259.976C100.386 259.656 100.463 259.396 100.618 259.196C100.775 258.996 101.003 258.896 101.302 258.896C101.475 258.896 101.631 258.941 101.77 259.032C101.911 259.123 102.008 259.247 102.062 259.404H102.07V258.144H102.222V261H102.07ZM102.892 261H102.74V258.944H102.892V261ZM102.892 258.556H102.74V258.144H102.892V258.556ZM105.004 258.944V261H104.852V260.56H104.844C104.794 260.709 104.699 260.828 104.56 260.916C104.424 261.004 104.274 261.048 104.108 261.048C103.994 261.048 103.892 261.033 103.804 261.004C103.716 260.977 103.647 260.939 103.596 260.888C103.546 260.835 103.504 260.783 103.472 260.732C103.44 260.679 103.418 260.615 103.404 260.54C103.391 260.465 103.383 260.408 103.38 260.368C103.378 260.325 103.376 260.275 103.376 260.216V258.944H103.528V260.244C103.528 260.692 103.723 260.916 104.112 260.916C104.339 260.916 104.519 260.837 104.652 260.68C104.786 260.52 104.852 260.312 104.852 260.056V258.944H105.004ZM105.455 261V258.944H105.607V259.364H105.615C105.647 259.233 105.724 259.123 105.847 259.032C105.969 258.941 106.107 258.896 106.259 258.896C106.44 258.896 106.583 258.939 106.687 259.024C106.791 259.109 106.855 259.212 106.879 259.332H106.887C107.012 259.041 107.229 258.896 107.539 258.896C107.733 258.896 107.889 258.955 108.007 259.072C108.124 259.189 108.183 259.364 108.183 259.596V261H108.031V259.592C108.031 259.493 108.017 259.408 107.991 259.336C107.964 259.261 107.932 259.205 107.895 259.168C107.857 259.131 107.813 259.101 107.763 259.08C107.712 259.056 107.669 259.041 107.635 259.036C107.603 259.031 107.571 259.028 107.539 259.028C107.347 259.028 107.191 259.095 107.071 259.228C106.953 259.359 106.895 259.544 106.895 259.784V261H106.743V259.592C106.743 259.472 106.724 259.371 106.687 259.288C106.652 259.205 106.605 259.148 106.547 259.116C106.488 259.081 106.436 259.059 106.391 259.048C106.348 259.035 106.304 259.028 106.259 259.028C106.091 259.028 105.94 259.093 105.807 259.224C105.673 259.355 105.607 259.541 105.607 259.784V261H105.455Z" fill="#2B2B2B"/>
<path d="M70.6043 260.916C70.775 260.916 70.9176 260.865 71.0323 260.764C71.1496 260.66 71.231 260.537 71.2763 260.396C71.3216 260.252 71.3443 260.095 71.3443 259.924C71.3443 259.679 71.279 259.468 71.1483 259.292C71.0176 259.116 70.8363 259.028 70.6043 259.028C70.3456 259.028 70.1496 259.111 70.0163 259.276C69.8856 259.439 69.8203 259.655 69.8203 259.924C69.8203 260.201 69.8856 260.436 70.0163 260.628C70.147 260.82 70.343 260.916 70.6043 260.916ZM69.6643 261V258.144H69.8163V259.38H69.8243C69.8803 259.225 69.9803 259.107 70.1243 259.024C70.271 258.939 70.431 258.896 70.6043 258.896C70.895 258.896 71.1163 258.992 71.2683 259.184C71.4203 259.376 71.4963 259.623 71.4963 259.924C71.4963 260.111 71.4736 260.275 71.4283 260.416C71.383 260.557 71.3283 260.667 71.2643 260.744C71.2003 260.821 71.1243 260.884 71.0363 260.932C70.951 260.98 70.8736 261.011 70.8043 261.024C70.7376 261.04 70.671 261.048 70.6043 261.048C70.479 261.048 70.3643 261.028 70.2603 260.988C70.159 260.945 70.079 260.893 70.0203 260.832C69.9616 260.771 69.9163 260.716 69.8843 260.668C69.855 260.62 69.835 260.577 69.8243 260.54H69.8163V261H69.6643ZM73.571 259.992H71.911C71.9056 260.251 71.9696 260.469 72.103 260.648C72.2363 260.827 72.4243 260.916 72.667 260.916C72.8616 260.916 73.023 260.861 73.151 260.752C73.2816 260.643 73.3656 260.493 73.403 260.304H73.555C73.515 260.544 73.4176 260.728 73.263 260.856C73.111 260.984 72.9123 261.048 72.667 261.048C72.379 261.048 72.1536 260.949 71.991 260.752C71.831 260.555 71.7536 260.307 71.759 260.008C71.7536 259.704 71.8296 259.443 71.987 259.224C72.147 259.005 72.3736 258.896 72.667 258.896C72.9736 258.896 73.2043 259.001 73.359 259.212C73.5163 259.42 73.587 259.68 73.571 259.992ZM71.911 259.86H73.419C73.4136 259.631 73.343 259.435 73.207 259.272C73.0736 259.109 72.8936 259.028 72.667 259.028C72.451 259.028 72.275 259.112 72.139 259.28C72.0056 259.445 71.9296 259.639 71.911 259.86ZM74.7212 259.028C74.4865 259.028 74.3052 259.116 74.1772 259.292C74.0492 259.465 73.9852 259.671 73.9852 259.908C73.9852 260.161 74.0492 260.372 74.1772 260.54C74.3078 260.708 74.4892 260.792 74.7212 260.792C74.9585 260.792 75.1425 260.707 75.2732 260.536C75.4038 260.365 75.4692 260.156 75.4692 259.908C75.4692 259.66 75.4038 259.452 75.2732 259.284C75.1452 259.113 74.9612 259.028 74.7212 259.028ZM75.4732 258.944H75.6252V260.892C75.6252 260.929 75.6238 260.964 75.6212 260.996C75.6212 261.025 75.6145 261.073 75.6012 261.14C75.5905 261.209 75.5745 261.269 75.5532 261.32C75.5345 261.373 75.5025 261.431 75.4572 261.492C75.4145 261.556 75.3625 261.608 75.3012 261.648C75.2425 261.691 75.1638 261.724 75.0652 261.748C74.9692 261.775 74.8598 261.787 74.7372 261.784C74.2225 261.784 73.9545 261.571 73.9332 261.144H74.0852C74.1012 261.317 74.1692 261.445 74.2892 261.528C74.4092 261.611 74.5598 261.652 74.7412 261.652C74.8772 261.652 74.9945 261.629 75.0932 261.584C75.1918 261.541 75.2638 261.492 75.3092 261.436C75.3572 261.383 75.3945 261.316 75.4212 261.236C75.4478 261.159 75.4625 261.099 75.4652 261.056C75.4705 261.016 75.4732 260.973 75.4732 260.928V260.456H75.4652C75.3185 260.768 75.0705 260.924 74.7212 260.924C74.4305 260.924 74.2092 260.831 74.0572 260.644C73.9078 260.455 73.8332 260.209 73.8332 259.908C73.8332 259.623 73.9118 259.383 74.0692 259.188C74.2265 258.993 74.4438 258.896 74.7212 258.896C74.8865 258.896 75.0385 258.939 75.1772 259.024C75.3158 259.107 75.4118 259.223 75.4652 259.372H75.4732V258.944ZM76.2616 261H76.1096V258.944H76.2616V261ZM76.2616 258.556H76.1096V258.144H76.2616V258.556ZM76.7455 261V258.944H76.8975V259.384H76.9055C76.9562 259.235 77.0495 259.116 77.1855 259.028C77.3242 258.94 77.4762 258.896 77.6415 258.896C77.7562 258.896 77.8575 258.911 77.9455 258.94C78.0335 258.967 78.1028 259.007 78.1535 259.06C78.2042 259.111 78.2455 259.163 78.2775 259.216C78.3095 259.267 78.3322 259.329 78.3455 259.404C78.3588 259.479 78.3668 259.537 78.3695 259.58C78.3722 259.62 78.3735 259.669 78.3735 259.728V261H78.2215V259.7C78.2215 259.252 78.0268 259.028 77.6375 259.028C77.4108 259.028 77.2308 259.108 77.0975 259.268C76.9642 259.425 76.8975 259.632 76.8975 259.888V261H76.7455Z" fill="#2B2B2B"/>
<circle cx="64" cy="260" r="3" fill="#FFE5D7"/>
<circle cx="90" cy="260" r="3" fill="#FF876C"/>
<circle cx="120" cy="260" r="3" fill="#FF5353"/>
<defs>
<filter id="filter0_d_102:536" x="486" y="146" width="131" height="129" filterUnits="userSpaceOnUse" color-interpolation-filters="sRGB">
<feFlood flood-opacity="0" result="BackgroundImageFix"/>
<feColorMatrix in="SourceAlpha" type="matrix" values="0 0 0 0 0 0 0 0 0 0 0 0 0 0 0 0 0 0 127 0" result="hardAlpha"/>
<feOffset dx="5" dy="5"/>
<feGaussianBlur stdDeviation="15"/>
<feColorMatrix type="matrix" values="0 0 0 0 0.345087 0 0 0 0 0.560927 0 0 0 0 0.579167 0 0 0 0.1 0"/>
<feBlend mode="normal" in2="BackgroundImageFix" result="effect1_dropShadow_102:536"/>
<feBlend mode="normal" in="SourceGraphic" in2="effect1_dropShadow_102:536" result="shape"/>
</filter>
<filter id="filter1_d_102:536" x="495" y="155" width="113" height="111" filterUnits="userSpaceOnUse" color-interpolation-filters="sRGB">
<feFlood flood-opacity="0" result="BackgroundImageFix"/>
<feColorMatrix in="SourceAlpha" type="matrix" values="0 0 0 0 0 0 0 0 0 0 0 0 0 0 0 0 0 0 127 0" result="hardAlpha"/>
<feOffset dx="5" dy="5"/>
<feGaussianBlur stdDeviation="15"/>
<feColorMatrix type="matrix" values="0 0 0 0 0.345087 0 0 0 0 0.560927 0 0 0 0 0.579167 0 0 0 0.1 0"/>
<feBlend mode="normal" in2="BackgroundImageFix" result="effect1_dropShadow_102:536"/>
<feBlend mode="normal" in="SourceGraphic" in2="effect1_dropShadow_102:536" result="shape"/>
</filter>
<filter id="filter2_d_102:536" x="235" y="322" width="235" height="134" filterUnits="userSpaceOnUse" color-interpolation-filters="sRGB">
<feFlood flood-opacity="0" result="BackgroundImageFix"/>
<feColorMatrix in="SourceAlpha" type="matrix" values="0 0 0 0 0 0 0 0 0 0 0 0 0 0 0 0 0 0 127 0" result="hardAlpha"/>
<feOffset dx="5" dy="5"/>
<feGaussianBlur stdDeviation="15"/>
<feColorMatrix type="matrix" values="0 0 0 0 0.117922 0 0 0 0 0.36695 0 0 0 0 0.6625 0 0 0 0.2 0"/>
<feBlend mode="normal" in2="BackgroundImageFix" result="effect1_dropShadow_102:536"/>
<feBlend mode="normal" in="SourceGraphic" in2="effect1_dropShadow_102:536" result="shape"/>
</filter>
<filter id="filter3_d_102:536" x="0" y="67" width="215" height="265" filterUnits="userSpaceOnUse" color-interpolation-filters="sRGB">
<feFlood flood-opacity="0" result="BackgroundImageFix"/>
<feColorMatrix in="SourceAlpha" type="matrix" values="0 0 0 0 0 0 0 0 0 0 0 0 0 0 0 0 0 0 127 0" result="hardAlpha"/>
<feOffset dx="5" dy="5"/>
<feGaussianBlur stdDeviation="15"/>
<feColorMatrix type="matrix" values="0 0 0 0 0.345087 0 0 0 0 0.560927 0 0 0 0 0.579167 0 0 0 0.1 0"/>
<feBlend mode="normal" in2="BackgroundImageFix" result="effect1_dropShadow_102:536"/>
<feBlend mode="normal" in="SourceGraphic" in2="effect1_dropShadow_102:536" result="shape"/>
</filter>
<filter id="filter4_d_102:536" x="12" y="82" width="191" height="234" filterUnits="userSpaceOnUse" color-interpolation-filters="sRGB">
<feFlood flood-opacity="0" result="BackgroundImageFix"/>
<feColorMatrix in="SourceAlpha" type="matrix" values="0 0 0 0 0 0 0 0 0 0 0 0 0 0 0 0 0 0 127 0" result="hardAlpha"/>
<feOffset dx="5" dy="5"/>
<feGaussianBlur stdDeviation="15"/>
<feColorMatrix type="matrix" values="0 0 0 0 0.345087 0 0 0 0 0.560927 0 0 0 0 0.579167 0 0 0 0.1 0"/>
<feBlend mode="normal" in2="BackgroundImageFix" result="effect1_dropShadow_102:536"/>
<feBlend mode="normal" in="SourceGraphic" in2="effect1_dropShadow_102:536" result="shape"/>
</filter>
</defs>
</svg>
